<svg width="21" height="20" viewBox="0 0 21 20" fill="none" xmlns="http://www.w3.org/2000/svg">
<g id="Frame" clip-path="url(#clip0_181_294)">
<path id="Vector" d="M0 6.29316C0.0167076 5.32038 0.367566 4.50994 1.09434 3.84057C1.56216 3.40941 1.99794 2.94763 2.4755 2.52711C3.3443 1.75926 4.41915 1.73265 5.28794 2.5005C6.15534 3.26834 6.9935 4.06813 7.79964 4.89453C8.59604 5.71162 8.57237 6.68441 7.79686 7.52412C7.55181 7.79027 7.30955 8.07106 7.01578 8.27999C6.43241 8.69386 6.42127 9.0851 6.83617 9.65067C7.98343 11.2143 9.35345 12.5398 11.0367 13.5711C11.4321 13.8133 11.7538 13.8758 12.0893 13.4566C12.3552 13.1253 12.695 12.8458 13.0208 12.5624C13.909 11.7919 14.9588 11.7919 15.8193 12.5837C16.6379 13.3369 17.4399 14.1074 18.2279 14.8899C19.0591 15.7163 19.0967 16.7197 18.3101 17.5754C17.7754 18.1569 17.213 18.7225 16.6045 19.2321C15.4907 20.1663 14.1791 20.1171 12.8579 19.7684C9.398 18.8542 6.59948 16.9366 4.23258 14.4188C2.43373 12.5065 0.998276 10.3733 0.289598 7.85681C0.146191 7.34713 0.0946761 6.81482 0 6.29316ZM14.4952 18.8728C14.8725 18.7025 15.4113 18.5521 15.829 18.2487C16.3581 17.8628 16.7883 17.3531 17.2631 16.898C17.7142 16.4655 17.6822 16.0596 17.2297 15.6378C16.482 14.9418 15.7441 14.2365 15.0173 13.5219C14.5801 13.092 14.1805 13.1319 13.7642 13.5378C13.3257 13.965 12.9205 14.4387 12.4207 14.7861C12.1297 14.987 11.5867 15.1627 11.318 15.0363C8.61831 13.768 6.56885 11.8398 5.2044 9.26475C4.94683 8.77769 5.07631 8.37847 5.48704 8.01783C5.93118 7.62792 6.34887 7.21272 6.77909 6.80817C7.20931 6.40495 7.20931 6.00971 6.7777 5.60383C6.26533 5.12209 5.75993 4.63371 5.25592 4.14399C3.91931 2.8425 3.98475 2.9117 2.53259 4.13334C1.25307 5.21126 1.05954 6.41959 1.59975 7.83552C3.56985 12.9869 7.2831 16.5028 12.6198 18.4656C13.1516 18.6613 13.7406 18.7132 14.4952 18.8728Z" fill="#717171"/>
<path id="Vector_2" d="M20.9999 8.62465C20.837 8.75108 20.5919 9.07978 20.4012 9.05316C20.1436 9.01723 19.7719 8.74043 19.719 8.51021C19.3834 7.0344 18.7792 5.68767 17.7878 4.51127C16.3092 2.756 14.4157 1.64215 12.0933 1.21232C11.6534 1.13114 11.3332 0.944836 11.4292 0.463101C11.5197 0.010642 11.8873 -0.0399269 12.2911 0.0159651C12.3593 0.0252804 12.4289 0.0372572 12.4957 0.0505648C15.0603 0.577546 17.1599 1.82713 18.7959 3.78202C19.854 5.04624 20.5488 6.47947 20.8857 8.06973C20.9135 8.20147 20.9386 8.33189 20.9999 8.62465Z" fill="#717171"/>
<path id="Vector_3" d="M11.7723 3.40918C13.6937 3.72191 15.1389 4.52702 16.1358 5.90968C16.6593 6.6376 16.9586 7.52123 17.3011 8.35695C17.4515 8.72557 17.3847 9.1381 16.8681 9.24456C16.3711 9.34703 16.1789 9.0516 16.0703 8.62975C15.526 6.50187 14.1448 5.16312 11.9018 4.66142C11.498 4.57093 11.1569 4.38063 11.2655 3.95612C11.3254 3.7259 11.6331 3.55157 11.7723 3.40918Z" fill="#717171"/>
</g>
<defs>
<clipPath id="clip0_181_294">
<rect width="21" height="20" fill="white"/>
</clipPath>
</defs>
</svg>
