<svg width="35" height="35" viewBox="0 0 35 35" fill="none" xmlns="http://www.w3.org/2000/svg">
<g id="SVG">
<path id="Vector" d="M33.4713 13.3595C33.7272 13.156 34.1078 13.3463 34.1078 13.6679V27.0882C34.1078 28.8273 32.6969 30.2382 30.9578 30.2382H3.65781C1.91875 30.2382 0.507812 28.8273 0.507812 27.0882V13.6745C0.507812 13.3463 0.881875 13.1626 1.14438 13.366C2.61438 14.5079 4.56344 15.9582 11.2572 20.821C12.6419 21.8316 14.9781 23.9579 17.3078 23.9448C19.6506 23.9645 22.0328 21.7923 23.365 20.821C30.0588 15.9582 32.0013 14.5013 33.4713 13.3595ZM17.3078 21.8382C18.8303 21.8645 21.0222 19.922 22.1247 19.1213C30.8331 12.8016 31.4959 12.2504 33.5041 10.6754C33.8847 10.3801 34.1078 9.92071 34.1078 9.43508V8.18821C34.1078 6.44915 32.6969 5.03821 30.9578 5.03821H3.65781C1.91875 5.03821 0.507812 6.44915 0.507812 8.18821V9.43508C0.507812 9.92071 0.730937 10.3735 1.11156 10.6754C3.11969 12.2438 3.7825 12.8016 12.4909 19.1213C13.5934 19.922 15.7853 21.8645 17.3078 21.8382Z" fill="#FEA821"/>
</g>
</svg>
