<svg width="20" height="20" viewBox="0 0 20 20" fill="none" xmlns="http://www.w3.org/2000/svg">
<g id="Item &#226;&#134;&#146; Link - Summer Fridays on Facebook &#226;&#134;&#146; SVG">
<g id="Group">
<path id="Vector" d="M18.896 0H1.103C0.494 0 0 0.495 0 1.104V18.897C0 19.506 0.495 20 1.104 20H10.684V12.266H8.087V9.238H10.684V7.01C10.684 4.426 12.261 3.02 14.566 3.02C15.344 3.017 16.122 3.057 16.895 3.139V5.84H15.305C14.051 5.84 13.808 6.435 13.808 7.311V9.239H16.806L16.415 12.266H13.808V20H18.895C19.505 20 20 19.506 20 18.897V1.103C20 0.494 19.505 0 18.896 0Z" fill="#262626"/>
</g>
</g>
</svg>
