<svg width="20" height="20" viewBox="0 0 20 20" fill="none" xmlns="http://www.w3.org/2000/svg">
<g id="Item &#226;&#134;&#146; Link - Summer Fridays on Instagram &#226;&#134;&#146; SVG">
<g id="Group">
<path id="Vector" d="M19.9489 5.88C19.9329 5.051 19.7759 4.23 19.4839 3.454C18.9629 2.11 17.8999 1.047 16.5559 0.527C15.7789 0.236 14.9589 0.079 14.1299 0.062C13.0589 0.012 12.7199 0 10.0039 0C7.28793 0 6.94893 0.012 5.88293 0.059C5.05393 0.075 4.23293 0.232 3.45693 0.523C2.78793 0.774 2.18193 1.169 1.68293 1.68C1.17493 2.179 0.78193 2.782 0.52993 3.448C0.23893 4.225 0.0809297 5.046 0.0649297 5.876C0.0139297 6.946 0.00292969 7.286 0.00292969 10.002C0.00292969 12.718 0.0149297 13.057 0.0619297 14.124C0.0779297 14.953 0.23493 15.774 0.52693 16.55C1.04693 17.893 2.10993 18.956 3.45293 19.476C4.22993 19.767 5.04993 19.924 5.87893 19.941C6.94593 19.988 7.28593 20 10.0009 20C12.7159 20 13.0559 19.988 14.1229 19.941C14.9519 19.925 15.7729 19.768 16.5489 19.476C17.8929 18.956 18.9539 17.893 19.4729 16.549C19.7639 15.772 19.9209 14.952 19.9379 14.123C19.9849 13.056 19.9969 12.716 19.9969 10.001C19.9969 7.286 19.9939 6.946 19.9489 5.88ZM18.1459 14.045C18.1399 14.679 18.0229 15.307 17.8019 15.901C17.4649 16.773 16.7769 17.462 15.9059 17.799C15.3119 18.02 14.6839 18.136 14.0499 18.143C12.9949 18.19 12.6789 18.202 10.0099 18.202C7.34093 18.202 7.02093 18.19 5.96693 18.143C5.33293 18.137 4.70493 18.02 4.11093 17.799C3.67693 17.64 3.28393 17.385 2.96193 17.053C2.63093 16.73 2.37593 16.338 2.21593 15.904C1.99593 15.31 1.88093 14.682 1.87493 14.049C1.82793 12.994 1.81593 12.678 1.81593 10.006C1.81593 7.334 1.82793 7.017 1.87493 5.966C1.88093 5.333 1.99693 4.706 2.21693 4.113C2.37593 3.678 2.63293 3.285 2.96693 2.964C3.28993 2.633 3.68193 2.378 4.11593 2.218C4.70993 1.997 5.33793 1.881 5.97193 1.874C7.02693 1.827 7.34393 1.815 10.0119 1.815C12.6799 1.815 13.0009 1.827 14.0549 1.874C14.6889 1.88 15.3169 1.997 15.9109 2.218C16.3449 2.377 16.7379 2.632 17.0599 2.964C17.3899 3.287 17.6439 3.679 17.8029 4.113C18.0239 4.707 18.1399 5.335 18.1469 5.969C18.1939 7.024 18.2059 7.34 18.2059 10.009C18.2059 12.678 18.1929 12.99 18.1459 14.045Z" fill="#262626"/>
<path id="Vector_2" d="M10.004 5.43701C7.48296 5.43701 5.43896 7.48101 5.43896 10.002C5.43896 12.523 7.48296 14.567 10.004 14.567C12.525 14.567 14.569 12.523 14.569 10.002C14.568 7.48101 12.525 5.43801 10.004 5.43701ZM10.004 12.962C8.36896 12.962 7.04396 11.636 7.04396 10.001C7.04396 8.36601 8.36996 7.04101 10.005 7.04101C11.64 7.04101 12.965 8.36701 12.965 10.002C12.965 11.637 11.64 12.962 10.004 12.962Z" fill="#262626"/>
<path id="Vector_3" d="M16.5999 4.74605C16.5989 5.48605 15.9989 6.08605 15.2579 6.08505C14.5179 6.08405 13.9179 5.48405 13.9189 4.74305C13.9199 4.00405 14.5179 3.40505 15.2569 3.40405C15.9979 3.40305 16.5989 4.00205 16.6009 4.74305L16.5999 4.74605Z" fill="#262626"/>
</g>
</g>
</svg>
