<svg width="35" height="35" viewBox="0 0 35 35" fill="none" xmlns="http://www.w3.org/2000/svg">
<g id="SVG">
<path id="Vector" d="M16.0131 33.7604C6.47791 19.9372 4.70801 18.5185 4.70801 13.4383C4.70801 6.47945 10.3492 0.838257 17.308 0.838257C24.2668 0.838257 29.908 6.47945 29.908 13.4383C29.908 18.5185 28.1381 19.9372 18.6029 33.7604C17.9772 34.6643 16.6388 34.6642 16.0131 33.7604ZM17.308 18.6883C20.2075 18.6883 22.558 16.3378 22.558 13.4383C22.558 10.5387 20.2075 8.18826 17.308 8.18826C14.4085 8.18826 12.058 10.5387 12.058 13.4383C12.058 16.3378 14.4085 18.6883 17.308 18.6883Z" fill="white"/>
</g>
</svg>
