<svg width="185" height="49" viewBox="0 0 185 49" fill="none" xmlns="http://www.w3.org/2000/svg">
<g id="Frame" clip-path="url(#clip0_181_224)">
<g id="Group">
<path id="Vector" d="M53.3203 3.44312V45.3084" stroke="#373435" stroke-width="1.8905" stroke-miterlimit="2.6131"/>
</g>
<g id="Group_2">
<path id="Vector_2" fill-rule="evenodd" clip-rule="evenodd" d="M21.3856 29.7645C20.8076 30.2204 20.8902 30.2619 20.1058 30.7178C19.6517 31.008 19.0737 31.2152 18.4957 31.3396C17.5048 31.5468 15.358 31.7126 15.1928 30.3033C15.069 30.3033 14.6148 30.5935 14.3671 30.6764C13.3763 30.9665 12.0964 30.8836 11.2294 30.3862C9.99086 29.723 9.94958 28.3137 10.7753 27.0702C11.601 25.8266 13.624 24.5417 15.1928 24.0442C15.4818 23.9613 16.9681 23.5883 17.092 23.4639C17.0094 23.1323 17.1332 23.2567 16.8442 23.0494L15.6057 22.3033C15.3993 22.1375 14.3258 21.6401 13.913 21.3499C13.7478 21.267 13.8304 21.3085 13.624 21.2256L12.6744 20.8525C12.5506 20.8111 12.5506 20.8111 12.4267 20.7696C12.2203 20.6867 12.179 20.6867 11.9313 20.6038C11.7249 20.5624 11.601 20.4795 11.4359 20.438L10.8991 20.3137C9.86701 20.0235 8.33945 19.8992 7.26603 19.8992C5.20176 19.8992 2.88977 20.7282 1.23835 21.8474C-0.206636 22.8007 0.0823616 22.3862 -0.000209248 23.2981C-0.0827801 25.7437 -0.000209207 28.1893 0.990641 30.3448C1.89892 32.3344 2.76591 33.6194 4.45862 34.9044C4.70633 35.1116 4.95404 35.2774 5.24304 35.4432C5.94489 35.8992 5.86232 35.6919 6.11003 35.6505C5.98618 35.9406 5.82104 36.3551 5.69718 36.6867C5.57332 37.0598 5.44947 37.3499 5.32561 37.7645C5.16047 38.4277 5.03661 39.5883 5.0779 40.3759C5.20176 42.2826 5.57332 43.3189 6.39903 44.7282C6.64674 45.1427 7.18346 46.1375 7.51374 46.4691C7.67888 46.6349 7.72017 46.6349 8.05045 46.6764C9.66058 46.7178 11.0643 46.6349 12.6331 46.2204C13.4588 46.0132 14.0781 45.8059 14.78 45.5572C15.9773 45.1012 15.3167 45.3085 16.1837 44.8111C17.4635 44.065 16.9681 44.1893 17.5048 43.8163L18.8672 42.4484C19.1975 42.0339 19.0737 42.0753 19.4865 41.6194L20.7251 39.3396L21.0554 38.2204C21.0966 37.9303 21.1379 37.8888 21.2205 37.6401C21.4269 36.894 21.4682 35.9821 21.5508 35.1531C21.7572 33.5779 21.4269 31.7126 21.5095 30.2204C21.4682 29.7645 21.3856 30.0546 21.3856 29.7645Z" fill="#FEA821"/>
<path id="Vector_3" fill-rule="evenodd" clip-rule="evenodd" d="M22.0047 19.4845C21.757 19.1529 21.5093 19.1114 21.1377 18.5311C20.89 18.1581 20.6423 17.7021 20.601 17.2047C20.5184 16.6244 20.601 16.0441 20.8487 15.5881C21.179 15.0078 21.3029 15.0493 21.9221 14.8006C21.9221 14.6762 21.7983 14.1373 21.6744 13.9715C20.8487 12.8524 18.6606 12.728 17.422 13.1425C17.133 13.2669 16.9679 13.4327 16.7202 13.557C16.4312 13.7643 16.0596 13.6399 15.977 13.3083C15.7706 12.2306 20.2707 11.5259 22.1286 14.013C22.913 13.7643 23.6149 13.2254 24.647 13.184C24.6057 12.8109 24.3167 12.6866 24.4818 11.5259C24.6057 10.6555 24.9773 9.32905 25.4314 8.58294C26.0507 7.50522 27.537 7.75392 26.0507 9.03889C25.5966 9.41195 25.5553 9.4534 25.3076 10.0752C24.8534 11.1943 24.8121 11.7746 24.8121 13.1011L26.092 13.0182L26.1746 13.7643C26.8351 13.6814 26.959 13.6814 27.5783 13.8886C27.5783 13.8057 27.5783 13.557 28.0737 13.8057L28.2388 13.9301C28.5278 14.1788 28.1975 13.8886 28.693 14.2202C29.0232 14.4275 28.9407 14.5933 29.1471 14.842L29.2297 14.9249L29.6838 15.7125C29.7251 15.9197 29.7251 16.127 29.7251 16.3757C29.7664 16.6658 29.7251 16.7073 29.8902 16.8731C30.138 16.7902 30.4682 16.0026 30.5508 15.7125L31.0049 14.2617C31.0875 13.1011 31.1288 11.7332 31.0049 10.5726L30.7159 8.54149C30.6747 8.37568 30.7159 8.54149 30.6747 8.37568C30.2618 7.13216 29.8902 5.97154 29.1471 4.76946C28.4865 3.65029 27.5783 2.48967 26.5048 1.74356C25.7617 1.2047 25.9681 1.41195 25.0598 1.49485C24.358 1.5363 24.069 1.5363 23.4497 1.74356C22.1699 2.15807 21.5093 2.82128 20.6423 3.69174C20.4772 3.85755 20.312 4.10625 20.1882 4.2306C20.1469 4.18915 20.1469 4.2306 20.1056 4.1477C19.6102 3.52594 19.445 3.19434 18.7432 2.69693C17.133 1.5363 16.555 1.61921 14.7385 1.41195C14.3256 1.3705 14.4495 1.2876 14.1605 1.5363C13.4999 2.11661 13.2522 2.32387 12.6742 3.06998C11.8898 4.0648 11.0641 5.72283 10.6512 7.09071C10.0319 9.16325 10.1145 12.2721 10.8577 14.3446C10.9402 14.6348 10.8989 14.2617 11.0641 14.8835C11.1054 15.0078 11.2292 15.2565 11.2705 15.3809C11.6008 16.2928 12.1375 17.3291 12.7568 18.0337L12.9632 18.2824C13.1284 18.4897 13.1696 18.5311 13.3348 18.6969C13.4586 18.8627 13.5412 18.9042 13.7064 19.07C14.0366 19.3601 13.7063 19.2772 14.1605 19.6088C14.1605 19.6088 14.2018 19.6088 14.2018 19.6503L14.9036 20.2306C15.688 20.728 15.1926 20.4793 15.5229 20.728C15.6055 20.7695 15.6881 20.8109 15.7706 20.8524C16.0183 21.0182 15.8119 21.0182 16.266 21.2669L16.6789 21.4741C16.9266 21.557 17.711 22.2202 18.0826 22.3031C18.4129 22.386 18.4955 22.3031 18.7432 22.2202C19.6102 21.8886 19.156 22.0544 19.9404 21.8886C20.89 21.7228 21.1377 21.2254 21.5506 20.4793L21.9634 19.7332C21.9634 19.6088 21.9634 19.5674 22.0047 19.4845Z" fill="#FEA821"/>
<path id="Vector_4" fill-rule="evenodd" clip-rule="evenodd" d="M35.9182 22.8836C35.7531 23.0079 35.877 22.8421 35.7944 23.1323C35.7531 23.2566 35.7531 23.2981 35.7531 23.4224C35.7531 23.5468 35.8357 23.754 35.6292 23.8369C35.6292 23.8369 35.6705 23.8369 35.6705 23.8784C35.6705 23.9198 35.7118 23.8784 35.7118 23.9198C35.7118 23.9198 36.2485 24.0856 36.6201 24.3344C37.2807 24.7903 38.4779 25.8266 38.2715 26.7799C38.4779 26.8629 39.3862 27.5261 39.4688 27.6504C38.9321 28.3551 38.1477 27.2774 38.1477 26.9872C38.0651 27.153 38.1064 27.0701 37.9825 27.2359C37.8999 27.3188 37.8999 27.3188 37.8174 27.4017C37.8587 27.5675 37.8587 27.4846 37.8587 27.609C37.9825 27.7333 37.9825 27.6919 38.1064 27.8162C38.6431 28.2722 39.0146 28.8525 39.0972 29.6401C39.2624 30.8421 39.2211 31.6297 37.7761 31.3395C37.8999 31.4639 37.8999 31.5053 37.8999 31.7955V33.2463C37.8999 33.9509 37.9825 34.8214 37.7348 35.2359C37.3632 35.8162 37.2807 36.5209 37.1568 36.811C36.9917 37.1012 36.6201 37.8888 36.2898 38.0546V37.9717C36.166 38.0546 36.166 38.1375 36.0421 38.2204C35.2164 39.1737 35.6705 38.2618 35.4641 39.2981C35.4228 39.3395 35.299 39.381 35.1338 39.2981C35.01 39.2152 35.0512 39.1737 34.9687 39.0494C34.0604 39.0908 33.4411 39.0908 32.6567 38.8007C32.2025 38.6349 31.1704 38.096 30.8814 37.8473C31.253 37.6815 34.3494 38.6763 36.6201 35.4846C36.7852 35.2359 36.7439 35.2359 36.9091 35.153V35.609C37.0329 35.3603 37.0329 33.7022 36.9917 33.3292C36.9091 32.8318 36.9091 32.7074 36.9504 32.21C36.9504 31.8369 36.9504 31.381 36.8265 31.0908C36.9091 32.4587 36.9091 33.7022 35.8357 34.7799C34.1017 36.5209 30.6337 37.3499 28.6933 36.1478C28.1979 35.8577 27.7024 35.4432 27.3309 35.0701C27.207 34.9043 27.1657 34.8629 27.0419 34.7385L26.2574 33.7022C26.7942 33.868 27.207 34.6141 29.23 34.7385C32.409 34.9043 35.6705 33.2463 36.5788 30.096L36.7439 30.5105C36.6614 29.7644 36.5788 30.0546 36.455 29.7644C36.3724 29.5986 36.3724 29.1012 36.2898 28.8939C36.2072 28.5623 36.1247 28.438 35.9595 28.1478C35.6292 27.4846 35.9595 27.982 35.4641 27.6504C35.3815 31.5053 29.9731 34.1582 26.34 32.2515C25.6382 31.8784 25.4317 31.6711 25.1427 30.8836C24.9363 30.2204 24.7712 29.4742 24.7712 28.7281C24.7712 28.6867 24.7712 27.982 24.7299 27.8162C24.6473 27.5675 24.6473 27.153 24.6886 26.9043L24.1932 26.6141C24.1932 26.9043 23.739 27.6919 23.6978 28.1064L23.8216 27.9406C23.9042 27.7333 23.9042 27.609 24.0693 27.4017C24.1519 28.2722 24.0693 29.1426 24.1932 30.0546C24.317 31.0494 24.4409 31.5053 24.4409 32.5416C24.606 32.3344 24.5235 31.6711 24.5235 31.3395C24.7712 31.1737 24.7712 31.2981 24.7712 31.2981C24.8537 31.3395 24.7712 31.2981 24.8537 31.381C24.9776 31.0908 24.7712 31.2566 25.0189 31.1737L25.1015 31.381C25.1427 31.5468 25.1015 31.381 25.1427 31.5468C25.2253 31.6711 25.2253 31.6711 25.2666 31.8369L25.5143 33.495C25.5143 34.0753 25.6382 34.2825 25.3905 34.2825C25.6795 34.697 25.9685 35.1116 26.1749 35.7333C26.34 36.3136 26.7116 38.2618 25.6795 38.2204C25.0189 38.1789 24.2345 36.6038 24.1519 36.438C24.0693 36.9354 24.1106 37.4742 24.1519 37.9717C24.2345 38.9665 24.2345 38.5105 24.3583 38.9665C24.4822 39.4224 24.4409 39.1737 24.5647 39.5468C25.0602 40.666 24.9363 40.1685 25.3079 40.7489C25.3492 40.8318 25.3905 40.9147 25.4317 40.9976C25.8859 41.7851 25.762 41.495 26.0097 41.8266C26.051 41.9095 26.051 41.868 26.0923 41.9509L26.7942 42.9043C26.7942 42.9043 26.7942 42.9043 26.8354 42.9458L27.5786 43.6919C28.1979 44.2307 27.785 43.8577 28.2804 44.1893C28.5694 44.3965 28.4456 44.3965 29.23 44.8525L29.6429 45.1012C29.7254 45.1426 29.6429 45.1012 29.7667 45.1426L30.3034 45.4328C30.5098 45.5157 30.6337 45.5986 30.8401 45.6815C31.253 45.8473 31.5833 45.9717 32.0374 46.096L33.276 46.4276C34.5145 46.8007 38.9734 46.6763 39.2624 46.3862L39.8816 45.0597C40.8312 42.9458 41.1615 42.1996 40.9551 39.5468C40.9551 39.381 40.9551 39.2152 40.9138 39.0494C40.8725 38.8007 40.8725 38.8836 40.8312 38.7178C40.7486 38.552 40.7073 38.1789 40.6661 37.9302C40.4184 36.8939 40.0468 36.1478 39.5926 35.2774C39.5514 35.1945 39.2211 34.8214 39.3036 34.6141C39.3862 34.4483 40.2532 33.9924 40.4184 33.9095C40.4596 33.9095 40.5009 33.868 40.5009 33.8266L41.2441 33.4121C41.5743 33.2048 42.3175 32.5831 42.5239 32.2929C42.8955 31.7955 42.689 32.1686 42.8955 31.9198C42.978 31.8369 43.0193 31.754 43.1019 31.6711L44.2992 30.1375C45.579 27.9406 45.7029 28.7696 44.8359 27.1116C44.5056 26.4483 44.2992 26.1996 43.9276 25.6193C43.6386 25.1634 43.267 24.7489 42.8542 24.3758C42.6891 24.21 42.6478 24.0856 42.4413 23.9613L41.5743 23.2981C41.3679 23.1737 41.3679 23.0908 41.1202 22.9665C40.6248 22.7178 40.3771 22.4276 40.1706 22.3447C39.7165 22.1375 39.9229 22.1375 39.6752 22.0546C39.4275 21.9302 39.1385 22.0131 39.3036 21.7644C38.1477 22.3862 37.5284 22.6763 35.9182 22.8836Z" fill="#FCB432"/>
<path id="Vector_5" fill-rule="evenodd" clip-rule="evenodd" d="M22.005 19.4845L22.4592 19.6503C22.1702 21.3498 21.716 21.6814 22.2115 23.8368C22.5417 25.2047 23.2849 25.785 24.1932 26.614L24.6886 26.9042C26.5464 27.9819 29.808 28.0234 31.2942 26.1581C32.0787 25.1632 32.12 24.4171 32.2851 24.1684C32.3677 23.0907 32.5741 22.3446 32.409 21.184C32.0787 18.9456 30.5924 17.785 28.5281 17.2047C28.3217 17.1218 28.1153 17.0803 27.9088 17.0389C27.7437 16.9974 27.4547 16.956 27.2896 16.8731C27.6198 16.5829 28.4456 16.6658 28.941 16.6658C28.9823 15.3394 28.4043 14.2202 27.5373 13.9301C26.918 13.7228 26.7941 13.7228 26.1336 13.8057L26.051 13.0596L24.7712 13.1425C24.7712 11.7747 24.8537 11.2358 25.2666 10.1166C25.5143 9.49486 25.5556 9.45341 26.0097 9.08035C27.496 7.79538 26.0097 7.54667 25.3904 8.62439C24.9363 9.37051 24.5647 10.6555 24.4409 11.5674C24.2757 12.728 24.606 12.8938 24.606 13.2254C23.6152 13.2669 22.872 13.8057 22.0876 14.0544C20.2298 11.5674 15.7296 12.2721 15.9361 13.3498C15.9774 13.6814 16.3489 13.8057 16.6792 13.5985C16.8856 13.4741 17.0921 13.3083 17.3811 13.184C18.5783 12.7695 20.8078 12.8938 21.6335 14.013C21.7573 14.1788 21.9225 14.7177 21.8812 14.842C21.2619 15.1322 21.138 15.0493 20.8078 15.6296C20.56 16.0855 20.4775 16.6658 20.56 17.2462C20.6426 17.7436 20.8903 18.1995 21.0967 18.5726C21.5096 19.07 21.7573 19.1529 22.005 19.4845Z" fill="#261817"/>
<path id="Vector_6" fill-rule="evenodd" clip-rule="evenodd" d="M3.55022 9.86802C2.76579 9.99238 2.22908 10.1582 1.69237 10.8628C1.3208 11.3603 0.990518 12.3551 1.19695 13.1841C1.56851 14.6763 2.64194 15.7955 4.37592 15.5882C5.8622 15.4224 7.10076 13.64 6.81176 12.3136C6.60534 11.3603 6.39891 10.9457 5.77963 10.4898C5.24292 10.0753 4.45849 9.74367 3.55022 9.86802Z" fill="#FCB432"/>
<path id="Vector_7" fill-rule="evenodd" clip-rule="evenodd" d="M35.9183 22.8836C37.5285 22.6763 38.1478 22.3862 39.3863 21.7644C40.1707 21.3913 42.3589 19.7748 41.8222 18.4069C42.1112 18.1582 42.6479 18.0338 43.3497 16.9147C43.7213 16.2929 44.1341 15.381 43.8039 14.5105C43.102 12.8939 40.5423 13.2255 39.1799 13.5986C37.0743 14.1375 34.8862 15.5882 33.1109 16.7489C32.4917 17.1634 31.6247 17.9095 31.377 18.0338C31.4595 18.1582 31.5008 18.2411 31.6247 18.3654C32.1201 18.2825 34.5559 16.666 35.0926 16.2929C35.8771 15.7955 37.7762 14.6349 38.767 14.4276C38.6845 14.7178 37.6111 15.381 37.2395 15.6711C36.6615 16.0442 36.1661 16.4173 35.5468 16.7903C34.9275 17.2048 33.0284 18.4069 32.4504 18.9458C32.2439 19.1116 32.2852 18.9458 32.3265 19.1945C32.6981 19.4432 34.4321 18.6141 34.8862 18.4069C35.8358 17.9509 36.3725 17.6193 36.9918 16.9976C37.9413 16.0442 39.634 14.3033 40.9965 14.0131C43.8039 13.4328 43.7626 16.0027 41.9873 17.495C41.5745 17.868 41.3267 17.868 40.6662 17.8266C39.5102 17.7437 38.6432 17.9924 37.5698 18.2411C37.0743 18.3654 36.5376 18.4483 36.5376 18.9458C36.7441 18.9872 37.9826 18.6556 38.3129 18.6141C38.9322 18.4898 39.634 18.3654 40.2533 18.3654C40.5423 18.3654 40.9552 18.324 41.1203 18.5312C41.5745 19.153 40.5836 20.1893 40.0469 20.5209C39.923 20.3551 39.923 20.1064 39.5515 19.8577C38.7258 19.2359 37.7762 19.1116 36.7441 19.153C36.0835 19.153 33.1522 19.6919 32.9458 20.0649C33.3587 20.2722 36.8679 19.1945 38.6019 19.7748C39.056 19.9406 39.7166 20.3136 39.7992 20.7281C39.5102 21.0183 38.478 21.5986 38.0652 21.7644C36.4138 20.4794 33.3174 20.7696 32.9458 21.0183C33.1109 21.1841 33.1935 21.1426 33.4412 21.1841C34.4321 21.267 36.7853 21.2255 37.3221 21.9717C36.8679 22.6349 34.3082 22.3862 33.1935 21.8059L33.2348 22.7178C33.6477 22.7592 35.4229 22.9665 35.9183 22.8836Z" fill="#261817"/>
<path id="Vector_8" fill-rule="evenodd" clip-rule="evenodd" d="M24.8125 28.7281C24.8125 29.4742 24.9776 30.2203 25.1841 30.8835C25.4318 31.6711 25.6795 31.8784 26.3813 32.2514C30.0145 34.1996 35.4229 31.5053 35.5054 27.6504C35.4641 26.697 34.3082 25.5364 33.7714 25.1633C33.565 26.4483 33.3586 27.1944 32.6567 28.0649C31.0466 30.096 27.8676 30.7177 25.4731 29.3913C25.0602 29.1841 24.8125 28.7695 24.8125 28.1892V28.7281Z" fill="#261817"/>
<path id="Vector_9" fill-rule="evenodd" clip-rule="evenodd" d="M17.0507 23.5052C16.9268 23.6296 15.4406 23.9612 15.1516 24.0855C13.624 24.6244 11.5597 25.8679 10.734 27.1114C9.90832 28.3964 9.94961 29.7643 11.1882 30.4275C12.0552 30.9249 13.335 31.0078 14.3259 30.7177C14.6149 30.6348 15.069 30.3861 15.1516 30.3446C15.3167 31.7539 17.4223 31.5881 18.4544 31.3809C19.0324 31.2565 19.6104 31.0078 20.0645 30.7591C20.849 30.2617 20.7664 30.2203 21.3444 29.8057C21.9224 29.3083 22.0462 28.9767 22.4591 28.1892C22.6655 27.7747 23.2848 26.7384 23.0784 26.241C22.8307 26.3239 22.5417 26.9042 22.4178 27.1114C21.4682 28.6451 20.4774 30.2617 18.4957 30.7177C16.803 31.1322 14.202 30.9249 16.7617 28.8524C17.2984 28.3964 17.8351 27.9819 18.4957 27.5674L21.6747 25.412C21.8398 25.2876 22.005 25.2462 22.005 25.0389C21.716 24.9146 19.5691 26.241 19.2801 26.4482C18.248 27.1114 16.7617 28.355 15.7296 29.184C15.358 29.4741 14.9864 29.7643 14.491 30.013C12.7157 30.842 9.99089 29.8057 10.8579 28.1892C11.601 26.8213 13.7892 26.4897 15.3167 26.3653C16.9681 26.1995 17.381 26.2824 18.826 25.7021C19.5278 25.412 21.138 24.6658 21.5921 24.2513C21.2618 24.0441 17.7113 24.9146 17.1333 25.0804C15.358 25.4949 14.6149 25.7436 12.9634 26.241C15.1929 24.2099 19.0324 24.2513 21.6334 23.1736L21.5921 23.1322C21.5921 23.1322 21.5921 23.1322 21.5921 23.0907C21.5921 23.0493 21.5095 23.1322 21.5921 22.9664C21.8398 22.5519 21.5095 23.2565 21.6747 22.842C20.6425 22.7591 17.8764 23.4638 17.0507 23.5052Z" fill="#261817"/>
<path id="Vector_10" fill-rule="evenodd" clip-rule="evenodd" d="M4.9955 4.18926C3.79822 4.39652 3.13765 5.55714 3.34408 6.75921C3.63308 8.33434 5.44964 8.91465 6.64691 8.04418C7.34877 7.54678 7.76162 6.75921 7.55519 5.80584C7.34877 4.60377 6.15149 3.98201 4.9955 4.18926Z" fill="#FEA821"/>
<path id="Vector_11" fill-rule="evenodd" clip-rule="evenodd" d="M24.6883 26.8629C24.647 27.1116 24.647 27.5261 24.7295 27.7748C24.7708 27.9406 24.7708 28.6453 24.8121 28.6867V28.1064C24.8121 28.6867 25.0598 29.1012 25.4727 29.3085C27.8672 30.6349 31.0875 30.0132 32.6563 27.9821C33.3169 27.1116 33.5646 26.3655 33.771 25.0805L33.6059 24.8318C33.5233 24.7075 33.5233 24.666 33.482 24.5831C33.1105 24.5417 33.1518 24.5002 32.904 24.3344C32.6976 24.21 32.5738 24.1686 32.2848 24.0857C32.1196 24.3344 32.1196 25.0391 31.2939 26.0753C29.8489 27.9821 26.5461 27.9821 24.6883 26.8629Z" fill="#FEA821"/>
<path id="Vector_12" fill-rule="evenodd" clip-rule="evenodd" d="M36.8264 31.0493L36.7438 30.5105L36.5787 30.0959C35.6704 33.2462 32.4089 34.9042 29.2299 34.697C27.2069 34.5726 26.794 33.868 26.2573 33.6607L27.0417 34.697C27.1656 34.8213 27.1656 34.9042 27.3307 35.0286C27.7023 35.4016 28.1565 35.7747 28.6932 36.1063C30.6336 37.2669 34.1016 36.4794 35.8355 34.7384C36.909 33.6607 36.909 32.3757 36.8264 31.0493Z" fill="#261817"/>
<path id="Vector_13" fill-rule="evenodd" clip-rule="evenodd" d="M22.7069 36.5208C22.5005 36.6037 22.5005 37.2669 22.5005 37.4741C22.294 38.7176 22.3353 39.4638 22.4592 40.7487C22.6243 42.3653 22.9133 43.07 23.4913 44.4378C24.1932 46.0544 26.5051 48.5829 28.941 48.5C29.3951 48.5 29.3538 48.3757 29.0236 47.9197C28.652 47.3809 27.5373 46.842 27.0006 46.386C25.2253 44.9767 23.9867 42.8627 23.3262 40.5829C23.161 39.9612 23.0372 39.2565 22.9133 38.5933C22.872 38.386 22.7069 36.6037 22.7069 36.5208Z" fill="#4B2A1D"/>
<path id="Vector_14" fill-rule="evenodd" clip-rule="evenodd" d="M3.59138 0.500093C2.9721 0.624445 2.68311 1.1633 2.80696 1.74362C2.9721 2.94569 5.07766 2.73843 4.82995 1.28766C4.70609 0.790248 4.16938 0.417191 3.59138 0.500093Z" fill="#FEA821"/>
<path id="Vector_15" fill-rule="evenodd" clip-rule="evenodd" d="M15.771 48.4586C17.5876 48.5415 19.1564 47.3394 20.1473 45.9716C21.0968 44.6866 21.7161 42.614 21.5922 40.5415C21.3445 40.7073 21.1381 41.4949 21.0142 41.785C20.8491 42.1995 20.6427 42.5726 20.4362 42.9457C18.2068 47.298 16.1426 46.8006 15.771 48.4586Z" fill="#4B2A1D"/>
<path id="Vector_16" fill-rule="evenodd" clip-rule="evenodd" d="M23.6977 28.065L23.1197 29.4743C22.3353 30.9251 21.9638 33.5779 23.0372 34.1582C22.9546 34.4898 22.872 34.4898 22.9546 34.9043C22.9959 35.1945 22.9959 35.3603 23.2849 35.3603C23.45 35.1116 23.3262 34.5313 23.3675 34.1997C24.0693 33.8681 24.3996 33.3707 24.4409 32.4587C24.4409 31.4225 24.317 30.9665 24.1932 29.9717C24.0693 29.0598 24.1519 28.1893 24.0693 27.3188C23.9042 27.5261 23.9042 27.6505 23.8216 27.8577L23.6977 28.065Z" fill="#261817"/>
<path id="Vector_17" fill-rule="evenodd" clip-rule="evenodd" d="M38.1888 26.9456C38.1888 27.2358 39.0145 28.3135 39.5099 27.6089C39.4273 27.4845 38.5191 26.8213 38.3126 26.7384C38.5191 25.785 37.3218 24.7488 36.6612 24.2928C36.2897 24.0441 35.7942 23.8783 35.7529 23.8783C35.7529 23.8783 35.7117 23.8783 35.7117 23.8368C35.7117 23.7954 35.6704 23.8368 35.6704 23.7954C34.8859 23.8368 33.7712 23.671 32.9868 23.5881C33.0694 23.7125 33.1932 23.7539 33.3171 23.8368C33.7712 24.0855 35.0511 25.2462 35.3401 25.6192C35.8768 26.1995 36.4135 26.9456 37.2805 26.9871C37.9411 27.07 38.0236 26.8627 38.1888 26.9456Z" fill="#261817"/>
<path id="Vector_18" fill-rule="evenodd" clip-rule="evenodd" d="M36.2897 37.9717C36.5375 37.267 36.909 36.4794 36.909 35.5675V35.1116C36.7439 35.2359 36.7852 35.2359 36.62 35.4432C34.3493 38.6349 31.2529 37.6401 30.8813 37.8059C31.1703 38.0546 32.2025 38.5934 32.6566 38.7592C33.4823 39.0494 34.0603 39.0494 34.9686 39.0079C35.0512 39.0908 35.0099 39.1737 35.1337 39.2566C35.2576 39.3396 35.3815 39.2981 35.464 39.2566C35.6705 38.2204 35.2163 39.1323 36.042 38.1789C36.1659 38.096 36.1659 38.0546 36.2897 37.9717Z" fill="#261817"/>
<path id="Vector_19" fill-rule="evenodd" clip-rule="evenodd" d="M32.0371 15.837C32.3674 15.7126 33.3582 14.6349 33.6472 14.3033C34.5555 13.1841 36.6198 10.4484 35.1748 8.99758C34.8858 8.70742 34.3491 8.74887 33.8537 8.74887C33.8537 8.95613 34.0188 9.32918 34.0601 9.61934C34.1014 9.95095 34.1014 10.4069 34.0601 10.7385C33.9362 12.0649 33.4821 13.0598 32.8628 14.2204C32.6977 14.5934 32.0784 15.6297 32.0371 15.837Z" fill="#4B2A1D"/>
<path id="Vector_20" fill-rule="evenodd" clip-rule="evenodd" d="M24.1107 36.3966C24.2346 36.5624 25.019 38.179 25.6383 38.179C26.6704 38.2204 26.2988 36.2308 26.1337 35.6919C25.9273 35.0702 25.6383 34.6556 25.3493 34.2411C24.9777 34.0753 24.4823 33.8266 23.9869 33.9095C23.4914 34.6556 23.9869 35.6919 24.1107 36.3966Z" fill="#261817"/>
<path id="Vector_21" fill-rule="evenodd" clip-rule="evenodd" d="M37.8585 31.2564C39.3035 31.5466 39.3447 30.8005 39.1796 29.557C39.0557 28.8109 38.7255 28.2305 38.1887 27.7331C38.0649 27.6502 38.0649 27.6502 37.941 27.5259C37.363 27.6088 37.3218 27.7331 36.5786 27.6917C36.8263 28.3134 36.9915 28.8523 37.2392 29.4741C37.4043 30.0958 37.6107 30.759 37.8585 31.2564Z" fill="#261817"/>
<path id="Vector_22" fill-rule="evenodd" clip-rule="evenodd" d="M5.94482 15.6711C5.94482 16.2514 6.81182 16.9561 7.1421 17.2048L8.66966 18.2411C9.45409 18.6141 11.2706 19.526 12.3854 19.4846C12.2202 19.2773 11.8899 19.2359 11.5596 19.0701C10.7339 18.6141 10.0321 18.1996 9.28894 17.6607C8.71095 17.2462 7.84395 16.3758 7.38981 15.7126C7.26596 15.5053 6.97696 15.0079 6.81182 14.8835C6.64668 15.0079 6.56411 15.1322 6.39896 15.2981C6.27511 15.4639 6.10997 15.5468 5.94482 15.6711Z" fill="#4B2A1D"/>
<path id="Vector_23" fill-rule="evenodd" clip-rule="evenodd" d="M18.124 30.013C19.0323 29.9301 19.9406 28.5208 20.436 27.9819C20.8076 27.6503 21.1379 27.2358 21.4681 26.8628C21.7159 26.5726 22.2526 26.0752 22.459 25.7021L21.2204 26.5726C20.436 27.1944 19.7754 28.0234 19.1149 28.7695C18.8672 29.1011 18.2066 29.7229 18.124 30.013Z" fill="#261817"/>
</g>
<g id="Group_3">
<g id="Group_4">
<path id="Vector_24" d="M64.1801 35.8574V37.6812H66.2856V38.5102H64.1801V40.417H66.5746V41.246H63.1479V35.0698H66.5334V35.8988H64.1801V35.8574Z" fill="#848688"/>
<path id="Vector_25" d="M69.4235 41.0803C69.0932 40.9145 68.8455 40.7487 68.6391 40.4585C68.4327 40.2098 68.3501 39.8782 68.3501 39.5051H69.4235C69.4648 39.7538 69.5474 40.0026 69.7538 40.1684C69.9602 40.3342 70.2079 40.4171 70.5382 40.4171C70.8685 40.4171 71.1575 40.3342 71.3639 40.1684C71.5704 40.0026 71.6529 39.7953 71.6529 39.5051C71.6529 39.2979 71.6116 39.1321 71.4878 39.0077C71.3639 38.8834 71.1988 38.759 71.0337 38.7176C70.8685 38.6347 70.6208 38.5518 70.2905 38.4689C69.8777 38.3445 69.5474 38.2616 69.2997 38.1373C69.0519 38.0129 68.8455 37.8471 68.6391 37.6399C68.474 37.3912 68.3914 37.101 68.3914 36.7279C68.3914 36.3549 68.474 36.0647 68.6391 35.7746C68.8042 35.5259 69.0519 35.3186 69.3822 35.1528C69.7125 35.0285 70.0841 34.9456 70.4969 34.9456C71.0749 34.9456 71.5704 35.1114 71.9832 35.4015C72.3548 35.6917 72.5612 36.1062 72.6025 36.645H71.4878C71.4878 36.4378 71.3639 36.2305 71.1575 36.0647C70.9511 35.8989 70.7034 35.816 70.3731 35.816C70.0841 35.816 69.8364 35.8989 69.6712 36.0233C69.5061 36.1891 69.3822 36.3963 69.3822 36.645C69.3822 36.8523 69.4235 36.9766 69.5474 37.101C69.6712 37.2254 69.7951 37.3083 70.0015 37.3912C70.1667 37.4741 70.4144 37.557 70.7446 37.6399C71.1575 37.7642 71.4878 37.8471 71.7355 37.9715C71.9832 38.0958 72.2309 38.2616 72.3961 38.5103C72.5612 38.759 72.6851 39.0492 72.6851 39.4637C72.6851 39.7953 72.6025 40.0855 72.4374 40.3342C72.2722 40.6243 72.0245 40.8316 71.6942 40.9974C71.3639 41.1632 70.9924 41.2461 70.5382 41.2461C70.1254 41.2875 69.7538 41.2461 69.4235 41.0803Z" fill="#848688"/>
<path id="Vector_26" d="M75.4924 41.0803C75.1621 40.9145 74.9144 40.7487 74.7079 40.4585C74.5015 40.2098 74.4189 39.8782 74.4189 39.5051H75.4924C75.5336 39.7538 75.6162 40.0026 75.8226 40.1684C76.0291 40.3342 76.2768 40.4171 76.6071 40.4171C76.9374 40.4171 77.2264 40.3342 77.4328 40.1684C77.6392 40.0026 77.7218 39.7953 77.7218 39.5051C77.7218 39.2979 77.6805 39.1321 77.5566 39.0077C77.4328 38.8834 77.2676 38.759 77.1025 38.7176C76.9374 38.6347 76.6896 38.5518 76.3594 38.4689C75.9465 38.3445 75.6162 38.2616 75.3685 38.1373C75.1208 38.0129 74.9144 37.8471 74.7079 37.6399C74.5428 37.3912 74.4602 37.101 74.4602 36.7279C74.4602 36.3549 74.5428 36.0647 74.7079 35.7746C74.8731 35.5259 75.1208 35.3186 75.4511 35.1528C75.7814 35.0285 76.1529 34.9456 76.5658 34.9456C77.1438 34.9456 77.6392 35.1114 78.0521 35.4015C78.4236 35.6917 78.6301 36.1062 78.6713 36.645H77.5566C77.5566 36.4378 77.4328 36.2305 77.2264 36.0647C77.0199 35.8989 76.7722 35.816 76.4419 35.816C76.1529 35.816 75.9052 35.8989 75.7401 36.0233C75.5749 36.1891 75.4511 36.3963 75.4511 36.645C75.4511 36.8523 75.4924 36.9766 75.6162 37.101C75.7401 37.2254 75.8639 37.3083 76.0704 37.3912C76.2355 37.4741 76.4832 37.557 76.8135 37.6399C77.2264 37.7642 77.5566 37.8471 77.8043 37.9715C78.0521 38.0958 78.2998 38.2616 78.4649 38.5103C78.6301 38.759 78.7539 39.0492 78.7539 39.4637C78.7539 39.7953 78.6713 40.0855 78.5062 40.3342C78.3411 40.6243 78.0933 40.8316 77.7631 40.9974C77.4328 41.1632 77.0612 41.2461 76.6071 41.2461C76.1942 41.2875 75.8226 41.2461 75.4924 41.0803Z" fill="#848688"/>
<path id="Vector_27" d="M81.6437 35.8574V37.6812H83.7492V38.5102H81.6437V40.417H84.0382V41.246H80.6528V35.0698H84.0382V35.8988H81.6437V35.8574Z" fill="#848688"/>
<path id="Vector_28" d="M91.0158 41.246H90.025L86.9699 36.645V41.246H85.979V35.0698H86.9699L90.025 39.6709V35.0698H91.0158V41.246Z" fill="#848688"/>
<path id="Vector_29" d="M93.1623 36.5207C93.4513 36.0233 93.8229 35.6503 94.3183 35.4016C94.8137 35.1114 95.3091 34.9871 95.8871 34.9871C96.5477 34.9871 97.1257 35.1529 97.6211 35.4845C98.1165 35.8161 98.4881 36.272 98.7358 36.8523H97.5386C97.3734 36.5207 97.167 36.272 96.878 36.1062C96.589 35.9404 96.2587 35.8575 95.8871 35.8575C95.4743 35.8575 95.1027 35.9404 94.8137 36.1477C94.4834 36.3135 94.2357 36.6036 94.0706 36.9352C93.9054 37.2669 93.7816 37.6814 93.7816 38.1373C93.7816 38.5933 93.8641 39.0078 94.0706 39.3394C94.2357 39.671 94.4834 39.9612 94.8137 40.127C95.144 40.3342 95.5156 40.4171 95.8871 40.4171C96.2587 40.4171 96.589 40.3342 96.878 40.1684C97.167 40.0026 97.3734 39.7539 97.5386 39.4223H98.7358C98.4881 40.0026 98.1165 40.4586 97.6211 40.7902C97.1257 41.1218 96.5477 41.2876 95.8871 41.2876C95.3091 41.2876 94.7724 41.1632 94.3183 40.8731C93.8229 40.5829 93.4513 40.2099 93.1623 39.7539C92.8733 39.2565 92.7494 38.7176 92.7494 38.1373C92.7082 37.5156 92.8733 36.9767 93.1623 36.5207Z" fill="#848688"/>
<path id="Vector_30" d="M101.626 35.8574V37.6812H103.732V38.5102H101.626V40.417H104.021V41.246H100.635V35.0698H104.021V35.8988H101.626V35.8574Z" fill="#848688"/>
<path id="Vector_31" d="M110.213 40.9146C109.718 40.6659 109.346 40.2514 109.057 39.7954C108.768 39.298 108.645 38.7591 108.645 38.1788C108.645 37.5571 108.768 37.0182 109.057 36.5622C109.346 36.0648 109.718 35.6918 110.213 35.4431C110.709 35.1529 111.204 35.0286 111.782 35.0286C112.36 35.0286 112.897 35.1529 113.392 35.4431C113.888 35.7332 114.259 36.1063 114.548 36.5622C114.837 37.0597 114.961 37.5985 114.961 38.1788C114.961 38.8006 114.837 39.3394 114.548 39.7954C114.259 40.2928 113.888 40.6659 113.392 40.9146C112.897 41.2047 112.401 41.3291 111.782 41.3291C111.204 41.2876 110.709 41.1633 110.213 40.9146ZM112.897 40.127C113.227 39.9198 113.475 39.671 113.64 39.3394C113.805 39.0078 113.929 38.5933 113.929 38.1374C113.929 37.6814 113.846 37.2669 113.64 36.9353C113.475 36.6037 113.227 36.3135 112.897 36.1477C112.567 35.9819 112.195 35.8576 111.824 35.8576C111.411 35.8576 111.039 35.9405 110.75 36.1477C110.42 36.3135 110.172 36.6037 110.007 36.9353C109.842 37.2669 109.718 37.6814 109.718 38.1374C109.718 38.5933 109.801 39.0078 110.007 39.3394C110.172 39.671 110.42 39.9612 110.75 40.127C111.08 40.2928 111.452 40.4172 111.824 40.4172C112.195 40.4172 112.567 40.3343 112.897 40.127Z" fill="#848688"/>
<path id="Vector_32" d="M120.246 35.0698V35.8988H117.645V37.7227H119.668V38.5517H117.645V41.246H116.654V35.0698H120.246Z" fill="#848688"/>
<path id="Vector_33" d="M125.943 35.0698V41.246H124.952V35.0698H125.943Z" fill="#848688"/>
<path id="Vector_34" d="M133.003 41.246H132.012L128.957 36.645V41.246H127.966V35.0698H128.957L132.012 39.6709V35.0698H133.003V41.246Z" fill="#848688"/>
<path id="Vector_35" d="M140.104 41.246H139.113L136.058 36.645V41.246H135.067V35.0698H136.058L139.113 39.6709V35.0698H140.104V41.246Z" fill="#848688"/>
<path id="Vector_36" d="M143.366 40.9146C142.87 40.6659 142.499 40.2514 142.21 39.7954C141.921 39.298 141.797 38.7591 141.797 38.1788C141.797 37.5571 141.921 37.0182 142.21 36.5622C142.499 36.0648 142.87 35.6918 143.366 35.4431C143.861 35.1529 144.357 35.0286 144.935 35.0286C145.513 35.0286 146.049 35.1529 146.545 35.4431C147.04 35.7332 147.412 36.1063 147.701 36.5622C147.99 37.0597 148.114 37.5985 148.114 38.1788C148.114 38.8006 147.99 39.3394 147.701 39.7954C147.412 40.2928 147.04 40.6659 146.545 40.9146C146.049 41.2047 145.554 41.3291 144.935 41.3291C144.398 41.2876 143.861 41.1633 143.366 40.9146ZM146.049 40.127C146.38 39.9198 146.627 39.671 146.792 39.3394C146.958 39.0078 147.081 38.5933 147.081 38.1374C147.081 37.6814 146.999 37.2669 146.792 36.9353C146.627 36.6037 146.38 36.3135 146.049 36.1477C145.719 35.9819 145.347 35.8576 144.976 35.8576C144.563 35.8576 144.191 35.9405 143.902 36.1477C143.572 36.3135 143.324 36.6037 143.159 36.9353C142.994 37.2669 142.87 37.6814 142.87 38.1374C142.87 38.5933 142.953 39.0078 143.159 39.3394C143.324 39.671 143.572 39.9612 143.902 40.127C144.233 40.2928 144.604 40.4172 144.976 40.4172C145.347 40.4172 145.719 40.3343 146.049 40.127Z" fill="#848688"/>
<path id="Vector_37" d="M155.091 35.0698L152.779 41.246H151.623L149.311 35.0698H150.384L152.201 40.2097L154.017 35.0698H155.091Z" fill="#848688"/>
<path id="Vector_38" d="M160.375 39.9612H157.816L157.362 41.2047H156.288L158.476 35.0286H159.632L161.82 41.2047H160.747L160.375 39.9612ZM160.086 39.1322L159.095 36.2721L158.105 39.1322H160.086Z" fill="#848688"/>
<path id="Vector_39" d="M167.517 35.0698V35.8988H165.866V41.246H164.875V35.8988H163.224V35.0698H167.517Z" fill="#848688"/>
<path id="Vector_40" d="M170.242 35.0698V41.246H169.251V35.0698H170.242Z" fill="#848688"/>
<path id="Vector_41" d="M173.504 40.9146C173.008 40.6659 172.637 40.2514 172.348 39.7954C172.059 39.298 171.935 38.7591 171.935 38.1788C171.935 37.5571 172.059 37.0182 172.348 36.5622C172.637 36.0648 173.008 35.6918 173.504 35.4431C173.999 35.1529 174.495 35.0286 175.073 35.0286C175.651 35.0286 176.187 35.1529 176.683 35.4431C177.178 35.7332 177.55 36.1063 177.839 36.5622C178.128 37.0597 178.252 37.5985 178.252 38.1788C178.252 38.8006 178.128 39.3394 177.839 39.7954C177.55 40.2928 177.178 40.6659 176.683 40.9146C176.187 41.2047 175.692 41.3291 175.073 41.3291C174.536 41.2876 173.999 41.1633 173.504 40.9146ZM176.187 40.127C176.518 39.9198 176.765 39.671 176.931 39.3394C177.096 39.0078 177.22 38.5933 177.22 38.1374C177.22 37.6814 177.137 37.2669 176.931 36.9353C176.765 36.6037 176.518 36.3135 176.187 36.1477C175.857 35.9819 175.486 35.8576 175.114 35.8576C174.701 35.8576 174.33 35.9405 174.041 36.1477C173.71 36.3135 173.463 36.6037 173.297 36.9353C173.132 37.2669 173.008 37.6814 173.008 38.1374C173.008 38.5933 173.091 39.0078 173.297 39.3394C173.463 39.671 173.71 39.9612 174.041 40.127C174.371 40.2928 174.742 40.4172 175.114 40.4172C175.527 40.4172 175.857 40.3343 176.187 40.127Z" fill="#848688"/>
<path id="Vector_42" d="M184.981 41.246H183.99L180.935 36.645V41.246H179.944V35.0698H180.935L183.99 39.6709V35.0698H184.981V41.246Z" fill="#848688"/>
</g>
<g id="Group_5">
<path id="Vector_43" d="M77.1852 8.04395H63.0656H61.249C62.3224 8.04395 63.0656 8.83151 63.0656 9.61907V28.645H77.1852V25.4533H66.7813V21.0595C66.7813 20.3134 66.0381 19.4844 64.9647 19.4844H67.5244H76.7723V16.2926H66.8226V14.3445V12.8108C66.8226 12.0647 66.0794 11.2357 65.006 11.2357H66.8226H77.1852V8.04395Z" fill="#261817"/>
<path id="Vector_44" d="M184.775 24.5414C184.775 25.9922 184.899 27.8989 184.982 28.272H181.472C181.349 27.9404 181.266 27.1943 181.266 26.6139C180.729 27.5259 179.615 28.645 176.848 28.645C173.215 28.645 171.646 26.2409 171.646 23.8782C171.646 20.3963 174.413 18.8212 178.871 18.8212C179.738 18.8212 180.647 18.8212 181.183 18.8212V17.7435C181.183 16.5829 180.771 15.2979 178.541 15.2979C176.518 15.2979 176.105 16.2098 175.858 17.3704H172.348C172.555 14.8419 174.124 12.5621 178.665 12.6036C182.628 12.6036 184.817 14.2202 184.817 17.7849V24.5414H184.775ZM181.183 21.1424C180.771 21.1424 179.862 21.1424 179.202 21.1424C176.477 21.1424 175.321 21.93 175.321 23.6295C175.321 24.9145 176.147 25.9093 177.757 25.9093C180.771 25.9093 181.142 23.8367 181.142 21.557V21.1424H181.183Z" fill="#261817"/>
<path id="Vector_45" d="M111.535 21.3911C111.535 23.7124 112.691 25.702 114.961 25.702C116.943 25.702 117.521 24.8315 117.975 23.8367H121.691C121.113 25.7435 119.461 28.645 114.879 28.645C109.924 28.645 107.819 24.8315 107.819 20.8523C107.819 16.1269 110.213 12.645 115.044 12.645C120.163 12.645 121.897 16.4999 121.897 20.1476C121.897 20.645 121.897 21.0181 121.856 21.4326H111.535V21.3911ZM118.181 19.0284C118.14 16.9974 117.273 15.3393 115.003 15.3393C112.773 15.3393 111.824 16.9145 111.617 19.0284H118.181Z" fill="#261817"/>
<path id="Vector_46" d="M82.7586 23.7538C83.1302 25.1217 84.2036 25.9093 85.9376 25.9093C87.7129 25.9093 88.4147 25.2046 88.4147 24.1269C88.4147 23.0077 87.7541 22.5103 85.3183 21.93C80.5705 20.7694 79.7035 19.2771 79.7035 17.1632C79.7035 14.9248 81.2723 12.645 85.6486 12.645C90.0248 12.645 91.635 15.0906 91.7588 17.2046H88.2496C88.0844 16.4999 87.589 15.3393 85.4834 15.3393C83.832 15.3393 83.3366 16.0854 83.3366 16.873C83.3366 17.7435 83.8733 18.1994 86.433 18.8212C91.346 19.9818 92.1717 21.6813 92.1717 23.9196C92.1717 26.4896 90.19 28.6865 85.8137 28.6865C81.3962 28.6865 79.4971 26.531 79.1255 23.7953H82.7586V23.7538Z" fill="#261817"/>
<path id="Vector_47" d="M97.0433 23.7538C97.4148 25.1217 98.4883 25.9093 100.222 25.9093C101.998 25.9093 102.699 25.2046 102.699 24.1269C102.699 23.0077 102.039 22.5103 99.603 21.93C94.8551 20.7694 93.9881 19.2771 93.9881 17.1632C93.9881 14.9248 95.557 12.645 99.9333 12.645C104.31 12.645 105.92 15.0906 106.043 17.2046H102.534C102.369 16.4999 101.874 15.3393 99.7681 15.3393C98.1167 15.3393 97.6213 16.0854 97.6213 16.873C97.6213 17.7435 98.158 18.1994 100.718 18.8212C105.631 19.9818 106.456 21.6813 106.456 23.9196C106.456 26.4896 104.475 28.6865 100.098 28.6865C95.6809 28.6865 93.7817 26.531 93.4102 23.7953H97.0433V23.7538Z" fill="#261817"/>
<path id="Vector_48" d="M131.888 12.9766C129.122 12.9766 127.883 14.3859 127.347 15.4636C127.347 14.9662 127.347 13.3082 127.347 13.3082H124.168H122.475C123.136 13.3082 123.631 13.8056 123.672 14.303C123.672 15.2149 123.672 16.2097 123.672 17.1631V28.6035H127.347V20.2304C127.347 17.4118 128.42 16.0025 130.567 16.0025C132.59 16.0025 133.251 17.3703 133.251 19.2771V28.645H136.925V18.8626C136.925 14.9247 134.861 12.9766 131.888 12.9766Z" fill="#261817"/>
<g id="Group_6">
<path id="Vector_49" d="M165.99 13.3081H164.793C165.495 13.3081 165.99 13.847 165.99 14.3444V28.6449H169.665V13.3081H165.99Z" fill="#261817"/>
<path id="Vector_50" d="M169.706 8.9973V8.41699H166.032V12.645C168.055 12.6864 169.665 11.0284 169.706 8.9973Z" fill="#261817"/>
</g>
<g id="Group_7">
<path id="Vector_51" d="M163.266 15.9609V13.1008H160.169H156.453H154.018V15.9609H156.453V24.5412C156.453 27.1941 157.444 28.6449 160.252 28.6449C161.077 28.6449 162.11 28.6449 162.894 28.3547V25.7433C162.564 25.8262 162.068 25.8262 161.821 25.8262C160.541 25.8262 160.169 25.2874 160.169 24.0024V15.9609H163.266Z" fill="#261817"/>
<path id="Vector_52" d="M160.128 8.79003V8.20972H156.454V12.4377C158.477 12.4377 160.128 10.8211 160.128 8.79003Z" fill="#261817"/>
</g>
<path id="Vector_53" d="M152.573 23.3806C151.995 25.992 150.219 28.6449 145.884 28.6449C141.302 28.6449 138.783 25.4117 138.783 20.6863C138.783 16.2096 141.425 12.5205 146.091 12.5205C151.004 12.5205 152.49 16.0438 152.614 17.8677H148.981C148.692 16.4998 147.866 15.4635 146.049 15.4635C143.861 15.4635 142.623 17.3702 142.623 20.5205C142.623 23.878 143.903 25.6604 146.008 25.6604C147.618 25.6604 148.527 24.7485 148.981 23.3392H152.573V23.3806Z" fill="#261817"/>
</g>
</g>
</g>
<defs>
<clipPath id="clip0_181_224">
<rect width="185" height="48" fill="white" transform="translate(0 0.5)"/>
</clipPath>
</defs>
</svg>
