<svg width="35" height="35" viewBox="0 0 35 35" fill="none" xmlns="http://www.w3.org/2000/svg">
<g id="SVG">
<path id="Vector" d="M33.1485 24.5818L25.7985 21.4318C25.4846 21.298 25.1356 21.2698 24.8042 21.3514C24.4728 21.4331 24.1769 21.6202 23.961 21.8846L20.706 25.8615C15.5976 23.4529 11.4865 19.3418 9.07795 14.2334L13.0548 10.9784C13.3197 10.7629 13.5072 10.467 13.5889 10.1354C13.6706 9.80388 13.6421 9.45474 13.5076 9.14086L10.3576 1.79086C10.2101 1.4525 9.94904 1.17624 9.61959 1.00972C9.29014 0.843201 8.91291 0.796852 8.55295 0.87867L1.72795 2.45367C1.3809 2.53381 1.07127 2.72922 0.849582 3.00799C0.627894 3.28677 0.507244 3.63246 0.507324 3.98864C0.507324 20.8215 14.1508 34.4386 30.9573 34.4386C31.3136 34.4389 31.6595 34.3183 31.9384 34.0966C32.2173 33.8749 32.4128 33.5652 32.493 33.218L34.068 26.393C34.1492 26.0313 34.1019 25.6526 33.9341 25.322C33.7663 24.9914 33.4885 24.7296 33.1485 24.5818Z" fill="white"/>
</g>
</svg>
