<svg width="98" height="31" viewBox="0 0 98 31" fill="none" xmlns="http://www.w3.org/2000/svg">
<g id="Frame" clip-path="url(#clip0_181_300)">
<g id="Group">
<path id="Vector" d="M17.3699 30.6926C17.3699 28.8076 17.3699 27.0045 17.3699 25.2015C17.3699 23.8082 17.4095 22.3945 17.3501 21.0012C17.3303 20.2841 17.4887 19.9358 18.281 19.9768C19.1326 20.0178 20.2021 20.2022 20.7567 19.7514C21.2519 19.3416 21.133 18.1737 21.2717 17.3337C21.3707 16.76 21.4301 16.1863 21.5291 15.4487C20.4002 15.4487 19.3703 15.4077 18.3206 15.4692C17.6075 15.5102 17.2708 15.2848 17.3501 14.5062C17.4095 13.8915 17.3501 13.2768 17.3699 12.6622C17.4293 11.105 18.1027 10.3674 19.6278 10.224C20.2814 10.1625 20.935 10.2035 21.7272 10.2035C21.7272 8.97413 21.747 7.86772 21.7074 6.74082C21.7074 6.57691 21.3905 6.26957 21.1924 6.26957C19.8456 6.18761 18.479 5.98272 17.152 6.14664C14.2801 6.51544 12.7155 8.64631 12.6164 12.027C12.5768 13.1129 12.6164 14.1989 12.6164 15.4487C11.5667 15.4487 10.6358 15.4897 9.68516 15.4282C9.03156 15.3872 8.81369 15.6536 8.8335 16.3092C8.87311 17.2312 8.89292 18.1532 8.8335 19.0753C8.79389 19.8334 9.11078 20.0178 9.76438 19.9973C10.6755 19.9563 11.5865 19.9768 12.557 19.9768C12.557 23.6238 12.557 27.1275 12.557 30.6311C6.536 30.7745 0.19809 23.296 2.97665e-05 15.879C-0.19803 7.39647 6.27853 0.266266 14.4386 -9.18196e-05C22.7373 -0.26645 29.7486 6.3925 30.0061 14.793C30.3032 23.9312 23.4305 30.0574 17.3699 30.6926Z" fill="#393939"/>
<g id="Group_2">
<path id="Vector_2" d="M68.1128 15.4487C68.1128 6.90476 74.8072 -0.0410419 83.0267 -6.37485e-05C91.2858 0.0204253 97.9604 6.92525 97.9802 15.4487C98 23.9517 91.266 30.877 83.0267 30.877C74.728 30.877 68.1128 24.0336 68.1128 15.4487ZM83.0267 21.2881C84.4725 21.2881 85.9382 21.2881 87.384 21.2881C87.4434 21.2881 87.5227 21.2881 87.5821 21.2881C89.6023 21.2062 91.0481 19.7309 91.0877 17.641C91.1075 16.2683 91.1075 14.916 91.0877 13.5432C91.0679 11.2894 89.7607 9.71177 87.6019 9.6503C84.532 9.54785 81.462 9.54785 78.4119 9.6503C76.3323 9.71177 75.0251 11.2689 75.0053 13.3998C74.9855 14.7726 74.9855 16.1249 75.0053 17.4976C75.0251 19.7719 76.4709 21.2676 78.6892 21.2881C80.1152 21.2881 81.5611 21.2881 83.0267 21.2881Z" fill="#393939"/>
<path id="Vector_3" d="M86.0173 15.6127C84.4725 16.4118 83.1851 17.0879 81.8977 17.7231C81.462 17.9279 81.0857 17.846 81.0857 17.2518C81.0658 16.1044 81.0658 14.9365 81.0857 13.7891C81.0857 13.2155 81.4422 13.072 81.8779 13.2974C83.1653 13.994 84.4527 14.7521 86.0173 15.6127Z" fill="#393939"/>
</g>
<g id="Group_3">
<path id="Vector_4" d="M49.0398 0C40.7213 0 34.0269 6.90482 34.0269 15.4693C34.0269 24.0542 40.7213 30.9795 49.02 30.9795C57.3385 30.9795 64.0329 24.0542 64.0329 15.4898C64.0329 6.92531 57.3385 0 49.0398 0ZM57.8138 19.2188C57.7544 22.1077 55.6154 24.4435 52.8227 24.5459C50.2876 24.6279 47.7524 24.6484 45.2172 24.5459C42.4048 24.4435 40.3054 22.0872 40.2657 19.1983C40.2459 17.928 40.2657 16.6781 40.2657 15.4078C40.2657 14.2194 40.2459 13.0106 40.2657 11.8222C40.3054 8.81031 42.4642 6.47455 45.3559 6.37211C47.8316 6.29015 50.3074 6.29015 52.7633 6.37211C55.5956 6.45406 57.7742 8.81031 57.8138 11.7607C57.8733 14.2399 57.8733 16.7396 57.8138 19.2188Z" fill="#393939"/>
<path id="Vector_5" d="M56.1301 11.8223C56.0905 9.79386 54.6843 8.2162 52.7235 8.15473C50.2874 8.07277 47.8314 8.07277 45.3953 8.15473C43.4543 8.2162 42.0085 9.69141 41.9491 11.6789C41.8698 14.199 41.8698 16.7397 41.9491 19.2598C42.0085 21.2882 43.5335 22.743 45.4943 22.7839C46.6431 22.8044 47.8116 22.7839 48.9604 22.7839C50.1487 22.7839 51.3371 22.8044 52.5255 22.7839C54.5853 22.743 56.0905 21.2268 56.1301 19.0959C56.1698 16.6782 56.1698 14.2605 56.1301 11.8223ZM49.0198 19.9564C46.6035 19.9155 44.7615 17.9075 44.7813 15.3874C44.8011 12.8877 46.7421 10.9617 49.1782 10.9822C51.5748 11.0232 53.4365 13.0106 53.4167 15.5513C53.3771 18.051 51.4361 20.0179 49.0198 19.9564ZM53.3375 11.6379C52.7433 11.6379 52.268 11.1461 52.268 10.5315C52.268 9.91679 52.7433 9.42505 53.3375 9.42505C53.9317 9.42505 54.407 9.91679 54.407 10.5315C54.407 11.1461 53.9317 11.6379 53.3375 11.6379Z" fill="#393939"/>
<path id="Vector_6" d="M46.3659 15.4488C46.3858 13.9327 47.6137 12.6623 49.0794 12.6418C50.5846 12.6213 51.8522 13.9327 51.8324 15.5103C51.8126 17.006 50.5648 18.3173 49.119 18.3378C47.6533 18.3378 46.3461 16.9855 46.3659 15.4488Z" fill="#393939"/>
</g>
</g>
</g>
<defs>
<clipPath id="clip0_181_300">
<rect width="98" height="31" fill="white"/>
</clipPath>
</defs>
</svg>
