<svg width="89" height="71" viewBox="0 0 89 71" fill="none" xmlns="http://www.w3.org/2000/svg">
<g id="Frame" clip-path="url(#clip0_535_1674)">
<path id="Vector" d="M89 14.469C89 14.6727 89 14.8765 89 15.0803C88.5276 14.8969 88.2607 15.2637 87.9116 15.4675C86.8232 16.0585 85.6732 16.5476 84.667 17.2812C83.5786 17.7296 82.5519 18.2594 81.6072 18.9523C81.4635 19.0134 81.3403 19.095 81.1965 19.1561C81.0939 19.2172 81.0117 19.2784 80.909 19.3191C80.8474 19.3599 80.7858 19.4006 80.7242 19.421C78.9993 20.3381 77.2948 21.2755 75.5699 22.1722C74.7485 22.6001 74.0297 23.3134 73.003 23.2115C72.6128 22.8039 72.0994 22.7835 71.5655 22.8039C69.553 22.4167 67.5611 22.6001 65.6102 23.1504C64.1728 23.2726 62.8585 23.7413 61.5237 24.2508C58.7309 25.2086 56.4104 26.9816 53.9257 28.4896C52.8578 29.0195 51.8105 29.6308 50.8454 30.3441C50.5784 30.3849 50.3936 30.5275 50.2293 30.7517C48.8124 31.4649 47.416 32.2597 46.1017 33.1564C45.383 33.5232 44.6437 33.8493 44.0482 34.4199C43.6169 34.6033 43.1241 34.7052 43.1241 35.3165C43.1446 36.3559 42.775 37.3341 42.467 38.2919C42.2411 38.516 42.0357 38.7402 41.9741 39.0663C41.1116 40.126 40.1259 41.043 38.9143 41.6951C38.6474 41.7766 38.3394 41.7359 38.1545 42.0008C38.0108 42.0416 37.867 42.062 37.7438 42.1027C37.5796 42.0416 37.4563 42.062 37.3331 42.1842C36.4501 42.3269 35.5466 42.3269 34.6635 42.2454C33.9859 42.0212 33.2877 41.797 32.61 41.5525C31.994 41.1449 31.3779 40.7169 30.7618 40.3094C30.2484 39.6165 29.7556 38.944 29.2422 38.2511C29.0574 37.6397 28.852 37.0487 28.6672 36.4374C28.4003 34.3384 28.8315 32.382 29.9815 30.5886H29.961C30.0431 30.5071 30.1047 30.4256 30.1868 30.3441C30.3717 30.1403 30.577 29.9365 30.7618 29.7327C31.8297 28.7749 33.1439 28.2858 34.4582 27.7764C35.7108 27.6948 36.943 27.7152 38.1545 28.0617C38.6885 28.347 39.2429 28.5915 39.7563 28.8972C40.0643 29.0806 40.3107 29.0806 40.5982 28.8972C42.4464 27.7967 44.2946 26.7167 46.1222 25.6366C47.4365 25.0456 48.6686 24.3323 49.8597 23.5172C50.2498 23.3338 50.6811 23.2523 50.948 22.8651C52.0159 22.4167 52.9605 21.8054 53.9257 21.1736C55.1578 20.603 56.3283 19.9305 57.4577 19.1561C57.5809 19.0746 57.6836 18.9931 57.8068 18.9116C60.8461 17.2405 62.9201 14.6931 64.4192 11.6363C64.8504 11.0045 65.179 10.3117 65.3638 9.55765C65.6102 8.37567 66.8834 8.31454 67.5406 7.5809C68.2182 7.39749 68.7727 6.98991 69.3271 6.60271C71.894 5.27808 74.4404 3.87194 76.9047 2.34352C78.3421 1.79329 79.5332 0.753972 80.9706 0.224121C80.2314 2.66959 79.4716 5.09467 78.7323 7.54014C78.4653 8.37567 78.1984 9.21121 77.9109 10.0467C77.7671 10.4951 77.9109 10.76 78.3421 10.9027C80.3751 11.5752 82.4081 12.2477 84.4411 12.9202C85.7143 13.45 87.0286 13.9187 88.3634 14.2244C88.5892 14.3059 88.7946 14.3874 89 14.469Z" fill="#FEA821"/>
<path id="Vector_2" d="M53.926 13.0831C51.5439 11.1268 48.9564 9.47606 45.9583 8.55901C43.5351 7.47893 40.9887 6.96946 38.3602 6.78605C38.2165 6.76567 38.0932 6.76567 37.9495 6.74529C37.6825 6.62302 37.4156 6.58226 37.1281 6.68416C36.3067 6.6434 35.5058 6.52113 34.6844 6.68416C31.9943 6.6434 29.3863 7.11211 26.8604 8.00878C26.5113 8.0903 26.1828 8.25333 25.8542 8.35523C24.8685 8.70167 23.7801 8.92583 22.9587 9.65947C21.8909 9.94478 20.9463 10.4543 20.1249 11.1879C19.7758 11.2694 19.4883 11.4528 19.2829 11.7381C16.2642 13.6334 13.7794 16.0788 11.8902 19.0745C11.6027 19.2783 11.4179 19.5636 11.3357 19.91C10.617 20.766 10.1036 21.7441 9.69292 22.7631C9.01526 23.9858 8.44027 25.2493 8.1117 26.5943C6.73584 30.4052 6.42781 34.3383 6.79744 38.3326C6.90012 39.3923 6.98226 40.4723 7.43404 41.4709C7.45457 41.6135 7.45457 41.7358 7.47511 41.8785C7.701 43.2439 7.98849 44.5685 8.72776 45.7708C8.95365 47.1158 9.73399 48.2367 10.3501 49.4187C10.3295 49.5409 10.3706 49.6224 10.4938 49.6428C10.7197 50.1523 10.9456 50.6618 11.3563 51.049C11.8081 51.966 12.4447 52.7608 13.1634 53.5148C13.7384 54.493 14.5803 55.247 15.4223 56.001C15.7508 56.4901 16.2026 56.8366 16.6749 57.1626C17.4142 57.9778 18.2767 58.6299 19.2624 59.119C21.5418 60.9123 24.1087 62.1351 26.9015 62.8687C28.1542 63.4189 29.4479 63.7654 30.8032 63.8265C31.9327 64.2137 33.1032 64.1933 34.2737 64.2545C35.7111 64.336 37.1692 64.3971 38.5861 64.0914C38.9147 64.0711 39.2638 64.0507 39.5923 64.0303C39.6539 64.0099 39.7155 64.0099 39.7977 63.9896C39.9414 63.9692 40.0646 63.9488 40.2084 63.9284C40.3521 63.9896 40.4959 63.9692 40.6191 63.8469C40.8244 63.8265 41.0298 63.8061 41.2351 63.7858C41.3994 63.8061 41.5432 63.7654 41.6459 63.6227C41.8717 63.6635 42.0771 63.6431 42.2619 63.5208C43.6172 63.2559 44.9726 62.991 46.1842 62.2981C47.0672 62.0943 47.9091 61.7683 48.6279 61.218C49.1618 61.0958 49.6135 60.8104 50.0448 60.5048C51.5439 59.8119 52.8581 58.8133 54.0902 57.7332C54.3161 57.6925 54.4394 57.5294 54.542 57.346C55.8974 56.2863 57.1295 55.1451 58.0536 53.6778C58.2384 53.6167 58.2384 53.4333 58.2794 53.2906C59.4705 52.4347 60.0455 51.1101 60.7848 49.9077C62.4276 47.3808 63.4338 44.6092 64.0088 41.6543C64.0499 41.4505 64.1115 41.2467 64.1525 41.0429C64.3168 40.8595 64.3168 40.6557 64.2758 40.4316C64.3168 40.1666 64.3374 39.9017 64.3784 39.6368C64.5838 39.4534 64.5222 39.2292 64.5016 39.0254C64.5222 38.7605 64.5222 38.4752 64.5427 38.2103C64.8302 36.9264 64.8097 35.6425 64.6865 34.3383C64.707 33.9918 64.7686 33.6454 64.5838 33.3397C64.707 33.1359 64.6865 32.9321 64.5427 32.7284C64.5222 32.4431 64.5222 32.1781 64.5016 31.8928C64.5427 31.5464 64.5222 31.1999 64.3168 30.8943C64.2963 30.7516 64.2758 30.609 64.2758 30.4663C64.1525 29.3047 65.282 29.4881 65.8364 29.0602C66.9248 28.836 67.9926 28.6322 69.081 28.408C70.7238 28.4896 70.7238 28.4896 70.9908 30.2014C71.0113 30.3644 71.0935 30.5071 71.1551 30.6497C71.1962 31.1999 71.2578 31.7298 71.2988 32.28C71.1962 32.5042 71.1962 32.708 71.3604 32.8914C71.4015 34.1753 71.4426 35.4795 71.4837 36.7634C71.3194 37.2932 71.2578 37.8435 71.2988 38.3937C71.2372 39.0458 71.1756 39.7183 71.0935 40.3704C71.0729 40.452 71.0319 40.5335 71.0113 40.615C70.9703 40.9614 70.9497 41.3079 70.9087 41.6543C70.5801 43.0197 70.2515 44.3647 69.9435 45.7301C69.7998 45.832 69.7176 45.9542 69.7382 46.1377C69.7382 46.1988 69.7176 46.2599 69.7176 46.3414C69.4507 47.1362 69.1837 47.931 68.9167 48.7258C68.7114 48.8888 68.6498 49.113 68.6498 49.3779C67.9721 50.7433 67.2739 52.1087 66.5962 53.4741C65.2409 55.247 64.1115 57.1626 62.5919 58.8133C60.0866 61.5645 57.3143 63.9692 54.0902 65.8644C53.8233 66.0071 53.5974 66.2312 53.3715 66.4146L53.3099 66.4554C53.1867 66.5165 53.084 66.5981 52.9608 66.6592C51.0716 67.3928 49.3261 68.4933 47.3547 69.0435C45.6502 69.5122 43.9458 69.9809 42.2414 70.4497C41.9539 70.3681 41.6869 70.4497 41.42 70.5719C41.3584 70.5923 41.2762 70.5923 41.2146 70.6127C38.2165 70.9795 35.1978 71.1018 32.1996 70.8165C32.0559 70.8165 31.9327 70.7961 31.7889 70.7961C31.3782 70.7757 30.988 70.735 30.5773 70.7146C29.3657 70.3478 28.1336 70.1032 26.8604 70.0013C25.6283 69.5937 24.3962 69.1862 23.1846 68.7786C23.0614 68.7378 22.9382 68.7175 22.7944 68.6767C22.7534 68.6156 22.6918 68.6156 22.6302 68.6563V68.6971C21.5829 67.9838 20.3918 67.617 19.2829 67.0464C18.0919 66.3739 16.9008 65.7218 15.7098 65.0696C15.6276 65.0085 15.5455 64.9474 15.4633 64.8862C14.2107 63.8877 12.9375 62.8891 11.6848 61.8905C11.459 61.5645 11.2125 61.2588 10.8429 61.0754C9.77506 59.8934 8.68669 58.7318 7.61885 57.5498C7.57778 57.346 7.45457 57.2238 7.26976 57.1423C6.44834 55.9195 5.60639 54.6764 4.78498 53.4537C4.55909 52.9034 4.29214 52.3532 3.9225 51.8845C3.53233 51.049 3.14216 50.2134 2.75199 49.3983C2.32075 48.1959 1.86897 47.014 1.43773 45.8116C0.328822 41.6135 -0.225631 37.334 0.0823985 32.9729C0.226146 30.8535 0.657387 28.7545 1.04756 26.6758C1.43773 25.4531 1.80736 24.2507 2.19753 23.028C2.77252 21.7238 3.34751 20.4399 3.94304 19.1357C4.12785 19.0541 4.12785 18.8911 4.14839 18.7281C4.86712 17.5869 5.58586 16.4456 6.28406 15.3044C6.73584 14.6931 7.18761 14.0613 7.63939 13.4499C8.21438 12.7774 8.8099 12.1253 9.38489 11.4528C10.1036 10.7396 10.8429 10.0059 11.5616 9.29265C12.2393 8.72204 12.8964 8.13106 13.5741 7.56045C14.1902 7.11211 14.8267 6.66378 15.4428 6.21544C16.7365 5.44105 18.0303 4.66665 19.3034 3.89225C20.5972 3.32164 21.9114 2.75104 23.2052 2.16005C24.4989 1.77285 25.7926 1.36527 27.0658 0.978073C27.9693 0.876179 28.8729 0.713148 29.7354 0.427843C31.4603 0.264812 33.1648 0.0202659 34.8897 -0.00011296C37.354 -0.0408707 39.7771 0.183297 42.2208 0.529738C43.5146 0.835421 44.8288 1.1411 46.1226 1.44679C47.4163 1.93588 48.71 2.40459 50.0243 2.89369C50.8867 3.3624 51.7287 3.85149 52.6528 4.17756C52.8992 4.32021 53.1662 4.46286 53.4126 4.58513C54.809 5.50218 56.2054 6.43961 57.6223 7.35666C57.8482 7.64196 58.0741 7.88651 58.4232 7.98841C59.5321 9.21114 59.5321 9.21114 58.5464 10.6784C58.3821 10.923 58.2178 11.1675 58.0536 11.4121C57.8071 11.514 57.6634 11.7177 57.6018 11.9623C57.2732 12.2476 56.9447 12.5329 56.6161 12.8182C55.3224 13.9798 55.3224 13.9798 53.926 13.0831Z" fill="#FEA821"/>
<path id="Vector_3" d="M49.4486 41.7155C50.27 40.3909 50.4959 38.8829 50.7423 37.3952C50.8245 36.9469 50.9682 36.6819 51.3789 36.4782C53.0628 35.6834 54.7262 34.8682 56.3895 34.0531C56.6976 33.89 57.0056 33.6863 57.2109 34.1753C57.2109 35.3369 57.2109 36.4782 57.1904 37.6398C57.1288 37.9862 57.0672 38.3123 57.0261 38.6587C57.0056 38.7198 57.0056 38.781 56.9851 38.8625C56.944 39.1478 56.9029 39.4127 56.8413 39.698C56.6359 39.8611 56.6565 40.0852 56.6976 40.289C56.6565 40.4928 56.6154 40.6966 56.5949 40.9004C56.4306 40.9819 56.3895 41.1245 56.4306 41.2876C56.369 41.4914 56.3279 41.6748 56.2663 41.8786C55.7119 43.1828 55.1574 44.4871 54.603 45.7709C54.3155 46.0155 54.2333 46.3619 54.0896 46.6676C54.028 46.7695 53.9664 46.8714 53.9048 46.9733C53.8637 46.9937 53.8431 47.0344 53.8637 47.0752C53.1244 47.8292 52.57 48.7259 51.9744 49.5614C51.3173 50.1931 50.6807 50.8045 50.0236 51.4363C49.2638 52.0476 48.5245 52.659 47.7647 53.25C47.1692 53.5149 46.6147 53.8002 46.1219 54.2282C44.8282 54.7988 43.5344 55.349 42.2407 55.9196C42.1586 55.94 42.097 55.9604 42.0148 55.9807C41.7273 55.94 41.4398 55.9196 41.2345 56.1845C40.3309 56.3679 39.4479 56.5513 38.5443 56.7348C38.4006 56.7551 38.2774 56.7551 38.1336 56.7755C38.072 56.7551 38.0104 56.7551 37.9488 56.7755C36.0185 56.7755 34.0882 56.8367 32.1579 56.5514C30.3302 56.266 28.6258 55.5935 26.9008 55.0433C25.2991 54.167 23.6973 53.3111 22.2599 52.1699C19.9394 50.3358 18.1939 48.033 16.6537 45.5671C16.3046 44.6501 15.9555 43.733 15.4216 42.8975C15.4011 42.7752 15.3805 42.653 15.36 42.5307C15.3189 42.4288 15.2779 42.3473 15.2368 42.2454C15.2573 42.1842 15.2368 42.1435 15.1752 42.1231C14.8877 40.8392 14.6207 39.535 14.3332 38.2511C14.3332 38.1085 14.3332 37.9862 14.3127 37.8435C14.2922 37.4971 14.4154 37.1507 14.1689 36.8246C14.1689 36.0094 14.1689 35.1943 14.1895 34.3791C14.3538 33.1564 14.4975 31.9337 14.6618 30.6906C14.7645 30.3849 14.9082 30.0588 14.9904 29.7531C15.6475 27.3077 16.7975 25.1067 18.1939 23.0077C18.5635 22.5186 18.9331 22.0295 19.3028 21.5404C20.1036 20.7253 20.9251 19.9305 21.7259 19.1154C22.1982 18.8504 22.65 18.5447 22.9991 18.1168C25.3607 16.6088 27.8455 15.3453 30.5972 14.6728C31.9936 14.2652 33.4721 14.3059 34.8891 14.041C35.5051 14.0614 36.1006 14.0818 36.7167 14.1022C37.0453 14.3467 37.4149 14.204 37.764 14.204C37.9694 14.204 38.1747 14.204 38.3801 14.204C39.6738 14.4893 40.988 14.7543 42.2818 15.0396C42.6514 15.3045 43.0826 15.386 43.5139 15.4472C44.3969 15.8547 45.2799 16.2827 46.1629 16.6903C46.4299 16.8737 46.6969 17.0775 46.9844 17.2405C48.237 17.9741 48.237 17.9741 47.0665 18.7485C46.9228 18.8301 46.8201 18.9727 46.6969 19.0746C46.4915 19.0746 46.2862 19.095 46.1835 19.2988C44.8281 19.9101 43.555 20.6641 42.3023 21.4182C41.2139 21.7442 40.3925 20.8679 39.3863 20.8068C39.0577 20.7864 38.7497 20.5419 38.4006 20.6438C38.072 20.5215 37.7229 20.4807 37.3533 20.5419C37.189 20.3585 36.9631 20.3381 36.7372 20.4196C36.2033 20.277 35.6489 20.3381 35.0944 20.3788C33.6159 20.44 32.1579 20.6234 30.8025 21.2755C30.0427 21.3774 29.3651 21.6831 28.749 22.111C28.6669 22.1722 28.5642 22.2129 28.482 22.2741H28.4615C27.866 22.4575 27.3526 22.8039 26.9008 23.2115C25.566 24.1489 24.4366 25.2698 23.492 26.5944C23.2455 26.8186 23.0607 27.0631 22.9786 27.3892C22.3215 28.3266 21.7465 29.3048 21.5411 30.4664C20.8635 31.7503 20.7197 33.136 20.617 34.5422C20.617 35.0109 20.617 35.5 20.617 35.9687C20.5965 36.3763 20.5144 36.8042 20.7813 37.171C20.7197 37.5175 20.7608 37.8639 20.884 38.19C21.1304 39.6573 21.5411 41.0838 22.3831 42.3473C22.4036 42.6733 22.5679 42.8975 22.7938 43.0809C23.3072 44.0795 23.9232 45.0169 24.8062 45.7302C25.3607 46.5046 26.1 47.0752 26.9214 47.5846C27.7222 48.3387 28.7079 48.8278 29.7142 49.2353C32.1579 50.2135 34.6837 50.886 37.3738 50.3358C37.5792 50.3154 37.8051 50.295 38.0104 50.2747C38.6881 50.3358 39.3042 50.1524 39.8791 49.8467C40.8238 49.6633 41.7479 49.3984 42.5487 48.8074C45.7112 47.3809 47.929 45.0577 49.387 41.9601L49.3665 41.9193C49.3459 41.8989 49.4075 41.8174 49.4486 41.7155Z" fill="#FEA821"/>
</g>
<defs>
<clipPath id="clip0_535_1674">
<rect width="89" height="71" fill="white"/>
</clipPath>
</defs>
</svg>
