<svg width="20" height="20" viewBox="0 0 20 20" fill="none" xmlns="http://www.w3.org/2000/svg">
<g id="Item &#226;&#134;&#146; Link - Summer Fridays on TikTok &#226;&#134;&#146; SVG">
<g id="Group">
<path id="Vector" d="M10.5252 0H13.9452C13.9452 0 13.7552 4.394 18.6952 4.702V8.098C18.6952 8.098 16.0592 8.263 13.9452 6.649L13.9822 13.661C13.9822 17.162 11.1442 19.999 7.64415 19.999C4.14415 19.999 1.30615 17.161 1.30615 13.661C1.30615 10.161 4.14315 7.323 7.64415 7.323H8.53315V10.723V10.795C7.01415 10.321 5.39815 11.169 4.92415 12.688C4.45015 14.207 5.29815 15.823 6.81715 16.297C8.33615 16.771 9.95215 15.923 10.4262 14.404C10.5132 14.126 10.5572 13.837 10.5572 13.547L10.5252 0Z" fill="#262626"/>
</g>
</g>
</svg>
