<svg width="20" height="21" viewBox="0 0 20 21" fill="none" xmlns="http://www.w3.org/2000/svg">
<g id="us.svg" clip-path="url(#clip0_158_1768)">
<g id="Group">
<g id="Group_2">
<path id="Vector" fill-rule="evenodd" clip-rule="evenodd" d="M0 0.719727H38.0004V2.2582H0V0.719727ZM0 3.79668H38.0004V5.33516H0V3.79668ZM0 6.87363H38.0004V8.41211H0V6.87363ZM0 9.95059H38.0004V11.4891H0V9.95059ZM0 13.0275H38.0004V14.566H0V13.0275ZM0 16.1045H38.0004V17.643H0V16.1045ZM0 19.1814H38.0004V20.7199H0V19.1814Z" fill="#BD3D44"/>
<path id="Vector_2" fill-rule="evenodd" clip-rule="evenodd" d="M0 2.25781H38.0004V3.79629H0V2.25781ZM0 5.33477H38.0004V6.87324H0V5.33477ZM0 8.41172H38.0004V9.95019H0V8.41172ZM0 11.4887H38.0004V13.0271H0V11.4887ZM0 14.5656H38.0004V16.1041H0V14.5656ZM0 17.6426H38.0004V19.1811H0V17.6426Z" fill="#262626"/>
</g>
<path id="Vector_3" fill-rule="evenodd" clip-rule="evenodd" d="M0 0.719727H15.2001V11.4891H0V0.719727Z" fill="#192F5D"/>
<path id="Vector_4" fill-rule="evenodd" clip-rule="evenodd" d="M1.26162 1.18164L1.41547 1.61241H1.84624L1.49239 1.87396L1.63085 2.28934L1.26162 2.0278L0.923154 2.28934L1.06162 1.87396L0.692383 1.61241H1.15393L1.26162 1.18164ZM3.80011 1.18164L3.93857 1.61241H4.38473L4.01549 1.87396L4.16934 2.28934L3.80011 2.0278L3.43087 2.28934L3.58472 1.87396L3.21548 1.61241H3.66164L3.80011 1.18164ZM6.33859 1.18164L6.47705 1.61241H6.92321L6.55398 1.87396L6.70783 2.28934L6.33859 2.0278L5.96936 2.28934L6.12321 1.87396L5.75397 1.61241H6.20013L6.33859 1.18164ZM8.86169 1.18164L9.01554 1.61241H9.44631L9.09247 1.87396L9.23093 2.28934L8.86169 2.0278L8.50784 2.28934L8.64631 1.87396L8.27707 1.61241H8.73862L8.86169 1.18164ZM11.4002 1.18164L11.5386 1.61241H11.9848L11.6156 1.87396L11.7694 2.28934L11.3848 2.0278L11.0309 2.28934L11.1694 1.87396L10.8002 1.61241H11.2463L11.4002 1.18164ZM13.9387 1.18164L14.0771 1.61241H14.5233L14.1541 1.87396L14.3079 2.28934L13.9387 2.0278L13.5694 2.28934L13.7233 1.87396L13.354 1.61241H13.8002L13.9387 1.18164ZM2.53855 2.25857L2.67702 2.68935H3.12318L2.75394 2.95089L2.90779 3.36628L2.53855 3.10474L2.16932 3.36628L2.32317 2.95089L1.95393 2.68935H2.40009L2.53855 2.25857ZM5.06166 2.25857L5.2155 2.68935H5.64628L5.29243 2.95089L5.43089 3.36628L5.06166 3.10474L4.70781 3.36628L4.84627 2.95089L4.47704 2.68935H4.93858L5.06166 2.25857ZM7.60014 2.25857L7.73861 2.68935H8.18476L7.81553 2.95089L7.96938 3.36628L7.60014 3.10474L7.23091 3.36628L7.38476 2.95089L7.01552 2.68935H7.46168L7.60014 2.25857ZM10.1386 2.25857L10.2771 2.68935H10.7233L10.354 2.95089L10.5079 3.36628L10.1386 3.10474L9.76939 3.36628L9.92324 2.95089L9.55401 2.68935H10.0002L10.1386 2.25857ZM12.6617 2.25857L12.8156 2.68935H13.231L12.8771 2.95089L13.0156 3.36628L12.6463 3.10474L12.2925 3.36628L12.431 2.95089L12.0617 2.68935H12.5233L12.6617 2.25857ZM1.277 3.33551L1.40008 3.76628H1.86163L1.49239 4.02782L1.63085 4.44321L1.26162 4.18167L0.923154 4.44321L1.06162 4.02782L0.692383 3.76628H1.15393L1.277 3.33551ZM3.80011 3.33551L3.93857 3.76628H4.38473L4.03088 4.02782L4.16934 4.44321L3.80011 4.18167L3.44626 4.44321L3.58472 4.02782L3.21548 3.76628H3.66164L3.80011 3.33551ZM6.33859 3.33551L6.47705 3.76628H6.92321L6.55398 4.02782L6.70783 4.44321L6.33859 4.18167L5.96936 4.44321L6.12321 4.02782L5.75397 3.76628H6.20013L6.33859 3.33551ZM8.86169 3.33551L9.01554 3.76628H9.44631L9.09247 4.02782L9.23093 4.44321L8.86169 4.18167L8.50784 4.44321L8.64631 4.02782L8.27707 3.76628H8.73862L8.86169 3.33551ZM11.4002 3.33551L11.5386 3.76628H11.9848L11.631 4.02782L11.7694 4.44321L11.4002 4.18167L11.0463 4.44321L11.1848 4.02782L10.8156 3.76628H11.2617L11.4002 3.33551ZM13.9387 3.33551L14.0771 3.76628H14.5233L14.1541 4.02782L14.3079 4.44321L13.9387 4.18167L13.5694 4.44321L13.7233 4.02782L13.354 3.76628H13.8002L13.9387 3.33551ZM2.53855 4.41244L2.67702 4.84321H3.12318L2.75394 5.10476L2.90779 5.52014L2.53855 5.2586L2.16932 5.52014L2.32317 5.10476L1.95393 4.84321H2.40009L2.53855 4.41244ZM5.06166 4.41244L5.2155 4.84321H5.64628L5.29243 5.10476L5.43089 5.52014L5.06166 5.2586L4.70781 5.52014L4.84627 5.10476L4.47704 4.84321H4.93858L5.06166 4.41244ZM7.60014 4.41244L7.73861 4.84321H8.18476L7.83091 5.10476L7.96938 5.52014L7.60014 5.2586L7.24629 5.52014L7.38476 5.10476L7.01552 4.84321H7.46168L7.60014 4.41244ZM10.1386 4.41244L10.2771 4.84321H10.7233L10.354 5.10476L10.5079 5.52014L10.1386 5.2586L9.76939 5.52014L9.92324 5.10476L9.55401 4.84321H10.0002L10.1386 4.41244ZM12.6617 4.41244L12.8156 4.84321H13.231L12.8771 5.10476L13.0156 5.52014L12.6463 5.2586L12.2925 5.52014L12.431 5.10476L12.0617 4.84321H12.5233L12.6617 4.41244ZM1.277 5.48937L1.40008 5.92015H1.86163L1.49239 6.18169L1.63085 6.59708L1.26162 6.33554L0.923154 6.59708L1.06162 6.18169L0.692383 5.92015H1.15393L1.277 5.48937ZM3.80011 5.48937L3.93857 5.92015H4.38473L4.03088 6.18169L4.16934 6.59708L3.80011 6.33554L3.44626 6.59708L3.58472 6.18169L3.21548 5.92015H3.66164L3.80011 5.48937ZM6.33859 5.48937L6.47705 5.92015H6.92321L6.55398 6.18169L6.70783 6.59708L6.33859 6.33554L5.96936 6.59708L6.12321 6.18169L5.75397 5.92015H6.20013L6.33859 5.48937ZM8.86169 5.48937L9.01554 5.92015H9.44631L9.09247 6.18169L9.23093 6.59708L8.86169 6.33554L8.50784 6.59708L8.64631 6.18169L8.27707 5.92015H8.73862L8.86169 5.48937ZM11.4002 5.48937L11.5386 5.92015H11.9848L11.631 6.18169L11.7694 6.59708L11.4002 6.33554L11.0463 6.59708L11.1848 6.18169L10.8156 5.92015H11.2617L11.4002 5.48937ZM13.9387 5.48937L14.0771 5.92015H14.5233L14.1541 6.18169L14.3079 6.59708L13.9387 6.33554L13.5694 6.59708L13.7233 6.18169L13.354 5.92015H13.8002L13.9387 5.48937ZM2.53855 6.56631L2.67702 6.99708H3.12318L2.75394 7.25862L2.90779 7.67401L2.53855 7.41247L2.16932 7.67401L2.32317 7.25862L1.95393 6.99708H2.40009L2.53855 6.56631ZM5.06166 6.56631L5.2155 6.99708H5.64628L5.29243 7.25862L5.43089 7.67401L5.06166 7.41247L4.70781 7.67401L4.84627 7.25862L4.47704 6.99708H4.93858L5.06166 6.56631ZM7.60014 6.56631L7.73861 6.99708H8.18476L7.83091 7.25862L7.96938 7.67401L7.60014 7.41247L7.24629 7.67401L7.38476 7.25862L7.01552 6.99708H7.46168L7.60014 6.56631ZM10.1386 6.56631L10.2771 6.99708H10.7233L10.354 7.25862L10.5079 7.67401L10.1386 7.41247L9.76939 7.67401L9.92324 7.25862L9.55401 6.99708H10.0002L10.1386 6.56631ZM12.6617 6.56631L12.8156 6.99708H13.231L12.8771 7.25862L13.0156 7.67401L12.6463 7.41247L12.2925 7.67401L12.431 7.25862L12.0617 6.99708H12.5233L12.6617 6.56631ZM1.277 7.64324L1.40008 8.07402H1.86163L1.49239 8.33556L1.63085 8.75095L1.26162 8.4894L0.923154 8.75095L1.06162 8.33556L0.692383 8.07402H1.15393L1.277 7.64324ZM3.80011 7.64324L3.93857 8.07402H4.38473L4.03088 8.33556L4.16934 8.75095L3.80011 8.4894L3.44626 8.75095L3.58472 8.33556L3.21548 8.07402H3.66164L3.80011 7.64324ZM6.33859 7.64324L6.47705 8.07402H6.92321L6.55398 8.33556L6.70783 8.75095L6.33859 8.4894L5.96936 8.75095L6.12321 8.33556L5.75397 8.07402H6.20013L6.33859 7.64324ZM8.86169 7.64324L9.01554 8.07402H9.44631L9.09247 8.33556L9.23093 8.75095L8.86169 8.4894L8.50784 8.75095L8.64631 8.33556L8.27707 8.07402H8.73862L8.86169 7.64324ZM11.4002 7.64324L11.5386 8.07402H11.9848L11.631 8.33556L11.7694 8.75095L11.4002 8.4894L11.0463 8.75095L11.1848 8.33556L10.8156 8.07402H11.2617L11.4002 7.64324ZM13.9387 7.64324L14.0771 8.07402H14.5233L14.1541 8.33556L14.3079 8.75095L13.9387 8.4894L13.5694 8.75095L13.7233 8.33556L13.354 8.07402H13.8002L13.9387 7.64324ZM2.53855 8.72018L2.67702 9.15095H3.12318L2.75394 9.41249L2.90779 9.82788L2.53855 9.56634L2.16932 9.82788L2.32317 9.41249L1.95393 9.15095H2.40009L2.53855 8.72018ZM5.06166 8.72018L5.2155 9.15095H5.64628L5.29243 9.41249L5.43089 9.82788L5.06166 9.56634L4.70781 9.82788L4.84627 9.41249L4.47704 9.15095H4.93858L5.06166 8.72018ZM7.60014 8.72018L7.73861 9.15095H8.18476L7.83091 9.41249L7.96938 9.82788L7.60014 9.56634L7.24629 9.82788L7.38476 9.41249L7.01552 9.15095H7.46168L7.60014 8.72018ZM10.1386 8.72018L10.2771 9.15095H10.7233L10.354 9.41249L10.5079 9.82788L10.1386 9.56634L9.76939 9.82788L9.92324 9.41249L9.55401 9.15095H10.0002L10.1386 8.72018ZM12.6617 8.72018L12.8156 9.15095H13.231L12.8771 9.41249L13.0156 9.82788L12.6463 9.56634L12.2925 9.82788L12.431 9.41249L12.0617 9.15095H12.5233L12.6617 8.72018ZM1.277 9.79711L1.40008 10.2279H1.86163L1.49239 10.4894L1.63085 10.9048L1.26162 10.6433L0.923154 10.9048L1.06162 10.4894L0.692383 10.2279H1.15393L1.277 9.79711ZM3.80011 9.79711L3.93857 10.2279H4.38473L4.03088 10.4894L4.16934 10.9048L3.80011 10.6433L3.44626 10.9048L3.58472 10.4894L3.21548 10.2279H3.66164L3.80011 9.79711ZM6.33859 9.79711L6.47705 10.2279H6.92321L6.55398 10.4894L6.70783 10.9048L6.33859 10.6433L5.96936 10.9048L6.12321 10.4894L5.75397 10.2279H6.20013L6.33859 9.79711ZM8.86169 9.79711L9.01554 10.2279H9.44631L9.09247 10.4894L9.23093 10.9048L8.86169 10.6433L8.50784 10.9048L8.64631 10.4894L8.27707 10.2279H8.73862L8.86169 9.79711ZM11.4002 9.79711L11.5386 10.2279H11.9848L11.631 10.4894L11.7694 10.9048L11.4002 10.6433L11.0463 10.9048L11.1848 10.4894L10.8156 10.2279H11.2617L11.4002 9.79711ZM13.9387 9.79711L14.0771 10.2279H14.5233L14.1541 10.4894L14.3079 10.9048L13.9387 10.6433L13.5694 10.9048L13.7233 10.4894L13.354 10.2279H13.8002L13.9387 9.79711Z" fill="#747474"/>
</g>
</g>
<defs>
<clipPath id="clip0_158_1768">
<rect width="20" height="20" fill="white" transform="translate(0 0.719727)"/>
</clipPath>
</defs>
</svg>
