<svg width="399" height="250" viewBox="0 0 399 250" fill="none" xmlns="http://www.w3.org/2000/svg">
<g filter="url(#filter0_d_74_1030)">
<rect x="25" y="15" width="349" height="200" rx="10" fill="#2A2A2A"/>
<path d="M68.14 66.2C67.0733 66.2 66.1 66.02 65.22 65.66C64.34 65.3 63.5733 64.7933 62.92 64.14C62.2667 63.4867 61.76 62.72 61.4 61.84C61.04 60.96 60.86 59.9933 60.86 58.94C60.86 57.8867 61.04 56.92 61.4 56.04C61.76 55.16 62.2667 54.3933 62.92 53.74C63.5733 53.0867 64.34 52.58 65.22 52.22C66.1 51.86 67.0667 51.68 68.12 51.68C69.1733 51.68 70.14 51.86 71.02 52.22C71.9 52.58 72.6667 53.0867 73.32 53.74C73.9733 54.3933 74.4733 55.16 74.82 56.04C75.18 56.92 75.36 57.8867 75.36 58.94C75.36 59.98 75.18 60.9467 74.82 61.84C74.4733 62.72 73.9733 63.4867 73.32 64.14C72.6667 64.7933 71.9 65.3 71.02 65.66C70.14 66.02 69.18 66.2 68.14 66.2ZM68.12 63C68.6667 63 69.1667 62.9 69.62 62.7C70.0867 62.5 70.4867 62.22 70.82 61.86C71.1667 61.4867 71.4333 61.0533 71.62 60.56C71.8067 60.0667 71.9 59.5267 71.9 58.94C71.9 58.3533 71.8067 57.8133 71.62 57.32C71.4333 56.8267 71.1667 56.4 70.82 56.04C70.4867 55.6667 70.0867 55.38 69.62 55.18C69.1667 54.98 68.6667 54.88 68.12 54.88C67.5733 54.88 67.0667 54.98 66.6 55.18C66.1467 55.38 65.7467 55.6667 65.4 56.04C65.0533 56.4 64.7867 56.8267 64.6 57.32C64.4267 57.8133 64.34 58.3533 64.34 58.94C64.34 59.5267 64.4267 60.0733 64.6 60.58C64.7867 61.0733 65.0533 61.5 65.4 61.86C65.7467 62.22 66.1467 62.5 66.6 62.7C67.0667 62.9 67.5733 63 68.12 63ZM81.2705 66.22C80.4838 66.22 79.8105 66.0533 79.2505 65.72C78.7038 65.3733 78.2771 64.88 77.9705 64.24C77.6771 63.6 77.5305 62.8333 77.5305 61.94V55.38H80.7505V61.5C80.7505 61.9267 80.8171 62.2933 80.9505 62.6C81.0838 62.9067 81.2838 63.1467 81.5505 63.32C81.8171 63.48 82.1371 63.56 82.5105 63.56C82.7905 63.56 83.0438 63.5133 83.2705 63.42C83.5105 63.3267 83.7105 63.2 83.8705 63.04C84.0438 62.8667 84.1771 62.6733 84.2705 62.46C84.3638 62.2333 84.4105 61.9867 84.4105 61.72V55.38H87.6305V66H84.6105L84.4705 63.82L85.0705 63.58C84.9105 64.0867 84.6438 64.54 84.2705 64.94C83.8971 65.3267 83.4505 65.64 82.9305 65.88C82.4105 66.1067 81.8571 66.22 81.2705 66.22ZM90.4825 66V55.38H93.5225L93.6625 58.84L93.0625 58.18C93.2225 57.6067 93.4825 57.0933 93.8425 56.64C94.2158 56.1867 94.6492 55.8267 95.1425 55.56C95.6358 55.2933 96.1625 55.16 96.7225 55.16C96.9625 55.16 97.1825 55.18 97.3825 55.22C97.5958 55.26 97.7892 55.3067 97.9625 55.36L97.0825 58.9C96.9358 58.8067 96.7358 58.7333 96.4825 58.68C96.2425 58.6133 95.9892 58.58 95.7225 58.58C95.4292 58.58 95.1558 58.6333 94.9025 58.74C94.6492 58.8333 94.4358 58.9733 94.2625 59.16C94.0892 59.3467 93.9492 59.5667 93.8425 59.82C93.7492 60.0733 93.7025 60.36 93.7025 60.68V66H90.4825ZM110.25 66L104.65 52H108.19L110.89 59.14C111.05 59.5533 111.184 59.9133 111.29 60.22C111.41 60.5267 111.51 60.8133 111.59 61.08C111.684 61.3467 111.764 61.62 111.83 61.9C111.91 62.1667 111.997 62.4733 112.09 62.82H111.47C111.577 62.3667 111.684 61.9667 111.79 61.62C111.897 61.26 112.017 60.8933 112.15 60.52C112.284 60.1333 112.45 59.6733 112.65 59.14L115.25 52H118.73L113.09 66H110.25ZM120.409 66V55.38H123.609V66H120.409ZM122.009 53.28C121.409 53.28 120.935 53.14 120.589 52.86C120.255 52.5667 120.089 52.1533 120.089 51.62C120.089 51.14 120.262 50.7467 120.609 50.44C120.955 50.1333 121.422 49.98 122.009 49.98C122.609 49.98 123.075 50.1267 123.409 50.42C123.742 50.7 123.909 51.1 123.909 51.62C123.909 52.1133 123.735 52.5133 123.389 52.82C123.055 53.1267 122.595 53.28 122.009 53.28ZM130.195 66.2C129.155 66.2 128.235 66.0333 127.435 65.7C126.649 65.3667 126.022 64.92 125.555 64.36L127.495 62.68C127.909 63.0933 128.375 63.4 128.895 63.6C129.415 63.7867 129.909 63.88 130.375 63.88C130.562 63.88 130.729 63.86 130.875 63.82C131.022 63.78 131.142 63.7267 131.235 63.66C131.342 63.58 131.422 63.4933 131.475 63.4C131.529 63.2933 131.555 63.1733 131.555 63.04C131.555 62.7733 131.435 62.5667 131.195 62.42C131.075 62.3533 130.875 62.2733 130.595 62.18C130.315 62.0867 129.955 61.98 129.515 61.86C128.889 61.7 128.342 61.5133 127.875 61.3C127.422 61.0733 127.049 60.8133 126.755 60.52C126.489 60.24 126.282 59.9333 126.135 59.6C125.989 59.2533 125.915 58.8667 125.915 58.44C125.915 57.9467 126.029 57.5 126.255 57.1C126.495 56.7 126.809 56.3533 127.195 56.06C127.595 55.7667 128.049 55.5467 128.555 55.4C129.075 55.24 129.609 55.16 130.155 55.16C130.742 55.16 131.302 55.2267 131.835 55.36C132.369 55.4933 132.862 55.68 133.315 55.92C133.782 56.16 134.195 56.4467 134.555 56.78L132.875 58.66C132.635 58.4333 132.362 58.2333 132.055 58.06C131.762 57.8733 131.455 57.7267 131.135 57.62C130.815 57.5133 130.522 57.46 130.255 57.46C130.055 57.46 129.875 57.48 129.715 57.52C129.569 57.5467 129.442 57.6 129.335 57.68C129.229 57.7467 129.149 57.8333 129.095 57.94C129.042 58.0333 129.015 58.1467 129.015 58.28C129.015 58.4133 129.049 58.54 129.115 58.66C129.195 58.78 129.302 58.88 129.435 58.96C129.569 59.04 129.782 59.1333 130.075 59.24C130.369 59.3333 130.769 59.4533 131.275 59.6C131.902 59.7733 132.442 59.9667 132.895 60.18C133.349 60.3933 133.709 60.6467 133.975 60.94C134.189 61.1667 134.349 61.4333 134.455 61.74C134.562 62.0333 134.615 62.3533 134.615 62.7C134.615 63.38 134.422 63.9867 134.035 64.52C133.662 65.04 133.142 65.4533 132.475 65.76C131.809 66.0533 131.049 66.2 130.195 66.2ZM136.698 66V55.38H139.898V66H136.698ZM138.298 53.28C137.698 53.28 137.224 53.14 136.878 52.86C136.544 52.5667 136.378 52.1533 136.378 51.62C136.378 51.14 136.551 50.7467 136.898 50.44C137.244 50.1333 137.711 49.98 138.298 49.98C138.898 49.98 139.364 50.1267 139.698 50.42C140.031 50.7 140.198 51.1 140.198 51.62C140.198 52.1133 140.024 52.5133 139.678 52.82C139.344 53.1267 138.884 53.28 138.298 53.28ZM147.904 66.2C146.798 66.2 145.811 65.96 144.944 65.48C144.091 65 143.411 64.3467 142.904 63.52C142.411 62.6933 142.164 61.7467 142.164 60.68C142.164 59.6133 142.411 58.6667 142.904 57.84C143.411 57.0133 144.091 56.36 144.944 55.88C145.811 55.4 146.798 55.16 147.904 55.16C149.011 55.16 149.991 55.4 150.844 55.88C151.711 56.36 152.391 57.0133 152.884 57.84C153.378 58.6667 153.624 59.6133 153.624 60.68C153.624 61.7467 153.378 62.6933 152.884 63.52C152.391 64.3467 151.711 65 150.844 65.48C149.991 65.96 149.011 66.2 147.904 66.2ZM147.904 63.44C148.384 63.44 148.811 63.32 149.184 63.08C149.558 62.84 149.851 62.5133 150.064 62.1C150.278 61.6867 150.378 61.2133 150.364 60.68C150.378 60.1467 150.278 59.6733 150.064 59.26C149.851 58.8333 149.558 58.5 149.184 58.26C148.811 58.02 148.384 57.9 147.904 57.9C147.424 57.9 146.991 58.02 146.604 58.26C146.231 58.5 145.938 58.8333 145.724 59.26C145.511 59.6733 145.411 60.1467 145.424 60.68C145.411 61.2133 145.511 61.6867 145.724 62.1C145.938 62.5133 146.231 62.84 146.604 63.08C146.991 63.32 147.424 63.44 147.904 63.44ZM155.717 66V55.38H158.757L158.857 57.54L158.217 57.78C158.364 57.3 158.624 56.8667 158.997 56.48C159.384 56.08 159.844 55.76 160.377 55.52C160.91 55.28 161.47 55.16 162.057 55.16C162.857 55.16 163.53 55.3267 164.077 55.66C164.624 55.98 165.037 56.4667 165.317 57.12C165.597 57.76 165.737 58.5467 165.737 59.48V66H162.517V59.74C162.517 59.3133 162.457 58.96 162.337 58.68C162.217 58.4 162.03 58.1933 161.777 58.06C161.537 57.9133 161.237 57.8467 160.877 57.86C160.597 57.86 160.337 57.9067 160.097 58C159.857 58.08 159.65 58.2067 159.477 58.38C159.304 58.54 159.164 58.7267 159.057 58.94C158.964 59.1533 158.917 59.3867 158.917 59.64V66H157.337C156.964 66 156.644 66 156.377 66C156.11 66 155.89 66 155.717 66Z" fill="white"/>
<path d="M61.666 96V84.1H66.63C67.3893 84.1 68.0297 84.2133 68.551 84.44C69.0723 84.6667 69.4633 85.0067 69.724 85.46C69.996 85.902 70.132 86.446 70.132 87.092C70.132 87.738 69.9507 88.2877 69.588 88.741C69.2367 89.1943 68.7437 89.506 68.109 89.676V89.336C68.6417 89.4493 69.1063 89.6533 69.503 89.948C69.8997 90.2313 70.2057 90.5883 70.421 91.019C70.6477 91.4497 70.761 91.9427 70.761 92.498C70.761 93.0647 70.6703 93.569 70.489 94.011C70.319 94.4417 70.0583 94.8043 69.707 95.099C69.367 95.3937 68.9533 95.6203 68.466 95.779C67.9787 95.9263 67.4233 96 66.8 96H61.666ZM63.502 94.232H66.698C67.1627 94.232 67.5537 94.164 67.871 94.028C68.1997 93.892 68.449 93.6937 68.619 93.433C68.8003 93.161 68.891 92.838 68.891 92.464C68.891 92.1127 68.7947 91.8123 68.602 91.563C68.4207 91.3137 68.16 91.1267 67.82 91.002C67.48 90.866 67.0777 90.798 66.613 90.798H63.502V94.232ZM63.502 89.03H66.528C66.868 89.03 67.1683 88.962 67.429 88.826C67.701 88.69 67.9107 88.503 68.058 88.265C68.2167 88.027 68.296 87.755 68.296 87.449C68.296 86.939 68.126 86.548 67.786 86.276C67.446 86.004 66.9587 85.868 66.324 85.868H63.502V89.03ZM75.9233 96.17C75.2886 96.17 74.7333 96.0227 74.2573 95.728C73.7926 95.4333 73.43 95.0197 73.1693 94.487C72.92 93.9543 72.7953 93.3197 72.7953 92.583V87.075H74.5463V92.107C74.5463 92.6283 74.6256 93.0817 74.7843 93.467C74.9543 93.841 75.1923 94.13 75.4983 94.334C75.8156 94.538 76.1953 94.64 76.6373 94.64C76.966 94.64 77.2663 94.589 77.5383 94.487C77.8103 94.3737 78.0426 94.2207 78.2353 94.028C78.4393 93.8353 78.598 93.603 78.7113 93.331C78.8246 93.059 78.8813 92.7643 78.8813 92.447V87.075H80.6323V96H78.8813V94.13L79.1873 93.926C79.0513 94.3453 78.819 94.725 78.4903 95.065C78.173 95.405 77.7933 95.677 77.3513 95.881C76.9093 96.0737 76.4333 96.17 75.9233 96.17ZM83.3773 96V87.075H85.1283V96H83.3773ZM84.2273 85.103C83.8533 85.103 83.5643 85.0067 83.3603 84.814C83.1563 84.6213 83.0543 84.3493 83.0543 83.998C83.0543 83.6693 83.1563 83.403 83.3603 83.199C83.5756 82.995 83.8646 82.893 84.2273 82.893C84.6013 82.893 84.8903 82.9893 85.0943 83.182C85.2983 83.3747 85.4003 83.6467 85.4003 83.998C85.4003 84.3267 85.2926 84.593 85.0773 84.797C84.8733 85.001 84.5899 85.103 84.2273 85.103ZM87.8537 96V83.42H89.6047V96H87.8537ZM93.1415 96V84.797H94.8925V96H93.1415ZM91.2885 88.775V87.075H96.9665V88.775H91.2885ZM107.338 96.17C106.465 96.17 105.683 95.9717 104.992 95.575C104.312 95.167 103.773 94.6173 103.377 93.926C102.98 93.2233 102.782 92.4243 102.782 91.529C102.782 90.6337 102.98 89.8403 103.377 89.149C103.773 88.4463 104.312 87.8967 104.992 87.5C105.683 87.092 106.465 86.888 107.338 86.888C108.199 86.888 108.97 87.092 109.65 87.5C110.341 87.8967 110.885 88.4463 111.282 89.149C111.678 89.8403 111.877 90.6337 111.877 91.529C111.877 92.4243 111.678 93.2233 111.282 93.926C110.885 94.6173 110.341 95.167 109.65 95.575C108.97 95.9717 108.199 96.17 107.338 96.17ZM107.338 94.572C107.87 94.572 108.346 94.4417 108.766 94.181C109.185 93.909 109.514 93.5463 109.752 93.093C109.99 92.6283 110.103 92.107 110.092 91.529C110.103 90.9397 109.99 90.4183 109.752 89.965C109.514 89.5003 109.185 89.1377 108.766 88.877C108.346 88.6163 107.87 88.486 107.338 88.486C106.805 88.486 106.323 88.622 105.893 88.894C105.473 89.1547 105.145 89.5173 104.907 89.982C104.669 90.4353 104.555 90.951 104.567 91.529C104.555 92.107 104.669 92.6283 104.907 93.093C105.145 93.5463 105.473 93.909 105.893 94.181C106.323 94.4417 106.805 94.572 107.338 94.572ZM113.785 96V87.075H115.536V88.911L115.23 89.115C115.343 88.7183 115.564 88.3557 115.893 88.027C116.221 87.687 116.612 87.415 117.066 87.211C117.519 86.9957 117.984 86.888 118.46 86.888C119.14 86.888 119.706 87.024 120.16 87.296C120.613 87.5567 120.953 87.959 121.18 88.503C121.406 89.047 121.52 89.7327 121.52 90.56V96H119.769V90.679C119.769 90.169 119.701 89.7497 119.565 89.421C119.429 89.081 119.219 88.8373 118.936 88.69C118.652 88.5313 118.301 88.4633 117.882 88.486C117.542 88.486 117.23 88.5427 116.947 88.656C116.663 88.758 116.414 88.9053 116.199 89.098C115.995 89.2907 115.83 89.5173 115.706 89.778C115.592 90.0273 115.536 90.2993 115.536 90.594V96H114.669C114.521 96 114.374 96 114.227 96C114.079 96 113.932 96 113.785 96ZM132.094 96.17C131.357 96.17 130.683 95.966 130.071 95.558C129.47 95.15 128.988 94.5947 128.626 93.892C128.263 93.1893 128.082 92.396 128.082 91.512C128.082 90.6167 128.263 89.8233 128.626 89.132C129 88.4293 129.498 87.8797 130.122 87.483C130.756 87.0863 131.465 86.888 132.247 86.888C132.711 86.888 133.136 86.956 133.522 87.092C133.907 87.228 134.241 87.4207 134.525 87.67C134.819 87.908 135.057 88.1857 135.239 88.503C135.431 88.8203 135.55 89.1603 135.596 89.523L135.205 89.387V87.075H136.973V96H135.205V93.875L135.613 93.756C135.545 94.062 135.403 94.3623 135.188 94.657C134.984 94.9403 134.717 95.1953 134.389 95.422C134.071 95.6487 133.714 95.83 133.318 95.966C132.932 96.102 132.524 96.17 132.094 96.17ZM132.553 94.555C133.085 94.555 133.556 94.4247 133.964 94.164C134.372 93.9033 134.689 93.5463 134.916 93.093C135.154 92.6283 135.273 92.1013 135.273 91.512C135.273 90.934 135.154 90.4183 134.916 89.965C134.689 89.5117 134.372 89.1547 133.964 88.894C133.556 88.6333 133.085 88.503 132.553 88.503C132.031 88.503 131.567 88.6333 131.159 88.894C130.762 89.1547 130.445 89.5117 130.207 89.965C129.98 90.4183 129.867 90.934 129.867 91.512C129.867 92.1013 129.98 92.6283 130.207 93.093C130.445 93.5463 130.762 93.9033 131.159 94.164C131.567 94.4247 132.031 94.555 132.553 94.555ZM147.157 96.17C146.409 96.17 145.735 96.0397 145.134 95.779C144.533 95.5183 144.035 95.133 143.638 94.623L144.828 93.603C145.168 93.9997 145.536 94.2887 145.933 94.47C146.341 94.64 146.8 94.725 147.31 94.725C147.514 94.725 147.701 94.7023 147.871 94.657C148.052 94.6003 148.205 94.521 148.33 94.419C148.466 94.317 148.568 94.198 148.636 94.062C148.704 93.9147 148.738 93.756 148.738 93.586C148.738 93.2913 148.63 93.0533 148.415 92.872C148.302 92.7927 148.12 92.7077 147.871 92.617C147.633 92.515 147.321 92.413 146.936 92.311C146.279 92.141 145.74 91.9483 145.321 91.733C144.902 91.5177 144.579 91.274 144.352 91.002C144.182 90.7867 144.057 90.5543 143.978 90.305C143.899 90.0443 143.859 89.761 143.859 89.455C143.859 89.081 143.938 88.741 144.097 88.435C144.267 88.1177 144.494 87.8457 144.777 87.619C145.072 87.381 145.412 87.1997 145.797 87.075C146.194 86.9503 146.613 86.888 147.055 86.888C147.474 86.888 147.888 86.9447 148.296 87.058C148.715 87.1713 149.101 87.3357 149.452 87.551C149.803 87.7663 150.098 88.0213 150.336 88.316L149.333 89.421C149.118 89.2057 148.88 89.0187 148.619 88.86C148.37 88.69 148.115 88.5597 147.854 88.469C147.593 88.3783 147.355 88.333 147.14 88.333C146.902 88.333 146.687 88.3557 146.494 88.401C146.301 88.4463 146.137 88.5143 146.001 88.605C145.876 88.6957 145.78 88.809 145.712 88.945C145.644 89.081 145.61 89.234 145.61 89.404C145.621 89.5513 145.655 89.693 145.712 89.829C145.78 89.9537 145.871 90.0613 145.984 90.152C146.109 90.2427 146.296 90.339 146.545 90.441C146.794 90.543 147.112 90.6393 147.497 90.73C148.064 90.8773 148.528 91.0417 148.891 91.223C149.265 91.393 149.56 91.5913 149.775 91.818C150.002 92.0333 150.16 92.2827 150.251 92.566C150.342 92.8493 150.387 93.1667 150.387 93.518C150.387 94.028 150.24 94.487 149.945 94.895C149.662 95.2917 149.276 95.6033 148.789 95.83C148.302 96.0567 147.758 96.17 147.157 96.17ZM153.422 96V84.797H155.173V96H153.422ZM151.569 88.775V87.075H157.247V88.775H151.569ZM158.841 96V87.075H160.609V89.88L160.439 89.2C160.564 88.7693 160.774 88.3783 161.068 88.027C161.374 87.6757 161.72 87.398 162.105 87.194C162.502 86.99 162.91 86.888 163.329 86.888C163.522 86.888 163.703 86.905 163.873 86.939C164.055 86.973 164.196 87.0127 164.298 87.058L163.839 88.962C163.703 88.9053 163.55 88.86 163.38 88.826C163.222 88.7807 163.063 88.758 162.904 88.758C162.598 88.758 162.304 88.8203 162.02 88.945C161.748 89.0583 161.505 89.2227 161.289 89.438C161.085 89.642 160.921 89.8857 160.796 90.169C160.672 90.441 160.609 90.7413 160.609 91.07V96H158.841ZM169.328 96.17C168.455 96.17 167.673 95.9717 166.982 95.575C166.302 95.167 165.763 94.6173 165.367 93.926C164.97 93.2233 164.772 92.4243 164.772 91.529C164.772 90.6337 164.97 89.8403 165.367 89.149C165.763 88.4463 166.302 87.8967 166.982 87.5C167.673 87.092 168.455 86.888 169.328 86.888C170.189 86.888 170.96 87.092 171.64 87.5C172.331 87.8967 172.875 88.4463 173.272 89.149C173.668 89.8403 173.867 90.6337 173.867 91.529C173.867 92.4243 173.668 93.2233 173.272 93.926C172.875 94.6173 172.331 95.167 171.64 95.575C170.96 95.9717 170.189 96.17 169.328 96.17ZM169.328 94.572C169.86 94.572 170.336 94.4417 170.756 94.181C171.175 93.909 171.504 93.5463 171.742 93.093C171.98 92.6283 172.093 92.107 172.082 91.529C172.093 90.9397 171.98 90.4183 171.742 89.965C171.504 89.5003 171.175 89.1377 170.756 88.877C170.336 88.6163 169.86 88.486 169.328 88.486C168.795 88.486 168.313 88.622 167.883 88.894C167.463 89.1547 167.135 89.5173 166.897 89.982C166.659 90.4353 166.545 90.951 166.557 91.529C166.545 92.107 166.659 92.6283 166.897 93.093C167.135 93.5463 167.463 93.909 167.883 94.181C168.313 94.4417 168.795 94.572 169.328 94.572ZM175.775 96V87.075H177.526V88.911L177.22 89.115C177.333 88.7183 177.554 88.3557 177.883 88.027C178.211 87.687 178.602 87.415 179.056 87.211C179.509 86.9957 179.974 86.888 180.45 86.888C181.13 86.888 181.696 87.024 182.15 87.296C182.603 87.5567 182.943 87.959 183.17 88.503C183.396 89.047 183.51 89.7327 183.51 90.56V96H181.759V90.679C181.759 90.169 181.691 89.7497 181.555 89.421C181.419 89.081 181.209 88.8373 180.926 88.69C180.642 88.5313 180.291 88.4633 179.872 88.486C179.532 88.486 179.22 88.5427 178.937 88.656C178.653 88.758 178.404 88.9053 178.189 89.098C177.985 89.2907 177.82 89.5173 177.696 89.778C177.582 90.0273 177.526 90.2993 177.526 90.594V96H176.659C176.511 96 176.364 96 176.217 96C176.069 96 175.922 96 175.775 96ZM189.88 99.91C189.245 99.91 188.611 99.808 187.976 99.604C187.353 99.4113 186.848 99.1563 186.463 98.839L187.109 97.479C187.336 97.649 187.602 97.7963 187.908 97.921C188.214 98.057 188.537 98.159 188.877 98.227C189.217 98.3063 189.551 98.346 189.88 98.346C190.503 98.346 191.025 98.244 191.444 98.04C191.863 97.836 192.181 97.5357 192.396 97.139C192.611 96.7423 192.719 96.2493 192.719 95.66V93.943L192.906 94.062C192.849 94.4133 192.662 94.7533 192.345 95.082C192.039 95.3993 191.654 95.66 191.189 95.864C190.724 96.068 190.248 96.17 189.761 96.17C188.911 96.17 188.152 95.9717 187.483 95.575C186.826 95.167 186.304 94.6173 185.919 93.926C185.534 93.2233 185.341 92.4243 185.341 91.529C185.341 90.6337 185.528 89.8403 185.902 89.149C186.287 88.4463 186.809 87.8967 187.466 87.5C188.135 87.092 188.883 86.888 189.71 86.888C190.05 86.888 190.379 86.9333 190.696 87.024C191.013 87.1033 191.308 87.2223 191.58 87.381C191.852 87.5283 192.096 87.6927 192.311 87.874C192.526 88.0553 192.702 88.248 192.838 88.452C192.974 88.656 193.059 88.8487 193.093 89.03L192.719 89.166V87.075H194.47V95.456C194.47 96.17 194.362 96.799 194.147 97.343C193.943 97.8983 193.643 98.363 193.246 98.737C192.849 99.1223 192.368 99.4113 191.801 99.604C191.234 99.808 190.594 99.91 189.88 99.91ZM189.948 94.555C190.503 94.555 190.996 94.4247 191.427 94.164C191.858 93.9033 192.192 93.5463 192.43 93.093C192.668 92.6397 192.787 92.1183 192.787 91.529C192.787 90.9397 192.662 90.4183 192.413 89.965C192.175 89.5003 191.841 89.1377 191.41 88.877C190.991 88.6163 190.503 88.486 189.948 88.486C189.404 88.486 188.917 88.622 188.486 88.894C188.067 89.1547 187.732 89.5173 187.483 89.982C187.245 90.4353 187.126 90.951 187.126 91.529C187.126 92.107 187.245 92.6283 187.483 93.093C187.732 93.5463 188.067 93.9033 188.486 94.164C188.917 94.4247 189.404 94.555 189.948 94.555ZM62.193 122V112.072C62.193 111.562 62.3063 111.109 62.533 110.712C62.7597 110.315 63.0713 110.004 63.468 109.777C63.8647 109.55 64.3237 109.437 64.845 109.437C65.2077 109.437 65.5477 109.505 65.865 109.641C66.1823 109.777 66.4373 109.958 66.63 110.185L66.035 111.528C65.8877 111.392 65.7233 111.284 65.542 111.205C65.372 111.114 65.2077 111.069 65.049 111.069C64.811 111.069 64.607 111.109 64.437 111.188C64.2783 111.256 64.1593 111.369 64.08 111.528C64.0007 111.675 63.961 111.857 63.961 112.072V122H63.077C62.9297 122 62.7823 122 62.635 122C62.4877 122 62.3403 122 62.193 122ZM60.765 114.843V113.228H66.069V114.843H60.765ZM71.5778 122.17C70.7051 122.17 69.9231 121.972 69.2318 121.575C68.5518 121.167 68.0135 120.617 67.6168 119.926C67.2201 119.223 67.0218 118.424 67.0218 117.529C67.0218 116.634 67.2201 115.84 67.6168 115.149C68.0135 114.446 68.5518 113.897 69.2318 113.5C69.9231 113.092 70.7051 112.888 71.5778 112.888C72.4391 112.888 73.2098 113.092 73.8898 113.5C74.5811 113.897 75.1251 114.446 75.5218 115.149C75.9185 115.84 76.1168 116.634 76.1168 117.529C76.1168 118.424 75.9185 119.223 75.5218 119.926C75.1251 120.617 74.5811 121.167 73.8898 121.575C73.2098 121.972 72.4391 122.17 71.5778 122.17ZM71.5778 120.572C72.1105 120.572 72.5865 120.442 73.0058 120.181C73.4251 119.909 73.7538 119.546 73.9918 119.093C74.2298 118.628 74.3431 118.107 74.3318 117.529C74.3431 116.94 74.2298 116.418 73.9918 115.965C73.7538 115.5 73.4251 115.138 73.0058 114.877C72.5865 114.616 72.1105 114.486 71.5778 114.486C71.0451 114.486 70.5635 114.622 70.1328 114.894C69.7135 115.155 69.3848 115.517 69.1468 115.982C68.9088 116.435 68.7955 116.951 68.8068 117.529C68.7955 118.107 68.9088 118.628 69.1468 119.093C69.3848 119.546 69.7135 119.909 70.1328 120.181C70.5635 120.442 71.0451 120.572 71.5778 120.572ZM81.1528 122.17C80.5181 122.17 79.9628 122.023 79.4868 121.728C79.0221 121.433 78.6594 121.02 78.3988 120.487C78.1494 119.954 78.0248 119.32 78.0248 118.583V113.075H79.7758V118.107C79.7758 118.628 79.8551 119.082 80.0138 119.467C80.1838 119.841 80.4218 120.13 80.7278 120.334C81.0451 120.538 81.4248 120.64 81.8668 120.64C82.1954 120.64 82.4958 120.589 82.7678 120.487C83.0398 120.374 83.2721 120.221 83.4648 120.028C83.6688 119.835 83.8274 119.603 83.9408 119.331C84.0541 119.059 84.1108 118.764 84.1108 118.447V113.075H85.8618V122H84.1108V120.13L84.4168 119.926C84.2808 120.345 84.0484 120.725 83.7198 121.065C83.4024 121.405 83.0228 121.677 82.5808 121.881C82.1388 122.074 81.6628 122.17 81.1528 122.17ZM88.3178 122V113.075H90.0688V114.911L89.7628 115.115C89.8761 114.718 90.0971 114.356 90.4258 114.027C90.7544 113.687 91.1454 113.415 91.5988 113.211C92.0521 112.996 92.5168 112.888 92.9928 112.888C93.6728 112.888 94.2394 113.024 94.6928 113.296C95.1461 113.557 95.4861 113.959 95.7128 114.503C95.9394 115.047 96.0528 115.733 96.0528 116.56V122H94.3018V116.679C94.3018 116.169 94.2338 115.75 94.0978 115.421C93.9618 115.081 93.7521 114.837 93.4688 114.69C93.1854 114.531 92.8341 114.463 92.4148 114.486C92.0748 114.486 91.7631 114.543 91.4798 114.656C91.1964 114.758 90.9471 114.905 90.7318 115.098C90.5278 115.291 90.3634 115.517 90.2388 115.778C90.1254 116.027 90.0688 116.299 90.0688 116.594V122H89.2018C89.0544 122 88.9071 122 88.7598 122C88.6124 122 88.4651 122 88.3178 122ZM102.151 122.17C101.335 122.17 100.604 121.972 99.9581 121.575C99.3234 121.167 98.8191 120.617 98.4451 119.926C98.0711 119.223 97.8841 118.424 97.8841 117.529C97.8841 116.634 98.0654 115.84 98.4281 115.149C98.8021 114.446 99.3064 113.897 99.9411 113.5C100.576 113.092 101.295 112.888 102.1 112.888C102.542 112.888 102.967 112.962 103.375 113.109C103.794 113.245 104.168 113.438 104.497 113.687C104.826 113.925 105.081 114.191 105.262 114.486C105.455 114.769 105.551 115.058 105.551 115.353L105.041 115.387V109.42H106.792V122H105.041V119.875H105.381C105.381 120.147 105.29 120.419 105.109 120.691C104.928 120.952 104.684 121.195 104.378 121.422C104.083 121.649 103.738 121.83 103.341 121.966C102.956 122.102 102.559 122.17 102.151 122.17ZM102.389 120.657C102.922 120.657 103.392 120.521 103.8 120.249C104.208 119.977 104.525 119.609 104.752 119.144C104.99 118.668 105.109 118.13 105.109 117.529C105.109 116.928 104.99 116.396 104.752 115.931C104.525 115.455 104.208 115.081 103.8 114.809C103.392 114.537 102.922 114.401 102.389 114.401C101.856 114.401 101.386 114.537 100.978 114.809C100.57 115.081 100.247 115.455 100.009 115.931C99.7824 116.396 99.6691 116.928 99.6691 117.529C99.6691 118.13 99.7824 118.668 100.009 119.144C100.247 119.609 100.57 119.977 100.978 120.249C101.386 120.521 101.856 120.657 102.389 120.657ZM112.637 122.17C111.9 122.17 111.226 121.966 110.614 121.558C110.013 121.15 109.531 120.595 109.169 119.892C108.806 119.189 108.625 118.396 108.625 117.512C108.625 116.617 108.806 115.823 109.169 115.132C109.543 114.429 110.041 113.88 110.665 113.483C111.299 113.086 112.008 112.888 112.79 112.888C113.254 112.888 113.679 112.956 114.065 113.092C114.45 113.228 114.784 113.421 115.068 113.67C115.362 113.908 115.6 114.186 115.782 114.503C115.974 114.82 116.093 115.16 116.139 115.523L115.748 115.387V113.075H117.516V122H115.748V119.875L116.156 119.756C116.088 120.062 115.946 120.362 115.731 120.657C115.527 120.94 115.26 121.195 114.932 121.422C114.614 121.649 114.257 121.83 113.861 121.966C113.475 122.102 113.067 122.17 112.637 122.17ZM113.096 120.555C113.628 120.555 114.099 120.425 114.507 120.164C114.915 119.903 115.232 119.546 115.459 119.093C115.697 118.628 115.816 118.101 115.816 117.512C115.816 116.934 115.697 116.418 115.459 115.965C115.232 115.512 114.915 115.155 114.507 114.894C114.099 114.633 113.628 114.503 113.096 114.503C112.574 114.503 112.11 114.633 111.702 114.894C111.305 115.155 110.988 115.512 110.75 115.965C110.523 116.418 110.41 116.934 110.41 117.512C110.41 118.101 110.523 118.628 110.75 119.093C110.988 119.546 111.305 119.903 111.702 120.164C112.11 120.425 112.574 120.555 113.096 120.555ZM121.065 122V110.797H122.816V122H121.065ZM119.212 114.775V113.075H124.89V114.775H119.212ZM126.774 122V113.075H128.525V122H126.774ZM127.624 111.103C127.25 111.103 126.961 111.007 126.757 110.814C126.553 110.621 126.451 110.349 126.451 109.998C126.451 109.669 126.553 109.403 126.757 109.199C126.972 108.995 127.261 108.893 127.624 108.893C127.998 108.893 128.287 108.989 128.491 109.182C128.695 109.375 128.797 109.647 128.797 109.998C128.797 110.327 128.689 110.593 128.474 110.797C128.27 111.001 127.986 111.103 127.624 111.103ZM135.228 122.17C134.356 122.17 133.574 121.972 132.882 121.575C132.202 121.167 131.664 120.617 131.267 119.926C130.871 119.223 130.672 118.424 130.672 117.529C130.672 116.634 130.871 115.84 131.267 115.149C131.664 114.446 132.202 113.897 132.882 113.5C133.574 113.092 134.356 112.888 135.228 112.888C136.09 112.888 136.86 113.092 137.54 113.5C138.232 113.897 138.776 114.446 139.172 115.149C139.569 115.84 139.767 116.634 139.767 117.529C139.767 118.424 139.569 119.223 139.172 119.926C138.776 120.617 138.232 121.167 137.54 121.575C136.86 121.972 136.09 122.17 135.228 122.17ZM135.228 120.572C135.761 120.572 136.237 120.442 136.656 120.181C137.076 119.909 137.404 119.546 137.642 119.093C137.88 118.628 137.994 118.107 137.982 117.529C137.994 116.94 137.88 116.418 137.642 115.965C137.404 115.5 137.076 115.138 136.656 114.877C136.237 114.616 135.761 114.486 135.228 114.486C134.696 114.486 134.214 114.622 133.783 114.894C133.364 115.155 133.035 115.517 132.797 115.982C132.559 116.435 132.446 116.951 132.457 117.529C132.446 118.107 132.559 118.628 132.797 119.093C133.035 119.546 133.364 119.909 133.783 120.181C134.214 120.442 134.696 120.572 135.228 120.572ZM141.675 122V113.075H143.426V114.911L143.12 115.115C143.234 114.718 143.455 114.356 143.783 114.027C144.112 113.687 144.503 113.415 144.956 113.211C145.41 112.996 145.874 112.888 146.35 112.888C147.03 112.888 147.597 113.024 148.05 113.296C148.504 113.557 148.844 113.959 149.07 114.503C149.297 115.047 149.41 115.733 149.41 116.56V122H147.659V116.679C147.659 116.169 147.591 115.75 147.455 115.421C147.319 115.081 147.11 114.837 146.826 114.69C146.543 114.531 146.192 114.463 145.772 114.486C145.432 114.486 145.121 114.543 144.837 114.656C144.554 114.758 144.305 114.905 144.089 115.098C143.885 115.291 143.721 115.517 143.596 115.778C143.483 116.027 143.426 116.299 143.426 116.594V122H142.559C142.412 122 142.265 122 142.117 122C141.97 122 141.823 122 141.675 122ZM160.562 122.17C159.69 122.17 158.908 121.972 158.216 121.575C157.536 121.167 156.998 120.617 156.601 119.926C156.205 119.223 156.006 118.424 156.006 117.529C156.006 116.634 156.205 115.84 156.601 115.149C156.998 114.446 157.536 113.897 158.216 113.5C158.908 113.092 159.69 112.888 160.562 112.888C161.424 112.888 162.194 113.092 162.874 113.5C163.566 113.897 164.11 114.446 164.506 115.149C164.903 115.84 165.101 116.634 165.101 117.529C165.101 118.424 164.903 119.223 164.506 119.926C164.11 120.617 163.566 121.167 162.874 121.575C162.194 121.972 161.424 122.17 160.562 122.17ZM160.562 120.572C161.095 120.572 161.571 120.442 161.99 120.181C162.41 119.909 162.738 119.546 162.976 119.093C163.214 118.628 163.328 118.107 163.316 117.529C163.328 116.94 163.214 116.418 162.976 115.965C162.738 115.5 162.41 115.138 161.99 114.877C161.571 114.616 161.095 114.486 160.562 114.486C160.03 114.486 159.548 114.622 159.117 114.894C158.698 115.155 158.369 115.517 158.131 115.982C157.893 116.435 157.78 116.951 157.791 117.529C157.78 118.107 157.893 118.628 158.131 119.093C158.369 119.546 158.698 119.909 159.117 120.181C159.548 120.442 160.03 120.572 160.562 120.572ZM167.646 122V112.072C167.646 111.562 167.759 111.109 167.986 110.712C168.213 110.315 168.524 110.004 168.921 109.777C169.318 109.55 169.777 109.437 170.298 109.437C170.661 109.437 171.001 109.505 171.318 109.641C171.635 109.777 171.89 109.958 172.083 110.185L171.488 111.528C171.341 111.392 171.176 111.284 170.995 111.205C170.825 111.114 170.661 111.069 170.502 111.069C170.264 111.069 170.06 111.109 169.89 111.188C169.731 111.256 169.612 111.369 169.533 111.528C169.454 111.675 169.414 111.857 169.414 112.072V122H168.53C168.383 122 168.235 122 168.088 122C167.941 122 167.793 122 167.646 122ZM166.218 114.843V113.228H171.522V114.843H166.218ZM179.221 122V110.797H180.972V122H179.221ZM177.368 114.775V113.075H183.046V114.775H177.368ZM184.64 122V113.075H186.408V115.88L186.238 115.2C186.363 114.769 186.572 114.378 186.867 114.027C187.173 113.676 187.519 113.398 187.904 113.194C188.301 112.99 188.709 112.888 189.128 112.888C189.321 112.888 189.502 112.905 189.672 112.939C189.853 112.973 189.995 113.013 190.097 113.058L189.638 114.962C189.502 114.905 189.349 114.86 189.179 114.826C189.02 114.781 188.862 114.758 188.703 114.758C188.397 114.758 188.102 114.82 187.819 114.945C187.547 115.058 187.303 115.223 187.088 115.438C186.884 115.642 186.72 115.886 186.595 116.169C186.47 116.441 186.408 116.741 186.408 117.07V122H184.64ZM194.624 122.17C193.99 122.17 193.434 122.023 192.958 121.728C192.494 121.433 192.131 121.02 191.87 120.487C191.621 119.954 191.496 119.32 191.496 118.583V113.075H193.247V118.107C193.247 118.628 193.327 119.082 193.485 119.467C193.655 119.841 193.893 120.13 194.199 120.334C194.517 120.538 194.896 120.64 195.338 120.64C195.667 120.64 195.967 120.589 196.239 120.487C196.511 120.374 196.744 120.221 196.936 120.028C197.14 119.835 197.299 119.603 197.412 119.331C197.526 119.059 197.582 118.764 197.582 118.447V113.075H199.333V122H197.582V120.13L197.888 119.926C197.752 120.345 197.52 120.725 197.191 121.065C196.874 121.405 196.494 121.677 196.052 121.881C195.61 122.074 195.134 122.17 194.624 122.17ZM204.764 122.17C204.016 122.17 203.342 122.04 202.741 121.779C202.141 121.518 201.642 121.133 201.245 120.623L202.435 119.603C202.775 120 203.144 120.289 203.54 120.47C203.948 120.64 204.407 120.725 204.917 120.725C205.121 120.725 205.308 120.702 205.478 120.657C205.66 120.6 205.813 120.521 205.937 120.419C206.073 120.317 206.175 120.198 206.243 120.062C206.311 119.915 206.345 119.756 206.345 119.586C206.345 119.291 206.238 119.053 206.022 118.872C205.909 118.793 205.728 118.708 205.478 118.617C205.24 118.515 204.929 118.413 204.543 118.311C203.886 118.141 203.348 117.948 202.928 117.733C202.509 117.518 202.186 117.274 201.959 117.002C201.789 116.787 201.665 116.554 201.585 116.305C201.506 116.044 201.466 115.761 201.466 115.455C201.466 115.081 201.546 114.741 201.704 114.435C201.874 114.118 202.101 113.846 202.384 113.619C202.679 113.381 203.019 113.2 203.404 113.075C203.801 112.95 204.22 112.888 204.662 112.888C205.082 112.888 205.495 112.945 205.903 113.058C206.323 113.171 206.708 113.336 207.059 113.551C207.411 113.766 207.705 114.021 207.943 114.316L206.94 115.421C206.725 115.206 206.487 115.019 206.226 114.86C205.977 114.69 205.722 114.56 205.461 114.469C205.201 114.378 204.963 114.333 204.747 114.333C204.509 114.333 204.294 114.356 204.101 114.401C203.909 114.446 203.744 114.514 203.608 114.605C203.484 114.696 203.387 114.809 203.319 114.945C203.251 115.081 203.217 115.234 203.217 115.404C203.229 115.551 203.263 115.693 203.319 115.829C203.387 115.954 203.478 116.061 203.591 116.152C203.716 116.243 203.903 116.339 204.152 116.441C204.402 116.543 204.719 116.639 205.104 116.73C205.671 116.877 206.136 117.042 206.498 117.223C206.872 117.393 207.167 117.591 207.382 117.818C207.609 118.033 207.768 118.283 207.858 118.566C207.949 118.849 207.994 119.167 207.994 119.518C207.994 120.028 207.847 120.487 207.552 120.895C207.269 121.292 206.884 121.603 206.396 121.83C205.909 122.057 205.365 122.17 204.764 122.17ZM211.029 122V110.797H212.78V122H211.029ZM209.176 114.775V113.075H214.854V114.775H209.176ZM224.647 122.17C223.911 122.17 223.236 121.966 222.624 121.558C222.024 121.15 221.542 120.595 221.179 119.892C220.817 119.189 220.635 118.396 220.635 117.512C220.635 116.617 220.817 115.823 221.179 115.132C221.553 114.429 222.052 113.88 222.675 113.483C223.31 113.086 224.018 112.888 224.8 112.888C225.265 112.888 225.69 112.956 226.075 113.092C226.461 113.228 226.795 113.421 227.078 113.67C227.373 113.908 227.611 114.186 227.792 114.503C227.985 114.82 228.104 115.16 228.149 115.523L227.758 115.387V113.075H229.526V122H227.758V119.875L228.166 119.756C228.098 120.062 227.957 120.362 227.741 120.657C227.537 120.94 227.271 121.195 226.942 121.422C226.625 121.649 226.268 121.83 225.871 121.966C225.486 122.102 225.078 122.17 224.647 122.17ZM225.106 120.555C225.639 120.555 226.109 120.425 226.517 120.164C226.925 119.903 227.243 119.546 227.469 119.093C227.707 118.628 227.826 118.101 227.826 117.512C227.826 116.934 227.707 116.418 227.469 115.965C227.243 115.512 226.925 115.155 226.517 114.894C226.109 114.633 225.639 114.503 225.106 114.503C224.585 114.503 224.12 114.633 223.712 114.894C223.316 115.155 222.998 115.512 222.76 115.965C222.534 116.418 222.42 116.934 222.42 117.512C222.42 118.101 222.534 118.628 222.76 119.093C222.998 119.546 223.316 119.903 223.712 120.164C224.12 120.425 224.585 120.555 225.106 120.555ZM231.971 122V113.075H233.722V114.911L233.416 115.115C233.529 114.718 233.75 114.356 234.079 114.027C234.408 113.687 234.799 113.415 235.252 113.211C235.705 112.996 236.17 112.888 236.646 112.888C237.326 112.888 237.893 113.024 238.346 113.296C238.799 113.557 239.139 113.959 239.366 114.503C239.593 115.047 239.706 115.733 239.706 116.56V122H237.955V116.679C237.955 116.169 237.887 115.75 237.751 115.421C237.615 115.081 237.405 114.837 237.122 114.69C236.839 114.531 236.487 114.463 236.068 114.486C235.728 114.486 235.416 114.543 235.133 114.656C234.85 114.758 234.6 114.905 234.385 115.098C234.181 115.291 234.017 115.517 233.892 115.778C233.779 116.027 233.722 116.299 233.722 116.594V122H232.855C232.708 122 232.56 122 232.413 122C232.266 122 232.118 122 231.971 122ZM245.804 122.17C244.988 122.17 244.257 121.972 243.611 121.575C242.977 121.167 242.472 120.617 242.098 119.926C241.724 119.223 241.537 118.424 241.537 117.529C241.537 116.634 241.719 115.84 242.081 115.149C242.455 114.446 242.96 113.897 243.594 113.5C244.229 113.092 244.949 112.888 245.753 112.888C246.195 112.888 246.62 112.962 247.028 113.109C247.448 113.245 247.822 113.438 248.15 113.687C248.479 113.925 248.734 114.191 248.915 114.486C249.108 114.769 249.204 115.058 249.204 115.353L248.694 115.387V109.42H250.445V122H248.694V119.875H249.034C249.034 120.147 248.944 120.419 248.762 120.691C248.581 120.952 248.337 121.195 248.031 121.422C247.737 121.649 247.391 121.83 246.994 121.966C246.609 122.102 246.212 122.17 245.804 122.17ZM246.042 120.657C246.575 120.657 247.045 120.521 247.453 120.249C247.861 119.977 248.179 119.609 248.405 119.144C248.643 118.668 248.762 118.13 248.762 117.529C248.762 116.928 248.643 116.396 248.405 115.931C248.179 115.455 247.861 115.081 247.453 114.809C247.045 114.537 246.575 114.401 246.042 114.401C245.51 114.401 245.039 114.537 244.631 114.809C244.223 115.081 243.9 115.455 243.662 115.931C243.436 116.396 243.322 116.928 243.322 117.529C243.322 118.13 243.436 118.668 243.662 119.144C243.9 119.609 244.223 119.977 244.631 120.249C245.039 120.521 245.51 120.657 246.042 120.657ZM65.015 147.17C64.1877 147.17 63.4453 146.966 62.788 146.558C62.142 146.15 61.6263 145.595 61.241 144.892C60.867 144.189 60.68 143.402 60.68 142.529C60.68 141.656 60.867 140.869 61.241 140.166C61.6263 139.463 62.142 138.908 62.788 138.5C63.4453 138.092 64.1877 137.888 65.015 137.888C65.8083 137.888 66.528 138.052 67.174 138.381C67.8313 138.698 68.33 139.135 68.67 139.69L67.701 140.88C67.5197 140.619 67.2873 140.381 67.004 140.166C66.7207 139.951 66.4203 139.781 66.103 139.656C65.7857 139.531 65.4797 139.469 65.185 139.469C64.641 139.469 64.1537 139.605 63.723 139.877C63.3037 140.138 62.9693 140.5 62.72 140.965C62.4707 141.43 62.346 141.951 62.346 142.529C62.346 143.107 62.4763 143.628 62.737 144.093C62.9977 144.546 63.3433 144.909 63.774 145.181C64.2047 145.453 64.6807 145.589 65.202 145.589C65.508 145.589 65.8027 145.538 66.086 145.436C66.3807 145.334 66.664 145.181 66.936 144.977C67.208 144.773 67.463 144.524 67.701 144.229L68.67 145.419C68.3073 145.929 67.786 146.348 67.106 146.677C66.4373 147.006 65.7403 147.17 65.015 147.17ZM74.3337 147.17C73.461 147.17 72.679 146.972 71.9877 146.575C71.3077 146.167 70.7693 145.617 70.3727 144.926C69.976 144.223 69.7777 143.424 69.7777 142.529C69.7777 141.634 69.976 140.84 70.3727 140.149C70.7693 139.446 71.3077 138.897 71.9877 138.5C72.679 138.092 73.461 137.888 74.3337 137.888C75.195 137.888 75.9657 138.092 76.6457 138.5C77.337 138.897 77.881 139.446 78.2777 140.149C78.6743 140.84 78.8727 141.634 78.8727 142.529C78.8727 143.424 78.6743 144.223 78.2777 144.926C77.881 145.617 77.337 146.167 76.6457 146.575C75.9657 146.972 75.195 147.17 74.3337 147.17ZM74.3337 145.572C74.8663 145.572 75.3423 145.442 75.7617 145.181C76.181 144.909 76.5097 144.546 76.7477 144.093C76.9857 143.628 77.099 143.107 77.0877 142.529C77.099 141.94 76.9857 141.418 76.7477 140.965C76.5097 140.5 76.181 140.138 75.7617 139.877C75.3423 139.616 74.8663 139.486 74.3337 139.486C73.801 139.486 73.3193 139.622 72.8887 139.894C72.4693 140.155 72.1407 140.517 71.9027 140.982C71.6647 141.435 71.5513 141.951 71.5627 142.529C71.5513 143.107 71.6647 143.628 71.9027 144.093C72.1407 144.546 72.4693 144.909 72.8887 145.181C73.3193 145.442 73.801 145.572 74.3337 145.572ZM80.7466 147V138.075H82.5146V139.979L82.1916 140.183C82.2823 139.888 82.424 139.605 82.6166 139.333C82.8206 139.061 83.0643 138.823 83.3476 138.619C83.6423 138.404 83.954 138.234 84.2826 138.109C84.6226 137.984 84.9683 137.922 85.3196 137.922C85.8296 137.922 86.2773 138.007 86.6626 138.177C87.048 138.347 87.3653 138.602 87.6146 138.942C87.864 139.282 88.0453 139.707 88.1586 140.217L87.8866 140.149L88.0056 139.86C88.1303 139.599 88.3003 139.356 88.5156 139.129C88.7423 138.891 88.9973 138.681 89.2806 138.5C89.564 138.319 89.8643 138.177 90.1816 138.075C90.499 137.973 90.8106 137.922 91.1166 137.922C91.7853 137.922 92.335 138.058 92.7656 138.33C93.2076 138.602 93.5363 139.016 93.7516 139.571C93.9783 140.126 94.0916 140.818 94.0916 141.645V147H92.3236V141.747C92.3236 141.237 92.2556 140.823 92.1196 140.506C91.995 140.177 91.8023 139.934 91.5416 139.775C91.281 139.616 90.9466 139.537 90.5386 139.537C90.2213 139.537 89.921 139.594 89.6376 139.707C89.3656 139.809 89.1276 139.956 88.9236 140.149C88.7196 140.342 88.561 140.568 88.4476 140.829C88.3343 141.078 88.2776 141.356 88.2776 141.662V147H86.5096V141.713C86.5096 141.248 86.4416 140.857 86.3056 140.54C86.1696 140.211 85.9713 139.962 85.7106 139.792C85.45 139.622 85.1326 139.537 84.7586 139.537C84.4413 139.537 84.1466 139.594 83.8746 139.707C83.6026 139.809 83.3646 139.956 83.1606 140.149C82.9566 140.33 82.798 140.551 82.6846 140.812C82.5713 141.061 82.5146 141.333 82.5146 141.628V147H80.7466ZM96.4019 147V138.075H98.1699V139.979L97.8469 140.183C97.9376 139.888 98.0792 139.605 98.2719 139.333C98.4759 139.061 98.7196 138.823 99.0029 138.619C99.2976 138.404 99.6092 138.234 99.9379 138.109C100.278 137.984 100.624 137.922 100.975 137.922C101.485 137.922 101.933 138.007 102.318 138.177C102.703 138.347 103.021 138.602 103.27 138.942C103.519 139.282 103.701 139.707 103.814 140.217L103.542 140.149L103.661 139.86C103.786 139.599 103.956 139.356 104.171 139.129C104.398 138.891 104.653 138.681 104.936 138.5C105.219 138.319 105.52 138.177 105.837 138.075C106.154 137.973 106.466 137.922 106.772 137.922C107.441 137.922 107.99 138.058 108.421 138.33C108.863 138.602 109.192 139.016 109.407 139.571C109.634 140.126 109.747 140.818 109.747 141.645V147H107.979V141.747C107.979 141.237 107.911 140.823 107.775 140.506C107.65 140.177 107.458 139.934 107.197 139.775C106.936 139.616 106.602 139.537 106.194 139.537C105.877 139.537 105.576 139.594 105.293 139.707C105.021 139.809 104.783 139.956 104.579 140.149C104.375 140.342 104.216 140.568 104.103 140.829C103.99 141.078 103.933 141.356 103.933 141.662V147H102.165V141.713C102.165 141.248 102.097 140.857 101.961 140.54C101.825 140.211 101.627 139.962 101.366 139.792C101.105 139.622 100.788 139.537 100.414 139.537C100.097 139.537 99.8019 139.594 99.5299 139.707C99.2579 139.809 99.0199 139.956 98.8159 140.149C98.6119 140.33 98.4532 140.551 98.3399 140.812C98.2266 141.061 98.1699 141.333 98.1699 141.628V147H96.4019ZM112.38 147V138.075H114.131V147H112.38ZM113.23 136.103C112.856 136.103 112.567 136.007 112.363 135.814C112.159 135.621 112.057 135.349 112.057 134.998C112.057 134.669 112.159 134.403 112.363 134.199C112.579 133.995 112.868 133.893 113.23 133.893C113.604 133.893 113.893 133.989 114.097 134.182C114.301 134.375 114.403 134.647 114.403 134.998C114.403 135.327 114.296 135.593 114.08 135.797C113.876 136.001 113.593 136.103 113.23 136.103ZM117.928 147V135.797H119.679V147H117.928ZM116.075 139.775V138.075H121.753V139.775H116.075ZM123.313 147V138.075H125.081V139.979L124.758 140.183C124.849 139.888 124.99 139.605 125.183 139.333C125.387 139.061 125.631 138.823 125.914 138.619C126.209 138.404 126.52 138.234 126.849 138.109C127.189 137.984 127.535 137.922 127.886 137.922C128.396 137.922 128.844 138.007 129.229 138.177C129.614 138.347 129.932 138.602 130.181 138.942C130.43 139.282 130.612 139.707 130.725 140.217L130.453 140.149L130.572 139.86C130.697 139.599 130.867 139.356 131.082 139.129C131.309 138.891 131.564 138.681 131.847 138.5C132.13 138.319 132.431 138.177 132.748 138.075C133.065 137.973 133.377 137.922 133.683 137.922C134.352 137.922 134.901 138.058 135.332 138.33C135.774 138.602 136.103 139.016 136.318 139.571C136.545 140.126 136.658 140.818 136.658 141.645V147H134.89V141.747C134.89 141.237 134.822 140.823 134.686 140.506C134.561 140.177 134.369 139.934 134.108 139.775C133.847 139.616 133.513 139.537 133.105 139.537C132.788 139.537 132.487 139.594 132.204 139.707C131.932 139.809 131.694 139.956 131.49 140.149C131.286 140.342 131.127 140.568 131.014 140.829C130.901 141.078 130.844 141.356 130.844 141.662V147H129.076V141.713C129.076 141.248 129.008 140.857 128.872 140.54C128.736 140.211 128.538 139.962 128.277 139.792C128.016 139.622 127.699 139.537 127.325 139.537C127.008 139.537 126.713 139.594 126.441 139.707C126.169 139.809 125.931 139.956 125.727 140.149C125.523 140.33 125.364 140.551 125.251 140.812C125.138 141.061 125.081 141.333 125.081 141.628V147H123.313ZM143.167 147.17C142.249 147.17 141.433 146.977 140.719 146.592C140.017 146.195 139.461 145.657 139.053 144.977C138.657 144.297 138.458 143.515 138.458 142.631C138.458 141.928 138.572 141.288 138.798 140.71C139.025 140.132 139.337 139.633 139.733 139.214C140.141 138.783 140.623 138.455 141.178 138.228C141.745 137.99 142.357 137.871 143.014 137.871C143.592 137.871 144.131 137.984 144.629 138.211C145.128 138.426 145.559 138.727 145.921 139.112C146.295 139.497 146.579 139.956 146.771 140.489C146.975 141.01 147.072 141.583 147.06 142.206L147.043 142.954H139.75L139.359 141.56H145.53L145.275 141.849V141.441C145.241 141.067 145.117 140.733 144.901 140.438C144.686 140.143 144.414 139.911 144.085 139.741C143.757 139.571 143.4 139.486 143.014 139.486C142.402 139.486 141.887 139.605 141.467 139.843C141.048 140.07 140.731 140.41 140.515 140.863C140.3 141.305 140.192 141.855 140.192 142.512C140.192 143.135 140.323 143.679 140.583 144.144C140.844 144.597 141.212 144.949 141.688 145.198C142.164 145.447 142.714 145.572 143.337 145.572C143.779 145.572 144.187 145.498 144.561 145.351C144.947 145.204 145.36 144.937 145.802 144.552L146.686 145.793C146.414 146.065 146.08 146.303 145.683 146.507C145.298 146.711 144.884 146.875 144.442 147C144.012 147.113 143.587 147.17 143.167 147.17ZM148.963 147V138.075H150.714V139.911L150.408 140.115C150.522 139.718 150.743 139.356 151.071 139.027C151.4 138.687 151.791 138.415 152.244 138.211C152.698 137.996 153.162 137.888 153.638 137.888C154.318 137.888 154.885 138.024 155.338 138.296C155.792 138.557 156.132 138.959 156.358 139.503C156.585 140.047 156.698 140.733 156.698 141.56V147H154.947V141.679C154.947 141.169 154.879 140.75 154.743 140.421C154.607 140.081 154.398 139.837 154.114 139.69C153.831 139.531 153.48 139.463 153.06 139.486C152.72 139.486 152.409 139.543 152.125 139.656C151.842 139.758 151.593 139.905 151.377 140.098C151.173 140.291 151.009 140.517 150.884 140.778C150.771 141.027 150.714 141.299 150.714 141.594V147H149.847C149.7 147 149.553 147 149.405 147C149.258 147 149.111 147 148.963 147ZM160.179 147V135.797H161.93V147H160.179ZM158.326 139.775V138.075H164.004V139.775H158.326ZM171.468 147V135.797H173.219V147H171.468ZM169.615 139.775V138.075H175.293V139.775H169.615ZM180.816 147.17C179.943 147.17 179.161 146.972 178.47 146.575C177.79 146.167 177.252 145.617 176.855 144.926C176.458 144.223 176.26 143.424 176.26 142.529C176.26 141.634 176.458 140.84 176.855 140.149C177.252 139.446 177.79 138.897 178.47 138.5C179.161 138.092 179.943 137.888 180.816 137.888C181.677 137.888 182.448 138.092 183.128 138.5C183.819 138.897 184.363 139.446 184.76 140.149C185.157 140.84 185.355 141.634 185.355 142.529C185.355 143.424 185.157 144.223 184.76 144.926C184.363 145.617 183.819 146.167 183.128 146.575C182.448 146.972 181.677 147.17 180.816 147.17ZM180.816 145.572C181.349 145.572 181.825 145.442 182.244 145.181C182.663 144.909 182.992 144.546 183.23 144.093C183.468 143.628 183.581 143.107 183.57 142.529C183.581 141.94 183.468 141.418 183.23 140.965C182.992 140.5 182.663 140.138 182.244 139.877C181.825 139.616 181.349 139.486 180.816 139.486C180.283 139.486 179.802 139.622 179.371 139.894C178.952 140.155 178.623 140.517 178.385 140.982C178.147 141.435 178.034 141.951 178.045 142.529C178.034 143.107 178.147 143.628 178.385 144.093C178.623 144.546 178.952 144.909 179.371 145.181C179.802 145.442 180.283 145.572 180.816 145.572ZM196.72 147.17C196.334 147.17 195.949 147.108 195.564 146.983C195.19 146.858 194.844 146.694 194.527 146.49C194.221 146.275 193.96 146.042 193.745 145.793C193.541 145.532 193.405 145.272 193.337 145.011L193.779 144.773V146.949H192.028V134.42H193.779V140.115L193.507 139.962C193.563 139.701 193.688 139.452 193.881 139.214C194.073 138.965 194.317 138.744 194.612 138.551C194.918 138.347 195.246 138.188 195.598 138.075C195.949 137.95 196.306 137.888 196.669 137.888C197.473 137.888 198.187 138.086 198.811 138.483C199.434 138.88 199.927 139.429 200.29 140.132C200.652 140.823 200.834 141.617 200.834 142.512C200.834 143.407 200.652 144.206 200.29 144.909C199.938 145.612 199.451 146.167 198.828 146.575C198.204 146.972 197.502 147.17 196.72 147.17ZM196.431 145.572C196.952 145.572 197.417 145.442 197.825 145.181C198.233 144.909 198.556 144.546 198.794 144.093C199.032 143.628 199.151 143.101 199.151 142.512C199.151 141.934 199.032 141.418 198.794 140.965C198.567 140.5 198.25 140.138 197.842 139.877C197.434 139.616 196.963 139.486 196.431 139.486C195.898 139.486 195.428 139.616 195.02 139.877C194.612 140.138 194.289 140.5 194.051 140.965C193.813 141.418 193.694 141.934 193.694 142.512C193.694 143.101 193.813 143.628 194.051 144.093C194.289 144.546 194.612 144.909 195.02 145.181C195.428 145.442 195.898 145.572 196.431 145.572ZM205.864 147.17C205.229 147.17 204.674 147.023 204.198 146.728C203.733 146.433 203.37 146.02 203.11 145.487C202.86 144.954 202.736 144.32 202.736 143.583V138.075H204.487V143.107C204.487 143.628 204.566 144.082 204.725 144.467C204.895 144.841 205.133 145.13 205.439 145.334C205.756 145.538 206.136 145.64 206.578 145.64C206.906 145.64 207.207 145.589 207.479 145.487C207.751 145.374 207.983 145.221 208.176 145.028C208.38 144.835 208.538 144.603 208.652 144.331C208.765 144.059 208.822 143.764 208.822 143.447V138.075H210.573V147H208.822V145.13L209.128 144.926C208.992 145.345 208.759 145.725 208.431 146.065C208.113 146.405 207.734 146.677 207.292 146.881C206.85 147.074 206.374 147.17 205.864 147.17ZM213.318 147V138.075H215.069V147H213.318ZM214.168 136.103C213.794 136.103 213.505 136.007 213.301 135.814C213.097 135.621 212.995 135.349 212.995 134.998C212.995 134.669 213.097 134.403 213.301 134.199C213.516 133.995 213.805 133.893 214.168 133.893C214.542 133.893 214.831 133.989 215.035 134.182C215.239 134.375 215.341 134.647 215.341 134.998C215.341 135.327 215.233 135.593 215.018 135.797C214.814 136.001 214.53 136.103 214.168 136.103ZM217.794 147V134.42H219.545V147H217.794ZM225.584 147.17C224.768 147.17 224.037 146.972 223.391 146.575C222.756 146.167 222.252 145.617 221.878 144.926C221.504 144.223 221.317 143.424 221.317 142.529C221.317 141.634 221.498 140.84 221.861 140.149C222.235 139.446 222.739 138.897 223.374 138.5C224.008 138.092 224.728 137.888 225.533 137.888C225.975 137.888 226.4 137.962 226.808 138.109C227.227 138.245 227.601 138.438 227.93 138.687C228.258 138.925 228.513 139.191 228.695 139.486C228.887 139.769 228.984 140.058 228.984 140.353L228.474 140.387V134.42H230.225V147H228.474V144.875H228.814C228.814 145.147 228.723 145.419 228.542 145.691C228.36 145.952 228.117 146.195 227.811 146.422C227.516 146.649 227.17 146.83 226.774 146.966C226.388 147.102 225.992 147.17 225.584 147.17ZM225.822 145.657C226.354 145.657 226.825 145.521 227.233 145.249C227.641 144.977 227.958 144.609 228.185 144.144C228.423 143.668 228.542 143.13 228.542 142.529C228.542 141.928 228.423 141.396 228.185 140.931C227.958 140.455 227.641 140.081 227.233 139.809C226.825 139.537 226.354 139.401 225.822 139.401C225.289 139.401 224.819 139.537 224.411 139.809C224.003 140.081 223.68 140.455 223.442 140.931C223.215 141.396 223.102 141.928 223.102 142.529C223.102 143.13 223.215 143.668 223.442 144.144C223.68 144.609 224.003 144.977 224.411 145.249C224.819 145.521 225.289 145.657 225.822 145.657ZM232.924 147V138.075H234.675V147H232.924ZM233.774 136.103C233.4 136.103 233.111 136.007 232.907 135.814C232.703 135.621 232.601 135.349 232.601 134.998C232.601 134.669 232.703 134.403 232.907 134.199C233.122 133.995 233.411 133.893 233.774 133.893C234.148 133.893 234.437 133.989 234.641 134.182C234.845 134.375 234.947 134.647 234.947 134.998C234.947 135.327 234.839 135.593 234.624 135.797C234.42 136.001 234.137 136.103 233.774 136.103ZM237.367 147V138.075H239.118V139.911L238.812 140.115C238.925 139.718 239.146 139.356 239.475 139.027C239.803 138.687 240.194 138.415 240.648 138.211C241.101 137.996 241.566 137.888 242.042 137.888C242.722 137.888 243.288 138.024 243.742 138.296C244.195 138.557 244.535 138.959 244.762 139.503C244.988 140.047 245.102 140.733 245.102 141.56V147H243.351V141.679C243.351 141.169 243.283 140.75 243.147 140.421C243.011 140.081 242.801 139.837 242.518 139.69C242.234 139.531 241.883 139.463 241.464 139.486C241.124 139.486 240.812 139.543 240.529 139.656C240.245 139.758 239.996 139.905 239.781 140.098C239.577 140.291 239.412 140.517 239.288 140.778C239.174 141.027 239.118 141.299 239.118 141.594V147H238.251C238.103 147 237.956 147 237.809 147C237.661 147 237.514 147 237.367 147ZM251.472 150.91C250.837 150.91 250.203 150.808 249.568 150.604C248.945 150.411 248.44 150.156 248.055 149.839L248.701 148.479C248.928 148.649 249.194 148.796 249.5 148.921C249.806 149.057 250.129 149.159 250.469 149.227C250.809 149.306 251.143 149.346 251.472 149.346C252.095 149.346 252.617 149.244 253.036 149.04C253.455 148.836 253.773 148.536 253.988 148.139C254.203 147.742 254.311 147.249 254.311 146.66V144.943L254.498 145.062C254.441 145.413 254.254 145.753 253.937 146.082C253.631 146.399 253.246 146.66 252.781 146.864C252.316 147.068 251.84 147.17 251.353 147.17C250.503 147.17 249.744 146.972 249.075 146.575C248.418 146.167 247.896 145.617 247.511 144.926C247.126 144.223 246.933 143.424 246.933 142.529C246.933 141.634 247.12 140.84 247.494 140.149C247.879 139.446 248.401 138.897 249.058 138.5C249.727 138.092 250.475 137.888 251.302 137.888C251.642 137.888 251.971 137.933 252.288 138.024C252.605 138.103 252.9 138.222 253.172 138.381C253.444 138.528 253.688 138.693 253.903 138.874C254.118 139.055 254.294 139.248 254.43 139.452C254.566 139.656 254.651 139.849 254.685 140.03L254.311 140.166V138.075H256.062V146.456C256.062 147.17 255.954 147.799 255.739 148.343C255.535 148.898 255.235 149.363 254.838 149.737C254.441 150.122 253.96 150.411 253.393 150.604C252.826 150.808 252.186 150.91 251.472 150.91ZM251.54 145.555C252.095 145.555 252.588 145.425 253.019 145.164C253.45 144.903 253.784 144.546 254.022 144.093C254.26 143.64 254.379 143.118 254.379 142.529C254.379 141.94 254.254 141.418 254.005 140.965C253.767 140.5 253.433 140.138 253.002 139.877C252.583 139.616 252.095 139.486 251.54 139.486C250.996 139.486 250.509 139.622 250.078 139.894C249.659 140.155 249.324 140.517 249.075 140.982C248.837 141.435 248.718 141.951 248.718 142.529C248.718 143.107 248.837 143.628 249.075 144.093C249.324 144.546 249.659 144.903 250.078 145.164C250.509 145.425 250.996 145.555 251.54 145.555ZM263.316 147V134.42H265.067V147H263.316ZM271.394 147.17C270.522 147.17 269.74 146.972 269.048 146.575C268.368 146.167 267.83 145.617 267.433 144.926C267.037 144.223 266.838 143.424 266.838 142.529C266.838 141.634 267.037 140.84 267.433 140.149C267.83 139.446 268.368 138.897 269.048 138.5C269.74 138.092 270.522 137.888 271.394 137.888C272.256 137.888 273.026 138.092 273.706 138.5C274.398 138.897 274.942 139.446 275.338 140.149C275.735 140.84 275.933 141.634 275.933 142.529C275.933 143.424 275.735 144.223 275.338 144.926C274.942 145.617 274.398 146.167 273.706 146.575C273.026 146.972 272.256 147.17 271.394 147.17ZM271.394 145.572C271.927 145.572 272.403 145.442 272.822 145.181C273.242 144.909 273.57 144.546 273.808 144.093C274.046 143.628 274.16 143.107 274.148 142.529C274.16 141.94 274.046 141.418 273.808 140.965C273.57 140.5 273.242 140.138 272.822 139.877C272.403 139.616 271.927 139.486 271.394 139.486C270.862 139.486 270.38 139.622 269.949 139.894C269.53 140.155 269.201 140.517 268.963 140.982C268.725 141.435 268.612 141.951 268.623 142.529C268.612 143.107 268.725 143.628 268.963 144.093C269.201 144.546 269.53 144.909 269.949 145.181C270.38 145.442 270.862 145.572 271.394 145.572ZM277.841 147V138.075H279.592V139.911L279.286 140.115C279.4 139.718 279.621 139.356 279.949 139.027C280.278 138.687 280.669 138.415 281.122 138.211C281.576 137.996 282.04 137.888 282.516 137.888C283.196 137.888 283.763 138.024 284.216 138.296C284.67 138.557 285.01 138.959 285.236 139.503C285.463 140.047 285.576 140.733 285.576 141.56V147H283.825V141.679C283.825 141.169 283.757 140.75 283.621 140.421C283.485 140.081 283.276 139.837 282.992 139.69C282.709 139.531 282.358 139.463 281.938 139.486C281.598 139.486 281.287 139.543 281.003 139.656C280.72 139.758 280.471 139.905 280.255 140.098C280.051 140.291 279.887 140.517 279.762 140.778C279.649 141.027 279.592 141.299 279.592 141.594V147H278.725C278.578 147 278.431 147 278.283 147C278.136 147 277.989 147 277.841 147ZM291.947 150.91C291.312 150.91 290.677 150.808 290.043 150.604C289.419 150.411 288.915 150.156 288.53 149.839L289.176 148.479C289.402 148.649 289.669 148.796 289.975 148.921C290.281 149.057 290.604 149.159 290.944 149.227C291.284 149.306 291.618 149.346 291.947 149.346C292.57 149.346 293.091 149.244 293.511 149.04C293.93 148.836 294.247 148.536 294.463 148.139C294.678 147.742 294.786 147.249 294.786 146.66V144.943L294.973 145.062C294.916 145.413 294.729 145.753 294.412 146.082C294.106 146.399 293.72 146.66 293.256 146.864C292.791 147.068 292.315 147.17 291.828 147.17C290.978 147.17 290.218 146.972 289.55 146.575C288.892 146.167 288.371 145.617 287.986 144.926C287.6 144.223 287.408 143.424 287.408 142.529C287.408 141.634 287.595 140.84 287.969 140.149C288.354 139.446 288.875 138.897 289.533 138.5C290.201 138.092 290.949 137.888 291.777 137.888C292.117 137.888 292.445 137.933 292.763 138.024C293.08 138.103 293.375 138.222 293.647 138.381C293.919 138.528 294.162 138.693 294.378 138.874C294.593 139.055 294.769 139.248 294.905 139.452C295.041 139.656 295.126 139.849 295.16 140.03L294.786 140.166V138.075H296.537V146.456C296.537 147.17 296.429 147.799 296.214 148.343C296.01 148.898 295.709 149.363 295.313 149.737C294.916 150.122 294.434 150.411 293.868 150.604C293.301 150.808 292.661 150.91 291.947 150.91ZM292.015 145.555C292.57 145.555 293.063 145.425 293.494 145.164C293.924 144.903 294.259 144.546 294.497 144.093C294.735 143.64 294.854 143.118 294.854 142.529C294.854 141.94 294.729 141.418 294.48 140.965C294.242 140.5 293.907 140.138 293.477 139.877C293.057 139.616 292.57 139.486 292.015 139.486C291.471 139.486 290.983 139.622 290.553 139.894C290.133 140.155 289.799 140.517 289.55 140.982C289.312 141.435 289.193 141.951 289.193 142.529C289.193 143.107 289.312 143.628 289.55 144.093C289.799 144.546 290.133 144.903 290.553 145.164C290.983 145.425 291.471 145.555 292.015 145.555ZM298.669 143.005V141.271H303.565V143.005H298.669ZM62.329 173V161.797H64.08V173H62.329ZM60.476 165.775V164.075H66.154V165.775H60.476ZM71.8304 173.17C70.9124 173.17 70.0964 172.977 69.3824 172.592C68.6797 172.195 68.1244 171.657 67.7164 170.977C67.3197 170.297 67.1214 169.515 67.1214 168.631C67.1214 167.928 67.2347 167.288 67.4614 166.71C67.6881 166.132 67.9997 165.633 68.3964 165.214C68.8044 164.783 69.2861 164.455 69.8414 164.228C70.4081 163.99 71.0201 163.871 71.6774 163.871C72.2554 163.871 72.7937 163.984 73.2924 164.211C73.7911 164.426 74.2217 164.727 74.5844 165.112C74.9584 165.497 75.2417 165.956 75.4344 166.489C75.6384 167.01 75.7347 167.583 75.7234 168.206L75.7064 168.954H68.4134L68.0224 167.56H74.1934L73.9384 167.849V167.441C73.9044 167.067 73.7797 166.733 73.5644 166.438C73.3491 166.143 73.0771 165.911 72.7484 165.741C72.4197 165.571 72.0627 165.486 71.6774 165.486C71.0654 165.486 70.5497 165.605 70.1304 165.843C69.7111 166.07 69.3937 166.41 69.1784 166.863C68.9631 167.305 68.8554 167.855 68.8554 168.512C68.8554 169.135 68.9857 169.679 69.2464 170.144C69.5071 170.597 69.8754 170.949 70.3514 171.198C70.8274 171.447 71.3771 171.572 72.0004 171.572C72.4424 171.572 72.8504 171.498 73.2244 171.351C73.6097 171.204 74.0234 170.937 74.4654 170.552L75.3494 171.793C75.0774 172.065 74.7431 172.303 74.3464 172.507C73.9611 172.711 73.5474 172.875 73.1054 173C72.6747 173.113 72.2497 173.17 71.8304 173.17ZM77.6263 173V164.075H79.3943V166.88L79.2243 166.2C79.349 165.769 79.5587 165.378 79.8533 165.027C80.1593 164.676 80.505 164.398 80.8903 164.194C81.287 163.99 81.695 163.888 82.1143 163.888C82.307 163.888 82.4883 163.905 82.6583 163.939C82.8397 163.973 82.9813 164.013 83.0833 164.058L82.6243 165.962C82.4883 165.905 82.3353 165.86 82.1653 165.826C82.0067 165.781 81.848 165.758 81.6893 165.758C81.3833 165.758 81.0887 165.82 80.8053 165.945C80.5333 166.058 80.2897 166.223 80.0743 166.438C79.8703 166.642 79.706 166.886 79.5813 167.169C79.4567 167.441 79.3943 167.741 79.3943 168.07V173H77.6263ZM84.4488 173V164.075H86.2168V165.979L85.8938 166.183C85.9845 165.888 86.1261 165.605 86.3188 165.333C86.5228 165.061 86.7665 164.823 87.0498 164.619C87.3445 164.404 87.6561 164.234 87.9848 164.109C88.3248 163.984 88.6705 163.922 89.0218 163.922C89.5318 163.922 89.9795 164.007 90.3648 164.177C90.7501 164.347 91.0675 164.602 91.3168 164.942C91.5661 165.282 91.7475 165.707 91.8608 166.217L91.5888 166.149L91.7078 165.86C91.8325 165.599 92.0025 165.356 92.2178 165.129C92.4445 164.891 92.6995 164.681 92.9828 164.5C93.2661 164.319 93.5665 164.177 93.8838 164.075C94.2011 163.973 94.5128 163.922 94.8188 163.922C95.4875 163.922 96.0371 164.058 96.4678 164.33C96.9098 164.602 97.2385 165.016 97.4538 165.571C97.6805 166.126 97.7938 166.818 97.7938 167.645V173H96.0258V167.747C96.0258 167.237 95.9578 166.823 95.8218 166.506C95.6971 166.177 95.5045 165.934 95.2438 165.775C94.9831 165.616 94.6488 165.537 94.2408 165.537C93.9235 165.537 93.6231 165.594 93.3398 165.707C93.0678 165.809 92.8298 165.956 92.6258 166.149C92.4218 166.342 92.2631 166.568 92.1498 166.829C92.0365 167.078 91.9798 167.356 91.9798 167.662V173H90.2118V167.713C90.2118 167.248 90.1438 166.857 90.0078 166.54C89.8718 166.211 89.6735 165.962 89.4128 165.792C89.1521 165.622 88.8348 165.537 88.4608 165.537C88.1435 165.537 87.8488 165.594 87.5768 165.707C87.3048 165.809 87.0668 165.956 86.8628 166.149C86.6588 166.33 86.5001 166.551 86.3868 166.812C86.2735 167.061 86.2168 167.333 86.2168 167.628V173H84.4488ZM104.903 176.74V164.075H106.671V166.115L106.399 165.962C106.467 165.622 106.659 165.299 106.977 164.993C107.294 164.676 107.679 164.421 108.133 164.228C108.597 164.024 109.073 163.922 109.561 163.922C110.365 163.922 111.079 164.12 111.703 164.517C112.326 164.914 112.819 165.458 113.182 166.149C113.544 166.84 113.726 167.634 113.726 168.529C113.726 169.413 113.544 170.206 113.182 170.909C112.83 171.6 112.343 172.15 111.72 172.558C111.096 172.955 110.394 173.153 109.612 173.153C109.09 173.153 108.586 173.051 108.099 172.847C107.611 172.632 107.198 172.36 106.858 172.031C106.518 171.702 106.308 171.362 106.229 171.011L106.671 170.773V176.74H104.903ZM109.323 171.538C109.844 171.538 110.309 171.408 110.717 171.147C111.125 170.886 111.448 170.529 111.686 170.076C111.924 169.623 112.043 169.107 112.043 168.529C112.043 167.951 111.924 167.441 111.686 166.999C111.459 166.546 111.142 166.189 110.734 165.928C110.326 165.667 109.855 165.537 109.323 165.537C108.79 165.537 108.32 165.667 107.912 165.928C107.504 166.177 107.181 166.529 106.943 166.982C106.705 167.435 106.586 167.951 106.586 168.529C106.586 169.107 106.705 169.623 106.943 170.076C107.181 170.529 107.504 170.886 107.912 171.147C108.32 171.408 108.79 171.538 109.323 171.538ZM119.061 173.17C118.325 173.17 117.65 172.966 117.038 172.558C116.438 172.15 115.956 171.595 115.593 170.892C115.231 170.189 115.049 169.396 115.049 168.512C115.049 167.617 115.231 166.823 115.593 166.132C115.967 165.429 116.466 164.88 117.089 164.483C117.724 164.086 118.432 163.888 119.214 163.888C119.679 163.888 120.104 163.956 120.489 164.092C120.875 164.228 121.209 164.421 121.492 164.67C121.787 164.908 122.025 165.186 122.206 165.503C122.399 165.82 122.518 166.16 122.563 166.523L122.172 166.387V164.075H123.94V173H122.172V170.875L122.58 170.756C122.512 171.062 122.371 171.362 122.155 171.657C121.951 171.94 121.685 172.195 121.356 172.422C121.039 172.649 120.682 172.83 120.285 172.966C119.9 173.102 119.492 173.17 119.061 173.17ZM119.52 171.555C120.053 171.555 120.523 171.425 120.931 171.164C121.339 170.903 121.657 170.546 121.883 170.093C122.121 169.628 122.24 169.101 122.24 168.512C122.24 167.934 122.121 167.418 121.883 166.965C121.657 166.512 121.339 166.155 120.931 165.894C120.523 165.633 120.053 165.503 119.52 165.503C118.999 165.503 118.534 165.633 118.126 165.894C117.73 166.155 117.412 166.512 117.174 166.965C116.948 167.418 116.834 167.934 116.834 168.512C116.834 169.101 116.948 169.628 117.174 170.093C117.412 170.546 117.73 170.903 118.126 171.164C118.534 171.425 118.999 171.555 119.52 171.555ZM126.385 173V164.075H128.153V166.88L127.983 166.2C128.108 165.769 128.317 165.378 128.612 165.027C128.918 164.676 129.264 164.398 129.649 164.194C130.046 163.99 130.454 163.888 130.873 163.888C131.066 163.888 131.247 163.905 131.417 163.939C131.598 163.973 131.74 164.013 131.842 164.058L131.383 165.962C131.247 165.905 131.094 165.86 130.924 165.826C130.765 165.781 130.607 165.758 130.448 165.758C130.142 165.758 129.847 165.82 129.564 165.945C129.292 166.058 129.048 166.223 128.833 166.438C128.629 166.642 128.465 166.886 128.34 167.169C128.215 167.441 128.153 167.741 128.153 168.07V173H126.385ZM134.679 173V161.797H136.43V173H134.679ZM132.826 165.775V164.075H138.504V165.775H132.826ZM140.098 173V164.075H141.849V165.911L141.543 166.115C141.656 165.718 141.877 165.356 142.206 165.027C142.535 164.687 142.926 164.415 143.379 164.211C143.832 163.996 144.297 163.888 144.773 163.888C145.453 163.888 146.02 164.024 146.473 164.296C146.926 164.557 147.266 164.959 147.493 165.503C147.72 166.047 147.833 166.733 147.833 167.56V173H146.082V167.679C146.082 167.169 146.014 166.75 145.878 166.421C145.742 166.081 145.532 165.837 145.249 165.69C144.966 165.531 144.614 165.463 144.195 165.486C143.855 165.486 143.543 165.543 143.26 165.656C142.977 165.758 142.727 165.905 142.512 166.098C142.308 166.291 142.144 166.517 142.019 166.778C141.906 167.027 141.849 167.299 141.849 167.594V173H140.982C140.835 173 140.687 173 140.54 173C140.393 173 140.245 173 140.098 173ZM154.373 173.17C153.455 173.17 152.639 172.977 151.925 172.592C151.223 172.195 150.667 171.657 150.259 170.977C149.863 170.297 149.664 169.515 149.664 168.631C149.664 167.928 149.778 167.288 150.004 166.71C150.231 166.132 150.543 165.633 150.939 165.214C151.347 164.783 151.829 164.455 152.384 164.228C152.951 163.99 153.563 163.871 154.22 163.871C154.798 163.871 155.337 163.984 155.835 164.211C156.334 164.426 156.765 164.727 157.127 165.112C157.501 165.497 157.785 165.956 157.977 166.489C158.181 167.01 158.278 167.583 158.266 168.206L158.249 168.954H150.956L150.565 167.56H156.736L156.481 167.849V167.441C156.447 167.067 156.323 166.733 156.107 166.438C155.892 166.143 155.62 165.911 155.291 165.741C154.963 165.571 154.606 165.486 154.22 165.486C153.608 165.486 153.093 165.605 152.673 165.843C152.254 166.07 151.937 166.41 151.721 166.863C151.506 167.305 151.398 167.855 151.398 168.512C151.398 169.135 151.529 169.679 151.789 170.144C152.05 170.597 152.418 170.949 152.894 171.198C153.37 171.447 153.92 171.572 154.543 171.572C154.985 171.572 155.393 171.498 155.767 171.351C156.153 171.204 156.566 170.937 157.008 170.552L157.892 171.793C157.62 172.065 157.286 172.303 156.889 172.507C156.504 172.711 156.09 172.875 155.648 173C155.218 173.113 154.793 173.17 154.373 173.17ZM160.169 173V164.075H161.937V166.88L161.767 166.2C161.892 165.769 162.102 165.378 162.396 165.027C162.702 164.676 163.048 164.398 163.433 164.194C163.83 163.99 164.238 163.888 164.657 163.888C164.85 163.888 165.031 163.905 165.201 163.939C165.383 163.973 165.524 164.013 165.626 164.058L165.167 165.962C165.031 165.905 164.878 165.86 164.708 165.826C164.55 165.781 164.391 165.758 164.232 165.758C163.926 165.758 163.632 165.82 163.348 165.945C163.076 166.058 162.833 166.223 162.617 166.438C162.413 166.642 162.249 166.886 162.124 167.169C162 167.441 161.937 167.741 161.937 168.07V173H160.169ZM170.001 173.17C169.253 173.17 168.578 173.04 167.978 172.779C167.377 172.518 166.878 172.133 166.482 171.623L167.672 170.603C168.012 171 168.38 171.289 168.777 171.47C169.185 171.64 169.644 171.725 170.154 171.725C170.358 171.725 170.545 171.702 170.715 171.657C170.896 171.6 171.049 171.521 171.174 171.419C171.31 171.317 171.412 171.198 171.48 171.062C171.548 170.915 171.582 170.756 171.582 170.586C171.582 170.291 171.474 170.053 171.259 169.872C171.145 169.793 170.964 169.708 170.715 169.617C170.477 169.515 170.165 169.413 169.78 169.311C169.122 169.141 168.584 168.948 168.165 168.733C167.745 168.518 167.422 168.274 167.196 168.002C167.026 167.787 166.901 167.554 166.822 167.305C166.742 167.044 166.703 166.761 166.703 166.455C166.703 166.081 166.782 165.741 166.941 165.435C167.111 165.118 167.337 164.846 167.621 164.619C167.915 164.381 168.255 164.2 168.641 164.075C169.037 163.95 169.457 163.888 169.899 163.888C170.318 163.888 170.732 163.945 171.14 164.058C171.559 164.171 171.944 164.336 172.296 164.551C172.647 164.766 172.942 165.021 173.18 165.316L172.177 166.421C171.961 166.206 171.723 166.019 171.463 165.86C171.213 165.69 170.958 165.56 170.698 165.469C170.437 165.378 170.199 165.333 169.984 165.333C169.746 165.333 169.53 165.356 169.338 165.401C169.145 165.446 168.981 165.514 168.845 165.605C168.72 165.696 168.624 165.809 168.556 165.945C168.488 166.081 168.454 166.234 168.454 166.404C168.465 166.551 168.499 166.693 168.556 166.829C168.624 166.954 168.714 167.061 168.828 167.152C168.952 167.243 169.139 167.339 169.389 167.441C169.638 167.543 169.955 167.639 170.341 167.73C170.907 167.877 171.372 168.042 171.735 168.223C172.109 168.393 172.403 168.591 172.619 168.818C172.845 169.033 173.004 169.283 173.095 169.566C173.185 169.849 173.231 170.167 173.231 170.518C173.231 171.028 173.083 171.487 172.789 171.895C172.505 172.292 172.12 172.603 171.633 172.83C171.145 173.057 170.601 173.17 170.001 173.17ZM175.161 173V160.42H176.912V165.911L176.606 166.115C176.719 165.718 176.94 165.356 177.269 165.027C177.597 164.687 177.988 164.415 178.442 164.211C178.895 163.996 179.36 163.888 179.836 163.888C180.516 163.888 181.082 164.024 181.536 164.296C181.989 164.557 182.329 164.959 182.556 165.503C182.782 166.047 182.896 166.733 182.896 167.56V173H181.145V167.679C181.145 167.169 181.077 166.75 180.941 166.421C180.805 166.081 180.595 165.837 180.312 165.69C180.028 165.531 179.677 165.463 179.258 165.486C178.918 165.486 178.606 165.543 178.323 165.656C178.039 165.758 177.79 165.905 177.575 166.098C177.371 166.291 177.206 166.517 177.082 166.778C176.968 167.027 176.912 167.299 176.912 167.594V173H176.045C175.897 173 175.75 173 175.603 173C175.455 173 175.308 173 175.161 173ZM185.56 173V164.075H187.311V173H185.56ZM186.41 162.103C186.036 162.103 185.747 162.007 185.543 161.814C185.339 161.621 185.237 161.349 185.237 160.998C185.237 160.669 185.339 160.403 185.543 160.199C185.758 159.995 186.047 159.893 186.41 159.893C186.784 159.893 187.073 159.989 187.277 160.182C187.481 160.375 187.583 160.647 187.583 160.998C187.583 161.327 187.475 161.593 187.26 161.797C187.056 162.001 186.773 162.103 186.41 162.103ZM190.002 176.74V164.075H191.77V166.115L191.498 165.962C191.566 165.622 191.759 165.299 192.076 164.993C192.394 164.676 192.779 164.421 193.232 164.228C193.697 164.024 194.173 163.922 194.66 163.922C195.465 163.922 196.179 164.12 196.802 164.517C197.426 164.914 197.919 165.458 198.281 166.149C198.644 166.84 198.825 167.634 198.825 168.529C198.825 169.413 198.644 170.206 198.281 170.909C197.93 171.6 197.443 172.15 196.819 172.558C196.196 172.955 195.493 173.153 194.711 173.153C194.19 173.153 193.686 173.051 193.198 172.847C192.711 172.632 192.297 172.36 191.957 172.031C191.617 171.702 191.408 171.362 191.328 171.011L191.77 170.773V176.74H190.002ZM194.422 171.538C194.944 171.538 195.408 171.408 195.816 171.147C196.224 170.886 196.547 170.529 196.785 170.076C197.023 169.623 197.142 169.107 197.142 168.529C197.142 167.951 197.023 167.441 196.785 166.999C196.559 166.546 196.241 166.189 195.833 165.928C195.425 165.667 194.955 165.537 194.422 165.537C193.89 165.537 193.419 165.667 193.011 165.928C192.603 166.177 192.28 166.529 192.042 166.982C191.804 167.435 191.685 167.951 191.685 168.529C191.685 169.107 191.804 169.623 192.042 170.076C192.28 170.529 192.603 170.886 193.011 171.147C193.419 171.408 193.89 171.538 194.422 171.538ZM203.702 173.17C202.954 173.17 202.28 173.04 201.679 172.779C201.078 172.518 200.58 172.133 200.183 171.623L201.373 170.603C201.713 171 202.081 171.289 202.478 171.47C202.886 171.64 203.345 171.725 203.855 171.725C204.059 171.725 204.246 171.702 204.416 171.657C204.597 171.6 204.75 171.521 204.875 171.419C205.011 171.317 205.113 171.198 205.181 171.062C205.249 170.915 205.283 170.756 205.283 170.586C205.283 170.291 205.175 170.053 204.96 169.872C204.847 169.793 204.665 169.708 204.416 169.617C204.178 169.515 203.866 169.413 203.481 169.311C202.824 169.141 202.285 168.948 201.866 168.733C201.447 168.518 201.124 168.274 200.897 168.002C200.727 167.787 200.602 167.554 200.523 167.305C200.444 167.044 200.404 166.761 200.404 166.455C200.404 166.081 200.483 165.741 200.642 165.435C200.812 165.118 201.039 164.846 201.322 164.619C201.617 164.381 201.957 164.2 202.342 164.075C202.739 163.95 203.158 163.888 203.6 163.888C204.019 163.888 204.433 163.945 204.841 164.058C205.26 164.171 205.646 164.336 205.997 164.551C206.348 164.766 206.643 165.021 206.881 165.316L205.878 166.421C205.663 166.206 205.425 166.019 205.164 165.86C204.915 165.69 204.66 165.56 204.399 165.469C204.138 165.378 203.9 165.333 203.685 165.333C203.447 165.333 203.232 165.356 203.039 165.401C202.846 165.446 202.682 165.514 202.546 165.605C202.421 165.696 202.325 165.809 202.257 165.945C202.189 166.081 202.155 166.234 202.155 166.404C202.166 166.551 202.2 166.693 202.257 166.829C202.325 166.954 202.416 167.061 202.529 167.152C202.654 167.243 202.841 167.339 203.09 167.441C203.339 167.543 203.657 167.639 204.042 167.73C204.609 167.877 205.073 168.042 205.436 168.223C205.81 168.393 206.105 168.591 206.32 168.818C206.547 169.033 206.705 169.283 206.796 169.566C206.887 169.849 206.932 170.167 206.932 170.518C206.932 171.028 206.785 171.487 206.49 171.895C206.207 172.292 205.821 172.603 205.334 172.83C204.847 173.057 204.303 173.17 203.702 173.17ZM209.576 173.187C209.202 173.187 208.913 173.079 208.709 172.864C208.505 172.637 208.403 172.32 208.403 171.912C208.403 171.538 208.51 171.232 208.726 170.994C208.941 170.756 209.224 170.637 209.576 170.637C209.95 170.637 210.239 170.75 210.443 170.977C210.647 171.192 210.749 171.504 210.749 171.912C210.749 172.286 210.641 172.592 210.426 172.83C210.21 173.068 209.927 173.187 209.576 173.187Z" fill="white" fill-opacity="0.83"/>
<g clip-path="url(#clip0_74_1030)">
<path d="M353 50.469C353 50.6727 353 50.8765 353 51.0803C352.528 50.8969 352.261 51.2637 351.912 51.4675C350.823 52.0585 349.673 52.5476 348.667 53.2812C347.579 53.7296 346.552 54.2594 345.607 54.9523C345.463 55.0134 345.34 55.095 345.197 55.1561C345.094 55.2172 345.012 55.2784 344.909 55.3191C344.847 55.3599 344.786 55.4006 344.724 55.421C342.999 56.3381 341.295 57.2755 339.57 58.1722C338.748 58.6001 338.03 59.3134 337.003 59.2115C336.613 58.8039 336.099 58.7835 335.565 58.8039C333.553 58.4167 331.561 58.6001 329.61 59.1504C328.173 59.2726 326.859 59.7413 325.524 60.2508C322.731 61.2086 320.41 62.9816 317.926 64.4896C316.858 65.0195 315.811 65.6308 314.845 66.3441C314.578 66.3849 314.394 66.5275 314.229 66.7517C312.812 67.4649 311.416 68.2597 310.102 69.1564C309.383 69.5232 308.644 69.8493 308.048 70.4199C307.617 70.6033 307.124 70.7052 307.124 71.3165C307.145 72.3559 306.775 73.3341 306.467 74.2919C306.241 74.516 306.036 74.7402 305.974 75.0663C305.112 76.126 304.126 77.043 302.914 77.6951C302.647 77.7766 302.339 77.7359 302.155 78.0008C302.011 78.0416 301.867 78.062 301.744 78.1027C301.58 78.0416 301.456 78.062 301.333 78.1842C300.45 78.3269 299.547 78.3269 298.664 78.2454C297.986 78.0212 297.288 77.797 296.61 77.5525C295.994 77.1449 295.378 76.7169 294.762 76.3094C294.248 75.6165 293.756 74.944 293.242 74.2511C293.057 73.6397 292.852 73.0487 292.667 72.4374C292.4 70.3384 292.832 68.382 293.981 66.5886H293.961C294.043 66.5071 294.105 66.4256 294.187 66.3441C294.372 66.1403 294.577 65.9365 294.762 65.7327C295.83 64.7749 297.144 64.2858 298.458 63.7764C299.711 63.6948 300.943 63.7152 302.155 64.0617C302.688 64.347 303.243 64.5915 303.756 64.8972C304.064 65.0806 304.311 65.0806 304.598 64.8972C306.446 63.7967 308.295 62.7167 310.122 61.6366C311.437 61.0456 312.669 60.3323 313.86 59.5172C314.25 59.3338 314.681 59.2523 314.948 58.8651C316.016 58.4167 316.96 57.8054 317.926 57.1736C319.158 56.603 320.328 55.9305 321.458 55.1561C321.581 55.0746 321.684 54.9931 321.807 54.9116C324.846 53.2405 326.92 50.6931 328.419 47.6363C328.85 47.0045 329.179 46.3117 329.364 45.5576C329.61 44.3757 330.883 44.3145 331.541 43.5809C332.218 43.3975 332.773 42.9899 333.327 42.6027C335.894 41.2781 338.44 39.8719 340.905 38.3435C342.342 37.7933 343.533 36.754 344.971 36.2241C344.231 38.6696 343.472 41.0947 342.732 43.5401C342.465 44.3757 342.198 45.2112 341.911 46.0467C341.767 46.4951 341.911 46.76 342.342 46.9027C344.375 47.5752 346.408 48.2477 348.441 48.9202C349.714 49.45 351.029 49.9187 352.363 50.2244C352.589 50.3059 352.795 50.3874 353 50.469Z" fill="#FEA821"/>
<path d="M317.926 49.0831C315.544 47.1268 312.956 45.4761 309.958 44.559C307.535 43.4789 304.988 42.9695 302.36 42.7861C302.216 42.7657 302.093 42.7657 301.949 42.7453C301.682 42.623 301.415 42.5823 301.128 42.6842C300.306 42.6434 299.505 42.5211 298.684 42.6842C295.994 42.6434 293.386 43.1121 290.86 44.0088C290.511 44.0903 290.182 44.2533 289.854 44.3552C288.868 44.7017 287.78 44.9258 286.958 45.6595C285.891 45.9448 284.946 46.4543 284.124 47.1879C283.775 47.2694 283.488 47.4528 283.283 47.7381C280.264 49.6334 277.779 52.0788 275.89 55.0745C275.602 55.2783 275.418 55.5636 275.335 55.91C274.617 56.766 274.103 57.7441 273.693 58.7631C273.015 59.9858 272.44 61.2493 272.111 62.5943C270.735 66.4052 270.427 70.3383 270.797 74.3326C270.9 75.3923 270.982 76.4723 271.434 77.4709C271.454 77.6135 271.454 77.7358 271.475 77.8785C271.701 79.2439 271.988 80.5685 272.727 81.7708C272.953 83.1158 273.734 84.2367 274.35 85.4187C274.329 85.5409 274.37 85.6224 274.493 85.6428C274.719 86.1523 274.945 86.6618 275.356 87.049C275.808 87.966 276.444 88.7608 277.163 89.5148C277.738 90.493 278.58 91.247 279.422 92.001C279.75 92.4901 280.202 92.8366 280.675 93.1626C281.414 93.9778 282.276 94.6299 283.262 95.119C285.541 96.9123 288.108 98.1351 290.901 98.8687C292.154 99.4189 293.448 99.7654 294.803 99.8265C295.932 100.214 297.103 100.193 298.273 100.254C299.711 100.336 301.169 100.397 302.586 100.091C302.914 100.071 303.263 100.051 303.592 100.03C303.654 100.01 303.715 100.01 303.797 99.9896C303.941 99.9692 304.064 99.9488 304.208 99.9284C304.352 99.9896 304.496 99.9692 304.619 99.8469C304.824 99.8265 305.029 99.8061 305.235 99.7858C305.399 99.8061 305.543 99.7654 305.645 99.6227C305.871 99.6635 306.077 99.6431 306.262 99.5208C307.617 99.2559 308.972 98.991 310.184 98.2981C311.067 98.0943 311.909 97.7683 312.627 97.218C313.161 97.0958 313.613 96.8104 314.044 96.5048C315.544 95.8119 316.858 94.8133 318.09 93.7332C318.316 93.6925 318.439 93.5294 318.542 93.346C319.897 92.2863 321.129 91.1451 322.053 89.6778C322.238 89.6167 322.238 89.4333 322.279 89.2906C323.47 88.4347 324.045 87.1101 324.784 85.9077C326.427 83.3808 327.433 80.6092 328.008 77.6543C328.05 77.4505 328.111 77.2467 328.152 77.0429C328.316 76.8595 328.316 76.6557 328.275 76.4316C328.316 76.1666 328.337 75.9017 328.378 75.6368C328.583 75.4534 328.522 75.2292 328.501 75.0254C328.522 74.7605 328.522 74.4752 328.542 74.2103C328.83 72.9264 328.809 71.6425 328.686 70.3383C328.707 69.9918 328.768 69.6454 328.583 69.3397C328.707 69.1359 328.686 68.9321 328.542 68.7284C328.522 68.4431 328.522 68.1781 328.501 67.8928C328.542 67.5464 328.522 67.1999 328.316 66.8943C328.296 66.7516 328.275 66.609 328.275 66.4663C328.152 65.3047 329.282 65.4881 329.836 65.0602C330.924 64.836 331.992 64.6322 333.081 64.408C334.723 64.4896 334.723 64.4896 334.99 66.2014C335.011 66.3644 335.093 66.5071 335.155 66.6497C335.196 67.1999 335.257 67.7298 335.298 68.28C335.196 68.5042 335.196 68.708 335.36 68.8914C335.401 70.1753 335.442 71.4795 335.483 72.7634C335.319 73.2932 335.257 73.8435 335.298 74.3937C335.237 75.0458 335.175 75.7183 335.093 76.3704C335.073 76.452 335.032 76.5335 335.011 76.615C334.97 76.9614 334.949 77.3079 334.908 77.6543C334.58 79.0197 334.251 80.3647 333.943 81.7301C333.799 81.832 333.717 81.9542 333.738 82.1377C333.738 82.1988 333.717 82.2599 333.717 82.3414C333.45 83.1362 333.183 83.931 332.916 84.7258C332.711 84.8888 332.649 85.113 332.649 85.3779C331.972 86.7433 331.274 88.1087 330.596 89.4741C329.241 91.247 328.111 93.1626 326.591 94.8133C324.086 97.5645 321.314 99.9692 318.09 101.864C317.823 102.007 317.597 102.231 317.371 102.415L317.31 102.455C317.186 102.517 317.084 102.598 316.96 102.659C315.071 103.393 313.326 104.493 311.354 105.044C309.65 105.512 307.945 105.981 306.241 106.45C305.954 106.368 305.687 106.45 305.42 106.572C305.358 106.592 305.276 106.592 305.214 106.613C302.216 106.98 299.197 107.102 296.199 106.816C296.056 106.816 295.932 106.796 295.789 106.796C295.378 106.776 294.988 106.735 294.577 106.715C293.365 106.348 292.133 106.103 290.86 106.001C289.628 105.594 288.396 105.186 287.184 104.779C287.061 104.738 286.938 104.717 286.794 104.677C286.753 104.616 286.691 104.616 286.63 104.656V104.697C285.582 103.984 284.391 103.617 283.283 103.046C282.091 102.374 280.9 101.722 279.709 101.07C279.627 101.008 279.545 100.947 279.463 100.886C278.21 99.8877 276.937 98.8891 275.684 97.8905C275.459 97.5645 275.212 97.2588 274.843 97.0754C273.775 95.8934 272.686 94.7318 271.618 93.5498C271.577 93.346 271.454 93.2238 271.269 93.1423C270.448 91.9195 269.606 90.6764 268.785 89.4537C268.559 88.9034 268.292 88.3532 267.922 87.8845C267.532 87.049 267.142 86.2134 266.752 85.3983C266.32 84.1959 265.869 83.014 265.437 81.8116C264.328 77.6135 263.774 73.334 264.082 68.9729C264.226 66.8535 264.657 64.7545 265.047 62.6758C265.437 61.4531 265.807 60.2507 266.197 59.028C266.772 57.7238 267.347 56.4399 267.943 55.1357C268.127 55.0541 268.127 54.8911 268.148 54.7281C268.867 53.5869 269.585 52.4456 270.284 51.3044C270.735 50.6931 271.187 50.0613 271.639 49.4499C272.214 48.7774 272.81 48.1253 273.385 47.4528C274.103 46.7396 274.843 46.0059 275.561 45.2927C276.239 44.722 276.896 44.1311 277.574 43.5604C278.19 43.1121 278.826 42.6638 279.442 42.2154C280.736 41.441 282.03 40.6666 283.303 39.8923C284.597 39.3216 285.911 38.751 287.205 38.16C288.499 37.7728 289.792 37.3653 291.065 36.9781C291.969 36.8762 292.873 36.7131 293.735 36.4278C295.46 36.2648 297.164 36.0203 298.889 35.9999C301.354 35.9591 303.777 36.1833 306.22 36.5297C307.514 36.8354 308.828 37.1411 310.122 37.4468C311.416 37.9359 312.71 38.4046 314.024 38.8937C314.886 39.3624 315.728 39.8515 316.652 40.1776C316.899 40.3202 317.166 40.4629 317.412 40.5851C318.809 41.5022 320.205 42.4396 321.622 43.3567C321.848 43.642 322.074 43.8865 322.423 43.9884C323.532 45.2111 323.532 45.2111 322.546 46.6784C322.382 46.923 322.217 47.1675 322.053 47.4121C321.807 47.514 321.663 47.7177 321.601 47.9623C321.273 48.2476 320.944 48.5329 320.616 48.8182C319.322 49.9798 319.322 49.9798 317.926 49.0831Z" fill="#FEA821"/>
<path d="M313.449 77.7155C314.27 76.3909 314.496 74.8829 314.743 73.3952C314.825 72.9469 314.969 72.6819 315.379 72.4782C317.063 71.6834 318.727 70.8682 320.39 70.0531C320.698 69.89 321.006 69.6863 321.211 70.1753C321.211 71.3369 321.211 72.4782 321.191 73.6398C321.129 73.9862 321.068 74.3123 321.026 74.6587C321.006 74.7198 321.006 74.781 320.985 74.8625C320.944 75.1478 320.903 75.4127 320.842 75.698C320.636 75.8611 320.657 76.0852 320.698 76.289C320.657 76.4928 320.616 76.6966 320.595 76.9004C320.431 76.9819 320.39 77.1245 320.431 77.2876C320.369 77.4914 320.328 77.6748 320.267 77.8786C319.712 79.1828 319.158 80.4871 318.603 81.7709C318.316 82.0155 318.234 82.3619 318.09 82.6676C318.028 82.7695 317.967 82.8714 317.905 82.9733C317.864 82.9937 317.844 83.0344 317.864 83.0752C317.125 83.8292 316.57 84.7259 315.975 85.5614C315.318 86.1931 314.681 86.8045 314.024 87.4363C313.264 88.0476 312.525 88.659 311.765 89.25C311.17 89.5149 310.615 89.8002 310.122 90.2282C308.829 90.7988 307.535 91.349 306.241 91.9196C306.159 91.94 306.097 91.9604 306.015 91.9807C305.728 91.94 305.44 91.9196 305.235 92.1845C304.331 92.3679 303.448 92.5513 302.545 92.7348C302.401 92.7551 302.278 92.7551 302.134 92.7755C302.072 92.7551 302.011 92.7551 301.949 92.7755C300.019 92.7755 298.089 92.8367 296.158 92.5514C294.331 92.266 292.626 91.5935 290.901 91.0433C289.299 90.167 287.698 89.3111 286.26 88.1699C283.94 86.3358 282.194 84.033 280.654 81.5671C280.305 80.6501 279.956 79.733 279.422 78.8975C279.401 78.7752 279.381 78.653 279.36 78.5307C279.319 78.4288 279.278 78.3473 279.237 78.2454C279.258 78.1842 279.237 78.1435 279.176 78.1231C278.888 76.8392 278.621 75.535 278.334 74.2511C278.334 74.1085 278.334 73.9862 278.313 73.8435C278.293 73.4971 278.416 73.1507 278.169 72.8246C278.169 72.0094 278.169 71.1943 278.19 70.3791C278.354 69.1564 278.498 67.9337 278.662 66.6906C278.765 66.3849 278.909 66.0588 278.991 65.7531C279.648 63.3077 280.798 61.1067 282.194 59.0077C282.564 58.5186 282.934 58.0295 283.303 57.5404C284.104 56.7253 284.925 55.9305 285.726 55.1154C286.199 54.8504 286.65 54.5447 286.999 54.1168C289.361 52.6088 291.846 51.3453 294.598 50.6728C295.994 50.2652 297.472 50.3059 298.889 50.041C299.505 50.0614 300.101 50.0818 300.717 50.1022C301.046 50.3467 301.415 50.204 301.764 50.204C301.97 50.204 302.175 50.204 302.38 50.204C303.674 50.4893 304.988 50.7543 306.282 51.0396C306.652 51.3045 307.083 51.386 307.514 51.4472C308.397 51.8547 309.28 52.2827 310.163 52.6903C310.43 52.8737 310.697 53.0775 310.985 53.2405C312.237 53.9741 312.237 53.9741 311.067 54.7485C310.923 54.8301 310.82 54.9727 310.697 55.0746C310.492 55.0746 310.287 55.095 310.184 55.2988C308.829 55.9101 307.555 56.6641 306.303 57.4182C305.214 57.7442 304.393 56.8679 303.387 56.8068C303.058 56.7864 302.75 56.5419 302.401 56.6438C302.072 56.5215 301.723 56.4807 301.354 56.5419C301.189 56.3585 300.963 56.3381 300.738 56.4196C300.204 56.277 299.649 56.3381 299.095 56.3788C297.616 56.44 296.158 56.6234 294.803 57.2755C294.043 57.3774 293.365 57.6831 292.749 58.111C292.667 58.1722 292.565 58.2129 292.482 58.2741H292.462C291.866 58.4575 291.353 58.8039 290.901 59.2115C289.566 60.1489 288.437 61.2698 287.492 62.5944C287.246 62.8186 287.061 63.0631 286.979 63.3892C286.322 64.3266 285.747 65.3048 285.541 66.4664C284.864 67.7503 284.72 69.136 284.617 70.5422C284.617 71.0109 284.617 71.5 284.617 71.9687C284.597 72.3763 284.515 72.8042 284.782 73.171C284.72 73.5175 284.761 73.8639 284.884 74.19C285.131 75.6573 285.541 77.0838 286.383 78.3473C286.404 78.6733 286.568 78.8975 286.794 79.0809C287.308 80.0795 287.924 81.0169 288.807 81.7302C289.361 82.5046 290.1 83.0752 290.922 83.5846C291.723 84.3387 292.708 84.8278 293.715 85.2353C296.158 86.2135 298.684 86.886 301.374 86.3358C301.58 86.3154 301.805 86.295 302.011 86.2747C302.688 86.3358 303.305 86.1524 303.88 85.8467C304.824 85.6633 305.748 85.3984 306.549 84.8074C309.712 83.3809 311.929 81.0577 313.387 77.9601L313.367 77.9193C313.346 77.8989 313.408 77.8174 313.449 77.7155Z" fill="#FEA821"/>
</g>
</g>
<defs>
<filter id="filter0_d_74_1030" x="0" y="0" width="399" height="250" filterUnits="userSpaceOnUse" color-interpolation-filters="sRGB">
<feFlood flood-opacity="0" result="BackgroundImageFix"/>
<feColorMatrix in="SourceAlpha" type="matrix" values="0 0 0 0 0 0 0 0 0 0 0 0 0 0 0 0 0 0 127 0" result="hardAlpha"/>
<feOffset dy="10"/>
<feGaussianBlur stdDeviation="12.5"/>
<feComposite in2="hardAlpha" operator="out"/>
<feColorMatrix type="matrix" values="0 0 0 0 0 0 0 0 0 0 0 0 0 0 0 0 0 0 0.1 0"/>
<feBlend mode="normal" in2="BackgroundImageFix" result="effect1_dropShadow_74_1030"/>
<feBlend mode="normal" in="SourceGraphic" in2="effect1_dropShadow_74_1030" result="shape"/>
</filter>
<clipPath id="clip0_74_1030">
<rect width="89" height="71" fill="white" transform="translate(264 36)"/>
</clipPath>
</defs>
</svg>
