<svg width="20" height="20" viewBox="0 0 20 20" fill="none" xmlns="http://www.w3.org/2000/svg">
<g id="Item &#226;&#134;&#146; Link - Summer Fridays on Twitter &#226;&#134;&#146; SVG">
<g id="Group">
<path id="Vector" d="M6.29 18.126C13.838 18.126 17.965 11.873 17.965 6.45101C17.965 6.27301 17.961 6.09701 17.953 5.92101C18.756 5.34001 19.449 4.62001 20 3.79601C19.251 4.12801 18.457 4.34601 17.644 4.44201C18.501 3.92901 19.142 3.12301 19.448 2.17201C18.643 2.65001 17.761 2.98701 16.843 3.16801C15.29 1.51501 12.691 1.43501 11.038 2.98801C9.971 3.99001 9.518 5.48501 9.85 6.91001C6.55 6.74501 3.476 5.18701 1.392 2.62301C0.303 4.49801 0.86 6.89601 2.662 8.10001C2.01 8.08101 1.372 7.90501 0.802 7.58701C0.802 7.60401 0.802 7.62101 0.802 7.63901C0.802 9.59201 2.179 11.275 4.094 11.662C3.741 11.758 3.377 11.807 3.012 11.806C2.753 11.806 2.495 11.781 2.241 11.732C2.778 13.404 4.319 14.549 6.074 14.582C4.621 15.723 2.826 16.341 0.979 16.339C0.652 16.339 0.325 16.32 0 16.282C1.876 17.488 4.06 18.128 6.29 18.126Z" fill="#262626"/>
</g>
</g>
</svg>
